<?xml version="1.0" encoding="UTF-8" standalone="no"?>
<!-- Created with Inkscape (http://www.inkscape.org/) -->

<svg
   xmlns:dc="http://purl.org/dc/elements/1.1/"
   xmlns:cc="http://creativecommons.org/ns#"
   xmlns:rdf="http://www.w3.org/1999/02/22-rdf-syntax-ns#"
   xmlns:svg="http://www.w3.org/2000/svg"
   xmlns="http://www.w3.org/2000/svg"
   xmlns:sodipodi="http://sodipodi.sourceforge.net/DTD/sodipodi-0.dtd"
   xmlns:inkscape="http://www.inkscape.org/namespaces/inkscape"
   version="1.1"
   id="svg58"
   width="2730.6667"
   height="2730.6667"
   viewBox="0 0 2730.6667 2730.6667"
   sodipodi:docname="alfred_feels_poorly.svg"
   inkscape:version="0.92.2 5c3e80d, 2017-08-06">
  <metadata
     id="metadata64">
    <rdf:RDF>
      <cc:Work
         rdf:about="">
        <dc:format>image/svg+xml</dc:format>
        <dc:type
           rdf:resource="http://purl.org/dc/dcmitype/StillImage" />
        <dc:title></dc:title>
      </cc:Work>
    </rdf:RDF>
  </metadata>
  <defs
     id="defs62" />
  <sodipodi:namedview
     pagecolor="#ffffff"
     bordercolor="#666666"
     borderopacity="1"
     objecttolerance="10"
     gridtolerance="10"
     guidetolerance="10"
     inkscape:pageopacity="0"
     inkscape:pageshadow="2"
     inkscape:window-width="1279"
     inkscape:window-height="755"
     id="namedview60"
     showgrid="false"
     inkscape:pagecheckerboard="true"
     inkscape:zoom="0.19848632"
     inkscape:cx="1365.3334"
     inkscape:cy="1365.3334"
     inkscape:window-x="0"
     inkscape:window-y="0"
     inkscape:window-maximized="0"
     inkscape:current-layer="svg58" />
  <path
     style="fill:#000000;stroke-width:1.33333337"
     d="m 494.00001,2678.0688 c -16.14888,-2.6793 -37.31778,-8.0449 -50.30694,-12.751 -21.26536,-7.7048 -34.92756,-19.1131 -42.80704,-35.745 l -4.21936,-8.9061 0.11733,-22 c 0.0993,-18.6139 0.87943,-26.72 5.06854,-52.6667 10.71341,-66.3569 11.92408,-79.3362 12.04124,-129.0924 0.098,-41.6229 -0.0733,-45.1928 -2.22715,-46.3994 -2.79059,-1.5635 -3.0716,-7.4522 -0.49644,-10.4032 1.0103,-1.1578 2.23435,-4.8702 2.72012,-8.2499 0.7938,-5.5228 0.5568,-6.3589 -2.34096,-8.2576 -4.15245,-2.7208 -5.35813,-9.2199 -3.41573,-18.4121 0.83506,-3.952 7.44661,-22.6728 14.69233,-41.6019 7.24571,-18.9291 13.17402,-35.1957 13.17402,-36.1481 0,-1.3219 -3.07594,-0.9827 -13,1.4334 -39.63709,9.6503 -88.29029,17.576 -130.34194,21.2328 -34.93047,3.0376 -93.27293,2.0582 -119.66821,-2.009 -45.63815,-7.0322 -79.102991,-22.1767 -91.895858,-41.5875 -6.785392,-10.2956 -8.732124,-19.0297 -6.583326,-29.5368 7.132329,-34.8752 48.081264,-70.1473 122.390514,-105.4233 25.53499,-12.1219 38.06621,-17.099 71.09881,-28.2384 l 24.66667,-8.3183 0.85893,-57.1608 c 1.1371,-75.6731 7.23502,-181.9448 17.12771,-298.4941 2.76947,-32.628 4.71948,-64.349 6.02448,-98 0.4408,-11.3667 1.65376,-36.5667 2.69545,-56 1.91634,-35.75 3.93168,-103.8135 5.31003,-179.3334 0.99424,-54.4745 2.9312,-106.3781 5.34897,-143.3333 1.0795,-16.5 2.86223,-45.9 3.96162,-65.3334 1.83308,-32.4026 3.41616,-54.9603 7.439,-106 0.8092,-10.2666 2.03822,-21.2962 2.73117,-24.5102 0.69295,-3.214 1.00167,-6.1018 0.68605,-6.4174 -0.64509,-0.6451 -41.10692,11.9785 -61.51674,19.1925 -12.35359,4.3664 -22.89368,8.5542 -65.33334,25.9579 -11.1723,4.5816 -17.5003,6.4588 -20.97232,6.2215 -3.70228,-0.253 -5.6738,0.4131 -7.71861,2.608 -1.82567,1.9596 -4.31457,2.9477 -7.42467,2.9477 -5.96852,0 -10.28764,-4.4684 -13.32904,-13.7899 -3.01512,-9.2408 -2.69858,-8.9594 -7.7171,-6.8625 -6.09568,2.547 -7.50836,0.851 -5.83327,-7.003 1.12536,-5.2765 0.97967,-6.3916 -1.0268,-7.8587 -3.94339,-2.8835 -13.69715,-3.5891 -33.25569,-2.4059 -50.135607,3.0332 -54.053027,1.1705 -54.058478,-25.7038 -0.004,-19.52851 -6.982488,-80.87273 -10.658028,-93.6886 -3.905707,-13.6184 -7.606499,-39.6075 -9.97082,-70.02089 -1.026163,-13.2 -2.601092,-32.7 -3.499845,-43.33333 -0.913423,-10.8069 -1.207862,-23.2104 -0.667627,-28.12443 0.95948,-8.72749 1.054363,-8.89147 13.115384,-22.66667 6.681903,-7.63156 15.315862,-18.77614 19.186576,-24.76572 3.870715,-5.98958 8.184324,-11.25409 9.585798,-11.6989 1.401474,-0.44482 5.039818,-3.76374 8.085209,-7.37539 l 5.537075,-6.56664 -3.355539,-23.44366 c -1.845505,-12.894 -3.355497,-27.30414 -3.355497,-32.02254 0,-5.13038 -0.862206,-10.38698 -2.144902,-13.07683 -1.970981,-4.13319 -1.970981,-4.83423 0,-8.64568 1.179696,-2.28128 2.144902,-5.41703 2.144902,-6.96832 0,-4.09605 2.420417,-7.97856 4.973953,-7.97856 1.217404,0 3.787915,-1.50843 5.712249,-3.35204 7.07307,-6.77644 33.82898,-15.5926 100.64713,-33.16357 15.4,-4.0497 44.8,-11.90607 65.33334,-17.45862 73.22701,-19.80177 213.56272,-53.93988 257.84636,-62.72377 12.04483,-2.38916 20.53649,-1.86989 27.46941,1.67976 5.44806,2.7894 5.64808,3.25448 6.69674,15.5704 1.78892,21.00993 11.3448,72.81523 23.2029,125.78992 15.24864,68.12142 26.3219,133.32103 28.81407,169.65792 1.08368,15.80048 12.07153,104.43416 14.26035,115.03138 1.36542,6.61072 1.30582,8.38034 -0.38359,11.39024 -5.77356,10.28632 -51.18664,28.32064 -61.47013,24.41085 -2.72043,-1.03429 -6.99798,-0.0337 -21.92532,5.12892 -20.77074,7.1835 -51.31739,15.9267 -85.17746,24.37987 l -22.66666,5.65875 0.66092,13.99995 c 0.36352,7.7 0.64121,18.2 0.61712,23.3334 -0.13336,28.4063 -3.58036,175.8668 -4.6284,198 -0.67712,14.3 -1.85154,68 -2.60979,119.3333 -0.75825,51.3334 -1.99168,127.5334 -2.74095,169.3334 -0.74925,41.8 -1.97098,117.4 -2.71497,168 -0.74397,50.6 -2.21152,106.1 -3.2612,123.3333 -1.04969,17.2333 -3.13817,53.2333 -4.64108,80 -1.50291,26.7667 -3.92109,65.8605 -5.37378,86.8752 -1.45266,21.0147 -2.64121,41.2496 -2.64121,44.9667 0,6.6254 0.072,6.7466 3.66667,6.1729 29.4494,-4.7 55.07759,-7.2125 88.73441,-8.6992 16.14684,-0.7132 29.52998,-1.4689 29.7403,-1.6792 0.21032,-0.2103 11.75998,-29.4645 25.66593,-65.0093 13.90595,-35.545 30.36795,-77.5271 36.58223,-93.2938 6.21426,-15.7666 15.32562,-39.7038 20.24745,-53.1937 10.75968,-29.4904 16.53821,-43.3884 21.54813,-51.8256 4.16659,-7.0171 6.48127,-14.8428 12.51542,-42.314 2.2551,-10.2667 7.97004,-34.6401 12.69984,-54.1632 4.72978,-19.5231 8.59962,-37.5747 8.59962,-40.1148 0,-2.54 2.7,-15.282 6,-28.3153 3.3,-13.0335 5.9962,-25.2818 5.99158,-27.2186 -0.007,-2.534 -1.16082,-4.1773 -4.11814,-5.8605 -3.9671,-2.258 -4.09077,-2.6051 -3.56402,-10 0.30013,-4.2136 2.74928,-18.9049 5.44256,-32.6476 2.69326,-13.7428 6.08364,-36.5428 7.53416,-50.6667 6.75999,-65.8232 9.73588,-87.2536 16.89684,-121.68 2.59316,-12.4667 6.97309,-34.485 9.7332,-48.9297 2.76009,-14.4447 6.00648,-27.7711 7.21419,-29.6143 1.36424,-2.0821 4.34325,-3.901 7.86608,-4.8028 3.11862,-0.7983 6.36042,-1.6801 7.20401,-1.9595 1.58773,-0.5259 2.50225,-4.9895 3.83001,-18.6937 3.22351,-33.2705 8.66602,-69.6101 15.3762,-102.6667 4.31695,-21.2666 9.65012,-50.3666 11.8515,-64.6666 2.20137,-14.3 5.44966,-33.2 7.21842,-42 1.76876,-8.8 3.59178,-18.7 4.05116,-22 0.82446,-5.9225 0.76527,-6.0398 -4.58032,-9.07862 -11.39492,-6.47771 -12.9939,-15.34572 -7.17692,-39.80319 10.26143,-43.14407 11.50448,-50.89017 12.20808,-76.07521 1.4616,-52.31719 -3.37285,-83.64923 -28.96308,-187.70967 -13.01414,-52.92094 -17.34504,-76.74155 -18.30841,-100.69939 -0.95592,-23.77235 0.72211,-37.15551 11.11319,-88.63395 9.92506,-49.1698 13.56201,-63.57946 23.73838,-94.05217 17.8937,-53.58191 23.8479,-97.43676 17.60518,-129.66864 -1.24856,-6.44644 -5.81906,-22.04644 -10.15666,-34.66667 -16.53082,-48.09639 -18.48297,-65.06144 -9.04578,-78.61252 1.78044,-2.55657 3.71321,-3.66667 6.38404,-3.66667 5.4927,0 5.89676,1.80796 1.84018,8.23399 -8.2394,13.05204 -6.84604,20.66544 15.33039,83.76601 10.78097,30.67607 13.04069,57.6896 7.66585,91.64051 -4.83433,30.53669 -9.28205,49.42692 -18.13586,77.02616 -8.45475,26.3553 -10.4098,34.7925 -19.4643,84 -3.37344,18.33334 -7.08826,38.13334 -8.25517,44 -1.44989,7.2895 -2.12435,18.05423 -2.13021,34 -0.0107,28.75492 2.03809,40.26164 19.12196,107.40201 24.04016,94.47894 28.98841,122.04654 31.33945,174.598 0.46507,10.39541 0.22487,23.9839 -0.54208,30.66666 -1.31259,11.43706 -2.79409,18.51042 -12.82556,61.23461 -2.39783,10.21237 -4.05401,19.3645 -3.68041,20.33809 2.47889,6.45987 44.62398,8.64871 61.87001,3.21327 7.19199,-2.26671 9.58748,-2.50763 13.02353,-1.30982 2.31578,0.8073 5.66315,1.1032 7.43859,0.6576 1.77545,-0.44561 3.52911,-0.32316 3.897,0.27212 0.36791,0.59528 4.75468,0.62371 9.74839,0.0632 27.21712,-3.05508 41.66001,-3.91912 59.07946,-3.53438 10.63334,0.23485 20.2411,0.88024 21.35056,1.4342 1.54867,0.77324 3.83269,-2.11892 9.83294,-12.4511 14.69952,-25.31189 26.46165,-34.51817 50.81646,-39.77432 14.3244,-3.09141 39.4691,-5.48004 57.5628,-5.46819 7.2072,0.005 23.3938,-0.71074 35.9704,-1.5899 19.9553,-1.39499 23.8171,-1.33391 30.3334,0.47978 5.1476,1.43279 7.4704,1.61602 7.4785,0.58991 0.01,-0.8186 2.4199,-5.98837 5.3631,-11.48837 2.9433,-5.5 8.7151,-16.9 12.8262,-25.33334 10.2828,-21.09374 14.539,-25.21873 21.9364,-21.2598 2.3906,1.27944 3.1585,0.28315 8.4782,-11 6.3843,-13.54152 15.3844,-47.19306 15.3844,-57.52308 0,-3.59041 -1.5389,-9.57769 -3.8773,-15.0852 l -3.8773,-9.13194 -18.456,-9.41586 c -46.2559,-23.59868 -83.1272,-52.20562 -114.3606,-88.72769 -49.2219,-57.5565 -78.07659,-122.39851 -88.11385,-198.00871 -2.83106,-21.32633 -2.83809,-66.26217 -0.014,-89.18108 3.85871,-31.31476 12.42511,-65.13847 23.63525,-93.32196 13.2657,-33.35139 36.3184,-72.11132 58.9071,-99.0444 6.3195,-7.53483 11.49,-13.95251 11.49,-14.26152 0,-0.309 -3.45,0.64386 -7.6667,2.11748 -13.6985,4.78726 -42.0263,11.56614 -55.1631,13.20057 -15.82712,1.96916 -79.05274,-0.21197 -98.50352,-3.39813 -16.61271,-2.72127 -35.98498,-9.3033 -60.91676,-20.69744 -11.14559,-5.09367 -25.72015,-11.08896 -32.38792,-13.32287 -12.11547,-4.05905 -12.1317,-4.06059 -25.39719,-2.40505 -14.03269,1.75128 -19.17616,1.01204 -21.77548,-3.12966 -0.96229,-1.53328 -0.99693,-3.46797 -0.10747,-6 2.09834,-5.97298 8.7541,-7.5654 30.58478,-7.31753 18.1941,0.20659 18.73522,0.29652 21.37505,3.55241 1.53372,1.89164 9.34065,6.29576 18,10.15434 8.41039,3.74764 20.49289,9.11821 26.85,11.9346 13.59881,6.02469 30.31836,11.25634 42.44161,13.28028 13.3856,2.23468 75.74207,3.26674 91.3333,1.51166 17.4262,-1.96162 34.3498,-6.34704 65.2151,-16.89908 13.8683,-4.7412 26.5754,-8.62037 28.2381,-8.62037 1.6627,0 3.9231,-0.9 5.0231,-2 1.1,-1.1 2.7265,-2 3.6144,-2 0.888,0 5.5808,-3.20007 10.4286,-7.11125 18.2388,-14.71513 45.6909,-32.27101 67.9197,-43.43536 15.4532,-7.761314 46.2263,-19.608728 64.555,-24.853243 8.9867,-2.571412 18.1596,-5.524919 20.3842,-6.563347 14.6712,-6.848372 85.2008,-10.887575 119.7952,-6.860632 43.639,5.079771 80.7971,15.705198 121.5955,34.770386 7.0308,3.285509 14.9841,6.342336 17.6739,6.792956 2.6898,0.45062 9.6906,2.3337 15.5573,4.18462 37.9877,11.98506 96.2337,26.605 136.6667,34.30378 80.2612,15.28241 84.0397,15.87393 101.3333,15.86333 19.9172,-0.012 33.6105,-2.55584 66.0797,-12.27484 35.539,-10.63787 40.4192,-11.45244 68.7115,-11.46876 19.7511,-0.012 25.2672,0.38013 27.1328,1.92589 1.324,1.097 4.4569,1.79774 7.2088,1.6124 6.6715,-0.44929 15.866,4.50363 20.9987,11.31146 6.3576,8.43265 10.3776,24.62826 10.3761,41.80261 0,20.29468 -4.8749,42.1088 -19.2117,86 -4.3118,13.2 -10.2902,33 -13.2852,44 -2.9952,11 -11.0927,36.8 -17.9944,57.33333 -19.4778,57.94801 -24.8484,80.18939 -27.9887,115.90918 -2.7908,31.74399 0.4855,75.13036 8.6812,114.96203 13.0025,63.19374 13.6047,100.50705 2.6968,167.1288 -5.4204,33.10539 -4.7068,52.81624 2.4271,67.03933 2.314,4.61374 10.091,15.09782 17.5265,23.62734 16.2811,18.67672 18.9095,23.68872 19.7144,37.59396 0.7711,13.3201 -1.8215,20.53682 -10.7808,30.00997 l -6.5683,6.94503 0.8867,8.39218 c 0.4877,4.61571 1.7168,14.69219 2.7315,22.39219 1.8096,13.73334 2.666,26.68791 3.9661,59.99999 0.9719,24.9012 3.2401,58.324 5.384,79.3333 1.0476,10.2667 2.2648,24.0667 2.7048,30.6667 0.7311,10.9655 2.7969,27.6091 7.9603,64.1321 1.047,7.4061 2.2448,20.3061 2.6616,28.6667 0.4168,8.3607 1.0758,18.349 1.4645,22.1963 l 0.7067,6.9952 4.238,-3.1553 c 2.3309,-1.7355 9.7198,-5.9588 16.4198,-9.3853 10.358,-5.2971 14.6763,-8.6668 28.842,-22.5065 18.0383,-17.6229 29.8147,-33.1865 46.3764,-61.2905 5.2894,-8.9757 12.6591,-21.1194 16.3772,-26.986 3.7182,-5.8667 11.015,-18.7667 16.2154,-28.6667 5.2002,-9.9 16.0901,-29.7 24.1997,-44 31.3995,-55.3682 45.6523,-97.77757 47.7909,-142.20319 1.0342,-21.48131 1.8494,-24.98268 5.9555,-25.58012 1.7011,-0.24749 3.5369,0.26868 4.0799,1.14705 1.5794,2.55575 0,47.37027 -2.1795,61.96961 -5.3072,35.49464 -22.0124,78.11995 -51.5273,131.47745 -6.3315,11.446 -12.9538,24.046 -14.7163,28 -4.1588,9.33 -41.9429,72.4205 -50.6193,84.5225 -19.8066,27.6263 -44.6062,51.7655 -62.3439,60.6839 -5.7369,2.8845 -10.7617,5.7799 -11.1661,6.4342 -0.4044,0.6543 0.1353,8.3205 1.1993,17.0358 1.064,8.7154 2.5891,26.9461 3.3889,40.5128 0.7999,13.5667 1.9898,29.1667 2.6442,34.6667 0.6544,5.5 2.1437,21.1 3.3096,34.6667 1.1658,13.5666 3.554,36.6666 5.3068,51.3333 5.3037,44.38 8.7794,76.1683 9.6012,87.8123 0.7677,10.8792 0.7246,11.0854 -2.9151,13.9484 -2.0319,1.5982 -4.4572,2.906 -5.3896,2.906 -1.0173,0 -1.4268,1.0272 -1.0239,2.5681 0.5386,2.0591 -0.3453,2.8507 -4.4581,3.9925 -2.8213,0.7835 -7.3985,1.4279 -10.1716,1.4319 -2.9584,0 -5.3229,0.74 -5.722,1.7801 -0.7748,2.0188 2.2612,16.1036 9.1019,42.2274 2.5924,9.9 6.9254,27.3 9.629,38.6666 10.9199,45.9103 13.1115,54.6276 17.4306,69.3334 2.4769,8.4333 5.186,18.6333 6.02,22.6666 1.8104,8.7554 15.4945,32.5343 29.7409,51.6814 5.314,7.1418 14.1807,19.8853 19.7036,28.3186 5.5229,8.4334 16.5884,23.5244 24.5897,33.5356 8.0015,10.0112 18.1224,24.1112 22.491,31.3334 4.3684,7.2221 16.4469,26.031 26.8409,41.7977 22.9711,34.8447 31.7785,50.0936 63.1481,109.3333 13.3974,25.3 27.626,52.15 31.6194,59.6667 3.9933,7.5167 7.8429,13.6667 8.5546,13.6667 0.7118,0 5.3291,-2.0311 10.2608,-4.5134 36.2818,-18.2622 85.6663,-22.7101 140.0634,-12.615 8.5665,1.5897 15.5586,2.2956 16.1645,1.6317 0.5872,-0.6435 2.0516,-12.27 3.2541,-25.8367 3.5796,-40.3846 2.7986,-132.6618 -1.8452,-218 -0.7182,-13.2 -2.2206,-45 -3.3386,-70.6666 -1.1179,-25.6667 -2.9378,-62.2432 -4.044,-81.2811 -5.3136,-91.4425 -6.3008,-138.2515 -6.4543,-306.0523 -0.1511,-165.1739 0.4283,-196.4285 5.1899,-280 1.0654,-18.7 2.9654,-52.3 4.222,-74.6667 2.7885,-49.63055 3.0606,-144.99664 0.584,-204.66662 -2.8218,-67.98278 0.8081,-198.16239 7.8618,-281.96186 5.1887,-61.64195 8.1119,-84.80876 23.8547,-189.05772 2.7771,-18.38948 4.4719,-41.40338 6.7984,-92.31376 0.7541,-16.5 1.9633,-38.7 2.6873,-49.33334 1.7755,-26.07828 4.0503,-79.02945 3.4222,-79.65761 -0.2782,-0.27812 -19.019,0.70017 -41.6463,2.174 -22.6273,1.47383 -50.7405,3.03155 -62.4739,3.46159 -11.7333,0.43005 -36.6333,1.67288 -55.3333,2.76186 -18.7,1.08898 -42.2475,2.118 -52.3276,2.28672 -14.4877,0.24251 -18.3288,0.68995 -18.3333,2.13566 0,1.00589 0.9304,8.13346 2.0745,15.83905 2.8427,19.14444 9.682,42.147 18.3903,61.85217 4.0056,9.06394 9.3212,21.5799 11.8124,27.81323 l 4.5296,11.33333 20.5937,0.72114 c 23.1667,0.81124 28.3203,2.27028 29.0083,8.21248 0.7181,6.20274 -5.224,8.10912 -27.4508,8.80685 -16.7756,0.52661 -18.9594,0.85459 -18.389,2.76189 2.3788,7.9545 6.0906,30.55171 6.0842,37.04042 -0.013,7.38718 -1.411,18.45176 -3.2739,25.80704 -1.0008,3.95157 -1.5879,3.66645 27.6895,13.44917 17.3766,5.80623 22.2429,6.84537 40.6273,8.67576 11.4873,1.14369 21.9623,2.65536 23.2775,3.35927 1.3152,0.70389 4.4829,0.88742 7.0393,0.40784 4.2437,-0.79612 4.6473,-0.59811 4.6397,2.27642 0,1.73162 -0.9044,4.86698 -2,6.96747 -1.0954,2.10049 -1.9917,5.59503 -1.9917,7.76564 0,2.94441 -1.8189,5.86827 -7.1633,11.51427 -3.9398,4.16223 -8.0775,9.36768 -9.195,11.56768 -3.8449,7.56956 -14.3084,43.54897 -14.2802,49.10399 0.016,3.05948 1.5561,9.76268 3.4237,14.89601 7.2587,19.95153 8.5951,26.40171 9.8073,47.33333 0.6583,11.36667 1.9654,28.01667 2.9046,37 2.1486,20.55218 0.4513,39.4752 -6.0114,67.02018 -6.6805,28.47284 -17.3197,55.61723 -30.837,78.67636 -7.751,13.22207 -10.18,24.02176 -10.3399,45.97013 -0.1495,20.51642 1.6052,30.68568 7.9371,46 2.5772,6.23334 4.6861,13.31979 4.6866,15.74768 8e-4,4.37512 -3.3285,9.57806 -6.1392,9.59387 -0.8029,0.004 -3.2512,0.94223 -5.4405,2.08379 -3.6137,1.88426 -4.6583,1.87682 -11.3333,-0.0805 -4.044,-1.18588 -9.878,-3.3037 -12.9643,-4.70628 -3.0863,-1.40257 -11.4863,-4.08941 -18.6667,-5.97077 -11.7258,-3.07233 -15.3633,-3.40433 -35.7218,-3.26033 -12.4667,0.0881 -23.9206,0.44849 -25.453,0.8007 -2.2448,0.51596 -3.0933,2.30648 -4.366,9.21395 -1.9722,10.70337 -4.1108,37.66633 -4.1508,52.33231 -0.043,15.44901 -0.725,16.39842 -11.0642,15.38094 -8.0592,-0.79309 -21.1815,-5.58118 -22.8952,-8.35406 -0.4656,-0.75326 0.132,-3.26239 1.3286,-5.57584 1.7295,-3.34434 2.3287,-10.04646 2.9243,-32.70583 l 0.7489,-28.49959 -9.2029,0.0231 c -16.1135,0.0404 -33.1213,2.45607 -60.7771,8.63208 -14.8054,3.30631 -27.5581,5.98871 -28.3392,5.96088 -0.781,-0.0279 -3.0476,-2.40412 -5.0366,-5.28063 -3.4902,-5.04736 -12.0947,-10.66873 -16.3304,-10.66873 -2.53,0 -2.6014,1.12512 0.818,-12.89472 3.3089,-13.56748 3.577,-29.69469 1.1616,-69.86221 -2.2591,-37.56446 -5.3024,-53.09112 -14.7799,-75.40637 -2.8413,-6.68981 -6.798,-17.48981 -8.7927,-24 -3.2525,-10.61526 -3.6292,-13.90052 -3.65,-31.8367 -0.032,-27.06976 0.061,-27.40896 24.4576,-90 3.0014,-7.7 7.8934,-22.4 10.871,-32.66667 4.5373,-15.64377 5.5302,-21.25772 6.132,-34.66667 1.2246,-27.29289 -2.42,-45.45128 -10.2192,-50.91404 -1.2928,-0.90553 -3.0876,-3.42549 -3.9883,-5.59991 -2.0035,-4.83709 0.2804,-10.75269 4.9427,-12.80222 2.0014,-0.87979 2.9941,-2.46906 2.9941,-4.79335 0,-7.75677 6.6616,-9.44508 23.3339,-5.91363 5.133,1.08727 12.4933,1.98727 16.356,2 12.5322,0.0413 38.8797,-6.6755 57.249,-14.59465 6.6848,-2.88184 6.9679,-3.21839 7.7262,-9.18681 3.3349,-26.24991 5.2045,-30.24886 21.9192,-46.8833 14.8612,-14.7899 21.5762,-18.52693 42.9893,-23.92418 7.9537,-2.00478 14.7961,-3.97991 15.2055,-4.3892 0.4093,-0.40928 -3.7444,-10.25143 -9.2304,-21.87143 -15.8423,-33.55601 -20.4732,-49.08059 -25.6887,-86.11925 -2.3811,-16.90992 -2.3795,-17.00974 0.3395,-20.66667 3.2592,-4.38364 10.9868,-5.73164 13.7526,-2.399 1.5356,1.8502 2.0499,1.72557 4.706,-1.14052 3.6475,-3.93563 4.7362,-4.05107 64.0086,-6.78734 24.2,-1.11718 58.7,-2.91815 76.6666,-4.00216 58.8628,-3.55146 91.9451,-4.64686 95.2239,-3.15298 1.6703,0.76105 4.1559,3.87902 5.5235,6.92884 2.2688,5.05936 2.4585,8.93251 2.165,44.2118 -0.1769,21.26667 -0.9148,46.46667 -1.6397,56 -0.7251,9.53333 -1.9216,39.23333 -2.6591,66 -0.7376,26.76667 -2.1637,54.36667 -3.1694,61.33333 -14.8814,103.08977 -19.4055,140.89585 -24.0932,201.33334 -4.6056,59.37959 -5.6658,81.28035 -7.5195,155.33334 -1.3183,52.65833 -1.2724,73.2151 0.2588,116 3.3464,93.50897 2.3995,156.40736 -4.0751,270.66665 -5.356,94.5185 -6.011,126.2832 -5.9393,288.0001 0.071,159.208 0.564,183.3513 5.9245,290 1.4191,28.2333 3.2186,66.0333 3.9988,84 0.7802,17.9666 2.5776,54.5666 3.9943,81.3333 4.3615,82.4075 5.448,113.4917 5.7324,164 0.2265,40.2059 -0.1521,52.2197 -2.1777,69.1036 -1.3486,11.2404 -2.2486,20.6027 -2,20.8051 0.2485,0.2024 5.3821,1.9374 11.408,3.8556 53.5502,17.0464 100.8993,44.8896 135.0438,79.4113 29.8911,30.2213 43.928,57.7367 43.9803,86.2109 0.036,19.3403 -5.4805,33.4724 -18.6469,47.7728 -38.9802,42.3374 -131.3622,50.1851 -222.5584,18.9059 -5.4406,-1.866 -10.0991,-3.1855 -10.3526,-2.932 -0.2534,0.2533 1.1979,4.0021 3.2251,8.3304 3.1065,6.6328 3.6907,9.6509 3.7161,19.2031 0.024,9.0744 0.8654,13.8581 4.2195,24 5.0292,15.2066 12.6584,53.1066 16.6984,82.9521 2.5087,18.5331 2.9392,27.868 2.9384,63.7145 -9e-4,41.1112 -0.08,42.3527 -3.7264,58.6667 -7.2013,32.218 -16.4719,56.5052 -25.2965,66.2731 -5.8418,6.4661 -17.2303,11.8269 -30.5323,14.372 -15.0803,2.8853 -56.3692,4.9618 -99.6647,5.0125 -47.5737,0.056 -70.8896,-1.8461 -191.3333,-15.606 -71.3045,-8.1461 -95.0064,-10.1484 -165.3333,-13.9675 -74.0291,-4.02 -161.5312,-7.2378 -256,-9.4141 -31.5334,-0.7265 -72.9334,-1.9301 -92,-2.6747 -84.3387,-3.2933 -122.3603,-3.9086 -244.0001,-3.9486 -110.6482,-0.036 -136.8458,0.3372 -181.3333,2.5858 -28.6,1.4458 -71.5,3.2482 -95.3333,4.0056 -44.73029,1.4216 -80.04356,3.0236 -119.33336,5.4139 -20.18657,1.2281 -36.53789,2.5009 -103.33333,8.044 -9.9,0.8215 -30.9,2.9543 -46.66667,4.7395 -69.52845,7.872 -110.43021,12.7044 -134,15.8313 -59.31595,7.8691 -104.02039,10.2716 -125.33333,6.7353 z m 83.33333,-17.9352 c 12.1,-1.4216 35.5,-4.4238 52,-6.6716 39.91715,-5.4376 134.61396,-17.2428 151.33334,-18.8657 99.9721,-9.7044 140.49704,-12.4599 244.66662,-16.636 28.2334,-1.1319 67.5334,-3.0117 87.3334,-4.1772 52.5642,-3.0944 268.4216,-3.8033 341.3333,-1.1209 29.3334,1.079 69.8334,2.5721 90,3.318 20.1667,0.7457 62.7667,1.969 94.6667,2.7184 100.6732,2.3649 272.7161,8.1022 298,9.9376 5.1333,0.3726 18.3333,1.3165 29.3333,2.0976 24.6524,1.7502 47.0678,4.0054 98.684,9.9281 113.265,12.9965 156.6472,16.1381 205.316,14.868 54.5328,-1.4232 76.3571,-4.2823 87.7264,-11.4925 4.9396,-3.1326 6.9655,-5.7024 10.7336,-13.616 11.6194,-24.4019 18.2079,-61.6391 18.2056,-102.896 0,-32.187 -2.818,-55.8799 -12.7014,-106.8587 -2.5592,-13.2 -5.1426,-30.3101 -5.7408,-38.0224 -0.7787,-10.0372 -1.7962,-15.1036 -3.5803,-17.8265 l -2.4925,-3.804 -23.4086,0.9105 c -38.2072,1.486 -243.746,1.1345 -268.0753,-0.4584 -12.1,-0.7923 -39.1,-2.3467 -60,-3.4543 -114.0808,-6.0453 -140.35,-7.9069 -206,-14.5985 -17.6,-1.7939 -43.4,-4.2193 -57.3333,-5.3897 -44.8955,-3.7714 -118.3968,-10.9099 -144,-13.9854 -5.8667,-0.7048 -18.4667,-2.2174 -28,-3.3614 -33.7755,-4.0535 -70.0611,-8.9243 -129.3334,-17.3612 -116.3118,-16.5563 -137.5305,-18.6591 -221.817,-21.9822 -77.2995,-3.0474 -131.5556,-0.7533 -190.8497,8.0699 -4.7666,0.7093 -14.9666,2.1951 -22.6666,3.3017 -32.93834,4.734 -73.43013,11.927 -102.00002,18.1192 -51.98432,11.2674 -64.06583,13.1974 -144.66667,23.1107 -20.16667,2.4804 -46.86667,5.1848 -59.33333,6.0099 -12.46667,0.8249 -32.86667,2.3574 -45.33334,3.4053 -42.17481,3.5452 -61.23153,4.5913 -96.66667,5.3067 -55.5059,1.1205 -108.31477,6.4164 -127.64381,12.8008 -13.61667,4.4974 -13.77248,4.7636 -12.41701,21.2093 4.67532,56.7247 3.14228,84.0291 -9.24538,164.6667 -7.70359,50.1465 -8.21852,63.8209 -2.8595,75.9358 3.26526,7.3818 11.99074,16.9268 19.4917,21.3227 10.57324,6.1964 38.9804,14.2621 65.34067,18.5525 8.49808,1.3831 61.01529,-0.545 82,-3.0108 z M 427.7095,2348.5474 c 23.49492,-10.0451 78.57789,-18.0814 140.95717,-20.565 35.86886,-1.428 52.24855,-2.6957 77.33334,-5.9853 8.06666,-1.0579 26.36666,-2.8501 40.66667,-3.9828 40.2728,-3.1899 62.19337,-5.6423 107.83161,-12.0635 47.7228,-6.7144 50.50409,-7.2236 98.16839,-17.9708 129.84992,-29.278 215.85702,-37.8176 336.66662,-33.4274 74.0959,2.6926 124.4343,7.7325 240.6667,24.0956 64.6659,9.1036 84.2319,11.5318 199.3334,24.7382 9.1666,1.0518 36.1666,3.3978 60,5.2132 23.8333,1.8154 46.9333,3.6208 51.3333,4.012 94.7047,8.4198 123.6064,10.5898 205.3333,15.4162 89.2303,5.2696 119.5214,6.4989 179.3334,7.2778 76.1908,0.9924 146.5721,3.0206 167.1806,4.8178 8.7162,0.76 16.3435,0.8858 16.9499,0.2794 1.0371,-1.037 -18.1293,-36.8904 -33.0368,-61.7993 -13.498,-22.5541 -41.6128,-71.7369 -51.7923,-90.6035 -5.7372,-10.6333 -16.4046,-29.5333 -23.7054,-42 -7.301,-12.4666 -19.4026,-34.0666 -26.8928,-48 -41.2394,-76.7141 -66.116,-120.744 -79.7584,-141.167 -4.3478,-6.5086 -15.6919,-24.5086 -25.2094,-40 -9.5174,-15.4915 -22.5637,-35.3663 -28.9916,-44.1663 -12.8161,-17.5457 -18.3754,-25.93 -42.8778,-64.6667 -22.4808,-35.5408 -30.9332,-51.93 -31.2535,-60.6004 -0.1463,-3.9601 -3.5824,-17.1656 -8.3439,-32.0662 -8.4386,-26.4083 -15.363,-51.9751 -20.2224,-74.6667 -1.5704,-7.3333 -4.6437,-19.0993 -6.8297,-26.1468 -2.1859,-7.0475 -5.6107,-20.5475 -7.6107,-30 l -3.6362,-17.1865 -133.3182,-0.8511 c -73.3249,-0.468 -133.6132,-0.5731 -133.9737,-0.2333 -0.3605,0.3397 0.2395,1.1189 1.3333,1.7314 1.0939,0.6124 10.689,7.634 21.3223,15.6035 10.6333,7.9693 24.9171,18.3119 31.7416,22.9833 22.1893,15.1888 31.2373,25.2 28.09,31.0808 -2.6933,5.0324 -12.4209,2.0547 -30.2093,-9.2476 -13.4702,-8.5585 -49.6811,-36.679 -64.1988,-49.8552 L 1666,1565.7571 l -204,-1.7048 c -202.2527,-1.6903 -732.93247,-3.7724 -756.00271,-2.9661 l -12.00271,0.4194 -2.48636,12.842 c -1.3675,7.0632 -3.96557,17.9444 -5.77348,24.1806 -1.8079,6.2361 -3.78673,16.1684 -4.39739,22.0717 -0.61064,5.9035 -3.51448,19.1335 -6.45298,29.4001 -2.9385,10.2667 -8.73764,30.9667 -12.88699,46 -4.14933,15.0334 -9.29621,33.2882 -11.43748,40.5663 -2.14128,7.2781 -3.89323,14.6415 -3.89323,16.3629 0,1.7215 -2.32088,7.7667 -5.15749,13.4338 -5.15449,10.2977 -10.72675,24.8348 -24.904,64.9704 -15.54041,43.9946 -75.21744,197.1032 -114.59227,294 -39.48706,97.173 -78.0129,200.3034 -78.0129,208.834 0,1.9925 -0.83218,4.57 -1.84928,5.7277 -1.1357,1.2927 -1.5918,3.7771 -1.182,6.4383 0.77785,5.0514 0.39677,4.9262 6.74077,2.214 z m 427.37767,-157.89 c -5.50504,-2.218 -7.86557,-12.3551 -3.81925,-16.4015 2.68738,-2.6873 11.16293,-4.1115 13.40337,-2.252 1.36744,1.1348 3.53301,0.7043 8.97284,-1.7839 9.04509,-4.1373 22.28257,-14.751 44.35588,-35.5644 23.56291,-22.2177 30.50732,-28.165 50.66667,-43.392 34.69832,-26.2086 65.63252,-43.899 87.36412,-49.961 22.8771,-6.3815 55.6825,-3.253 77.9692,7.4357 13.5408,6.494 36.7694,28.2061 54.8422,51.2617 9.9738,12.7235 11.5419,16.4432 12.2262,29 0.5163,9.4764 0.3017,11 -1.55,11 -1.1821,0 -2.9917,-2.0161 -4.0213,-4.4804 -1.2085,-2.8924 -5.9305,-7.6494 -13.3225,-13.4216 -6.2977,-4.9176 -16.4141,-14.2605 -22.4809,-20.7621 -12.6406,-13.5465 -25.2038,-24.0292 -34.3573,-28.6676 -9.4963,-4.8121 -25.8631,-8.8113 -39.3364,-9.6116 -10.1347,-0.602 -13.9689,-0.1856 -24.6667,2.6791 -21.4074,5.7324 -34.4809,12.1353 -62.19686,30.4616 -31.06804,20.5428 -39.29661,26.6821 -57.74328,43.0826 -34.43779,30.618 -55.8318,46.8762 -66.7555,50.7303 -6.19256,2.1848 -15.00956,2.4767 -19.55049,0.6471 z m 1060.96123,-4.7708 c -3.9584,-9.5652 -4.6021,-10.4251 -8.8532,-11.825 -2.124,-0.6994 -7.9628,-3.9994 -12.9752,-7.3333 -59.3164,-39.4535 -133.475,-85.0632 -159.5533,-98.13 -29.9484,-15.006 -47.2481,-20.7152 -70.4568,-23.252 -36.4648,-3.9857 -78.4033,9.4288 -141.5225,45.2677 -34.9478,19.8432 -51.3063,25.7204 -76.1039,27.3428 -14.6204,0.9564 -19.442,-0.2674 -20.6932,-5.2526 -1.8851,-7.5108 4.3191,-11.8534 24.0204,-16.8131 25.4732,-6.4128 35.6193,-10.9151 66.706,-29.6003 42.2191,-25.3766 84.2347,-43.0885 118.0443,-49.7624 13.9136,-2.7465 37.6021,-1.876 54.6724,2.009 34.765,7.9122 83.3814,33.8889 166,88.6972 21.2666,14.1081 42.9701,28.4669 48.23,31.9086 10.987,7.1892 17.1821,15.3598 18.547,24.4614 1.0575,7.052 -0.4016,25.8556 -2.1429,27.6153 -0.7245,0.7321 -2.2913,-1.4 -3.9191,-5.3333 z M 898.85332,2019.5583 c -0.94858,-1.1431 -1.52862,-3.4217 -1.28899,-5.064 0.36468,-2.4992 2.74988,-3.7789 14.63612,-7.8531 7.81721,-2.6794 17.10705,-6.9477 20.66667,-9.4954 3.97901,-2.848 11.92225,-11.7604 20.65072,-23.1707 7.80148,-10.1984 14.85148,-18.7648 15.66667,-19.0365 8.06133,-2.6872 -19.33665,41.6652 -32.29987,52.2876 -12.08692,9.9042 -34.1175,17.048 -38.03132,12.3321 z M 1495,1995.1312 c -4.1106,-1.6937 -1.4344,-5.548 6.6667,-9.601 10.2489,-5.1276 28.0003,-17.8187 45.6667,-32.6484 15.4856,-12.9994 25.4222,-19.9632 27.4978,-19.2714 1.823,0.6076 -38.169,40.336 -48.1613,47.8436 -12.4015,9.318 -26.9749,15.6118 -31.6699,13.6772 z m 351,-26.9654 c -10.9506,-5.0147 -38.254,-29.72 -47.8348,-43.2832 -16.7446,-23.7051 -18.4506,-27.5492 -12.2256,-27.5492 2.3086,0 7.1208,3.6674 16.3334,12.4476 7.1832,6.8461 16.9604,15.947 21.727,20.2241 18.3467,16.4625 36,34.0944 36,35.9563 0,2.0524 -3.9514,4.7254 -6.9124,4.676 -0.9648,-0.016 -4.1542,-1.1283 -7.0876,-2.4716 z m -641.2081,-17.6966 c -8.6764,-4.5753 -17.8504,-15.3737 -24.1864,-28.4692 -7.2423,-14.9686 -11.0649,-28.074 -8.8382,-30.3006 2.7548,-2.7548 8.2924,2.943 20.4804,21.0733 12.4068,18.4556 18.5742,24.8816 26.2515,27.3524 6.4057,2.0616 8.1675,3.6055 8.1675,7.1575 0,6.1512 -12.7348,8.0062 -21.8748,3.1866 z m -271.45856,-45.1489 c 0,-3.9319 3.68638,-6.4743 16.22723,-11.1916 13.41091,-5.0447 24.56135,-12.2949 45.10611,-29.3287 16.83162,-13.9552 26.43372,-19.8953 31.01412,-19.1861 2.7972,0.4332 2.7265,0.6021 -1.1181,2.6733 -2.2572,1.2159 -13.6572,11.4226 -25.33337,22.6814 -22.9441,22.1241 -31.65428,28.2884 -47.47721,33.6 -12.75932,4.283 -18.41878,4.5141 -18.41878,0.7517 z m 834.51346,-69.8375 c -6.7302,-2.3897 -10.994,-5.7249 -22.6517,-17.7188 -9.6005,-9.8774 -22.9081,-26.7512 -26.4475,-33.5348 -1.8318,-3.511 -1.0418,-6.8958 1.6094,-6.8958 2.0289,0 8.6209,4.292 22.0038,14.3266 9.8146,7.3591 37.6538,36.4659 37.6188,39.3318 -0.06,4.9584 -5.3268,6.9077 -12.1328,4.491 z M 953.31168,1694.9172 c -4.20079,-3.4016 -2.6158,-7.709 3.24092,-8.8078 5.47851,-1.0278 17.75357,-8.8827 27.09908,-17.341 3.84175,-3.477 15.53941,-15.7224 25.99482,-27.2118 39.2902,-43.1759 46.4908,-49.629 53.0546,-47.5456 3.9941,1.2677 3.3013,7.3312 -1.6136,14.1224 -5.7519,7.9474 -50.9058,55.6514 -63.44675,67.03 -11.8931,10.7905 -21.25884,17.0292 -30.04138,20.0109 -8.13389,2.7616 -10.61498,2.7169 -14.28769,-0.2571 z m 1576.71852,633.7875 c 33.7416,-5.4727 57.8988,-19.5181 67.0076,-38.9593 3.2916,-7.0254 3.6188,-9.1087 3.5194,-22.412 -0.1253,-16.8574 -2.4041,-23.9578 -13.423,-41.835 -9.693,-15.7258 -35.7771,-41.0057 -56.32,-54.5836 -25.9516,-17.1528 -65.2312,-35.9964 -90.3808,-43.3585 l -6.8999,-2.0197 -0.7691,4.8984 c -0.9953,6.3396 -4.3438,42.5808 -5.449,58.9753 l -0.8591,12.7436 h -6.4041 c -3.8843,0 -7.8232,0.9297 -10.0106,2.3629 -1.9834,1.2996 -3.7832,2.165 -3.9994,1.9231 -0.7814,-0.8741 2.0808,-42.2643 4.3936,-63.5352 2.2338,-20.5467 2.2382,-21.8304 0.079,-22.9863 -1.2581,-0.6733 -9.9885,-2.549 -19.4009,-4.1682 -23.0759,-3.9696 -67.1928,-4.3319 -84.4465,-0.6936 -21.9151,4.6213 -44,13.8093 -44,18.3053 0,3.4209 38.9804,73.5485 56.9516,102.4588 7.127,11.4653 18.1194,29.8191 24.4276,40.7863 12.9732,22.5549 11.6989,21.4789 37.2874,31.484 25.0815,9.8068 58.3527,18.2209 83.7839,21.1886 15.7012,1.8323 52.0571,1.5103 64.9129,-0.5749 z M 298.66667,2247.2268 c 24.7524,-2.3238 57.56908,-7.2936 84,-12.721 28.02211,-5.7542 61.18215,-14.5943 63.96,-17.0511 1.31924,-1.1667 5.85831,-11.1213 10.08683,-22.1213 4.22852,-11 13.06091,-32.9 19.62755,-48.6667 29.10958,-69.8929 42.28565,-103.24 41.21517,-104.3104 -3.05993,-3.06 -108.32119,6.6309 -112.00168,10.3115 -1.25482,1.2548 -3.11716,69.123 -2.25323,82.1126 0.67672,10.1746 0.45963,11.8306 -1.95289,14.8976 -1.49284,1.8979 -4.65694,3.8564 -7.03134,4.3523 -2.37438,0.496 -9.41708,3.1467 -15.65041,5.8905 -17.79559,7.8334 -21.72755,8.547 -42.37513,7.6906 -10.06035,-0.4174 -20.5758,-1.4383 -23.3677,-2.2687 -7.54042,-2.2431 -17.36084,-8.4115 -19.26349,-12.0996 -1.28363,-2.4883 -1.46925,-11.1864 -0.79759,-37.3727 0.60075,-23.4213 0.43371,-34.4025 -0.5324,-34.9996 -2.90386,-1.7946 -63.09486,21.1336 -86.98569,33.1351 -48.77729,24.5032 -80.70807,50.8457 -89.34753,73.7108 -5.1618,13.6612 -2.8548,24.1623 7.62398,34.7032 23.41535,23.5543 89.15402,32.8705 175.04555,24.8069 z M 366.85074,2142 c 6.64594,-2.5666 12.91189,-4.6666 13.92433,-4.6666 2.76508,0 2.99183,-2.7095 3.83407,-45.8159 0.42786,-21.8987 1.64349,-53.0987 2.70137,-69.3333 3.61085,-55.4131 4.72359,-74.8759 8.01476,-140.1842 5.71629,-113.4313 5.95724,-120.642 7.32911,-219.3333 0.73904,-53.1667 1.9424,-117.0667 2.67414,-142 0.73175,-24.9333 1.94588,-84.3333 2.69808,-132 1.30074,-82.4269 2.23139,-113.9678 5.2915,-179.3334 0.73812,-15.7666 1.95041,-52.6666 2.69399,-82 1.20544,-47.5538 3.8709,-100.9799 6.09736,-122.2139 l 0.79134,-7.54732 -18.45039,4.62152 c -22.33848,5.5955 -44.10865,12.1748 -44.98686,13.5957 -0.35392,0.5727 -1.57746,20.5044 -2.71898,44.2926 -1.14152,23.7883 -2.36229,45.0514 -2.71282,47.2514 -0.35054,2.2 -1.53927,25.6 -2.64163,52 -1.10236,26.4 -2.3256,51.9 -2.71829,56.6667 -2.0011,24.2897 -3.41328,74.2724 -4.67122,165.3334 -1.30914,94.7672 -2.03602,121.4181 -5.30938,194.6666 -0.73736,16.5 -1.97859,44.7 -2.7583,62.6667 -0.7797,17.9667 -2.27789,45.2667 -3.3293,60.6667 -1.05142,15.4 -2.82586,42.4 -3.94319,60 -1.11735,17.6 -2.61067,38.3 -3.31849,46 -2.18167,23.733 -9.22515,124.5178 -10.66931,152.6666 -1.87437,36.5344 -3.10751,157.1178 -1.76539,172.6307 1.3834,15.9901 1.38214,15.9893 24.8097,16.0164 16.3184,0.019 17.56894,-0.1807 29.1338,-4.6471 z M 1993.3104,1552.254 c -2.4016,-3.2482 -2.8545,-6.2153 -3.4089,-22.3333 -0.6832,-19.8631 -3.9152,-62.3056 -5.8321,-76.5873 -3.0735,-22.898 -4.1242,-34.8479 -5.3927,-61.3334 -2.0644,-43.1005 -5.5091,-102.9609 -6.1087,-106.1561 -0.5125,-2.7306 -1.4128,-2.8505 -27.5489,-3.671 -14.8605,-0.4666 -72.6191,-1.4506 -128.3524,-2.1868 -55.7333,-0.7363 -144.5333,-1.9361 -197.3333,-2.6664 -52.8,-0.7303 -120.2694,-1.3525 -149.9319,-1.3827 l -53.9319,-0.055 -1.6945,3.2342 c -3.2316,6.1677 -9.9851,5.5408 -11.6471,-1.0812 l -0.8454,-3.3685 h -43.7606 -43.7606 l -1.5188,3.3333 c -1.9428,4.2641 -6.4903,4.3784 -8.3891,0.211 l -1.4226,-3.1224 -48.2154,-0.8909 c -26.5185,-0.49 -63.7882,-1.4622 -82.8215,-2.1606 -19.0332,-0.6982 -34.8331,-1.0424 -35.1108,-0.7648 -0.7251,0.7252 11.2156,5.8675 19.0501,8.204 9.4648,2.8227 26.2733,8.189 60,19.1558 16.1334,5.246 33.8334,10.7603 39.3334,12.254 14.6958,3.9913 26.3609,9.8801 29.3688,14.826 2.798,4.6011 10.2603,7.5662 19.129,7.601 2.8404,0.011 11.5404,-2.1282 19.3333,-4.754 36.0789,-12.1569 46.0077,-13.8984 64.3758,-11.291 15.4259,2.1897 28.349,9.0111 33.1264,17.4856 3.0012,5.3238 3.3334,7.3903 3.3334,20.7383 v 14.8254 l 8.1784,4.2398 c 7.751,4.0183 9.8088,5.8399 20.1549,17.842 7.3207,8.4924 5.5412,20.9524 -3.9985,27.9975 -6.0284,4.452 -14.7442,7.6033 -21.0284,7.6033 -2.9186,0 -5.3064,0.2948 -5.3064,0.6551 0,0.3604 2.0833,3.3845 4.6297,6.7205 8.374,10.9704 8.9047,22.2584 1.4536,30.9207 -2.8655,3.3313 -4.1397,3.7168 -13.7251,4.1521 l -10.5664,0.4799 1.7742,6.8396 c 3.0306,11.6835 -0.8536,22.6751 -9.4552,26.7568 -7.297,3.4627 -21.7519,2.7609 -40.1398,-1.9484 -32.5522,-8.3372 -46.9376,-14.9444 -69.0778,-31.7277 -19.9702,-15.1382 -39.518,-22.0972 -49.1871,-17.5104 -2.2485,1.0665 -4.2955,1.266 -5.3853,0.5245 -0.967,-0.6577 0.055,0.4029 2.2721,2.3573 l 4.0302,3.5532 -3.3116,1.3011 c -1.8213,0.7156 -5.8827,2.3672 -9.0251,3.6704 -5.6429,2.34 -5.8576,2.3261 -17.353,-1.1149 -6.4017,-1.9163 -18.2993,-4.6835 -26.4391,-6.1491 -8.1397,-1.4657 -19.6871,-3.9128 -25.6608,-5.438 -5.9737,-1.5253 -18.5051,-3.9553 -27.8474,-5.4001 -9.3424,-1.4447 -20.5862,-3.227 -24.9862,-3.9603 -4.4,-0.7335 -14.6,-1.3445 -22.6666,-1.3581 -26.2796,-0.044 -72.4148,-4.6172 -89.33335,-8.8548 -17.63762,-4.4179 -70.83015,-27.1206 -83.33334,-35.567 -19.30915,-13.044 -32.72263,-27.0485 -41.79299,-43.6344 -10.50828,-19.2153 -13.0936,-30.2118 -14.09082,-59.9347 L 851.33334,1270 l -19.33333,0.188 c -10.63333,0.1035 -35.83333,0.5488 -56,0.9896 -20.16667,0.4409 -38.18279,0.8063 -40.03583,0.812 -3.2994,0.011 -3.4334,0.4038 -6.47282,19.0104 -1.70702,10.45 -3.61463,21.4 -4.23914,24.3333 -0.6245,2.9334 -2.08373,10.4334 -3.24272,16.6667 -1.159,6.2333 -4.1429,20.6333 -6.63092,32 -5.52833,25.2566 -7.45202,37.7923 -13.40196,87.3334 -6.25013,52.0405 -7.01573,57.4737 -10.70946,76 -2.95716,14.832 -3.02826,16.1217 -0.97376,17.6666 1.55112,1.1664 8.24245,1.6535 22.29478,1.6227 48.81759,-0.1067 245.81699,1.444 333.98462,2.6292 53.115,0.714 195.315,1.3409 316,1.3933 120.685,0.052 304.4776,0.6504 408.4283,1.3291 175.7405,1.1473 189.2741,1.0771 192.8945,-1.0008 3.6871,-2.116 4.1644,-2.0963 8.9991,0.3725 5.3072,2.7103 11.3373,4.1415 18.8119,4.4648 l 4.3733,0.1892 z m -603.9892,-63.5726 c 5.5106,-6.6399 -6.8704,-20.9895 -22.6216,-26.2187 -23.8551,-7.9196 -30.7816,-13.4024 -26.0515,-20.6215 3.091,-4.7173 7.053,-5.0028 17.0764,-1.23 22.7522,8.564 42.3011,14.4679 49.9422,15.0831 8.3041,0.6685 8.3333,0.6584 8.3333,-2.8801 0,-6.7556 -9.3494,-13.9028 -34.9464,-26.7148 -24.8552,-12.4408 -27.5113,-14.7499 -24.9456,-21.6858 2.0703,-5.5965 5.4316,-6.1046 20.9264,-3.1632 7.8644,1.4928 19.399,3.6674 25.6323,4.832 6.2333,1.1648 14.2905,2.7195 17.9049,3.4547 7.7316,1.5729 15.2498,0.48 16.3458,-2.3761 2.1082,-5.494 -28.4222,-25.7244 -39.0656,-25.8862 -2.1184,-0.032 -6.2518,-0.9232 -9.1851,-1.9798 -2.9333,-1.0568 -6.7107,-1.9306 -8.394,-1.9415 -3.916,-0.025 -9.606,-5.6768 -9.606,-9.5403 0,-4.4381 5.0875,-9.1445 9.8991,-9.1577 2.2554,0 8.0438,0.9992 12.8629,2.234 11.7752,3.0173 13.2425,2.2942 13.2197,-6.5143 -0.029,-11.1568 -0.8348,-12.6209 -9.0992,-16.5307 -6.541,-3.0944 -9.0912,-3.5297 -20.1848,-3.4457 -10.289,0.079 -16.1123,1.0288 -30.6977,5.0121 -35.9055,9.806 -37.2758,10.0642 -46.2428,8.7076 -4.5336,-0.6858 -10.8659,-2.4073 -14.0718,-3.8254 l -5.829,-2.5784 -3.0846,7.476 c -1.6966,4.1118 -7.7254,20.976 -13.3973,37.476 -5.6719,16.5 -12.2172,34.7344 -14.545,40.5208 -2.3278,5.7865 -3.9986,10.7547 -3.7129,11.0403 0.2858,0.2857 3.9341,1.0752 8.1075,1.7545 12.1196,1.9725 24.0792,8.3537 53.1967,28.3841 6.7641,4.6532 30.2645,13.7551 42.4632,16.4464 5.3805,1.1871 13.0826,2.9283 17.116,3.8695 10.4499,2.4384 20.6304,2.4379 22.6545,-9e-4 z M 1234.7336,1428 c 2.8434,-9.9 9.134,-28.8 13.979,-42 4.8451,-13.2 9.9825,-27.9 11.4167,-32.6667 1.4341,-4.7666 3.1417,-10.3222 3.7947,-12.3458 1.451,-4.4968 1.0586,-4.7367 -15.369,-9.3931 -6.6614,-1.8882 -20.4614,-6.5255 -30.6667,-10.3051 -10.2052,-3.7796 -28.755,-10.1854 -41.2216,-14.2351 -23.2783,-7.5617 -41.048,-13.974 -57.1918,-20.6378 -5.0555,-2.0868 -13.311,-4.653 -18.3457,-5.7028 -5.0346,-1.0497 -13.7983,-3.948 -19.4749,-6.4406 -5.6765,-2.4926 -13.9634,-6.109 -18.4152,-8.0366 -5.3048,-2.2969 -12.6568,-4.0115 -21.3334,-4.9754 -16.8018,-1.8666 -21.665,-5.4455 -15.2673,-11.2354 2.3322,-2.1106 4.538,-2.3065 19,-1.6873 16.3606,0.7005 27.9786,3.5071 45.6784,11.0344 4.699,1.9984 10.0443,2.2064 46,1.7897 22.3758,-0.2593 68.7333,-0.4769 103.0167,-0.4836 l 62.3334,-0.012 -10e-5,-12.1513 c -10e-5,-6.6833 0.6276,-15.3833 1.3949,-19.3334 0.8953,-4.6097 1.3806,-42.1444 1.355,-104.8025 -0.033,-79.9655 0.3134,-99.6183 1.9138,-108.6667 3.029,-17.12538 2.766,-18.77151 -1.8388,-11.5105 -3.9256,6.1899 -6.231,7.7976 -11.1815,7.7976 -3.9734,0 -8.9769,-5.1663 -8.9769,-9.2691 0,-1.909 -0.8894,-4.74067 -1.9764,-6.29265 -2.1145,-3.01881 -33.7806,-22.45896 -34.8468,-21.39278 -0.3499,0.3499 -0.6299,38.35783 -0.6221,84.46203 0.011,64.7069 0.4796,88.8436 2.0553,105.8258 3.2841,35.3932 4.9784,69.5114 3.7407,75.3263 -1.3279,6.2382 -5.0386,7.927 -6.8204,3.1041 -0.6293,-1.7034 -1.5293,-17.239 -2.0001,-34.5237 -0.4708,-17.2847 -1.493,-39.1847 -2.2716,-48.6667 -0.7787,-9.482 -1.5681,-56.4243 -1.7544,-104.3164 l -0.3387,-87.07638 -3.9161,-2.65968 c -12.633,-8.58003 -26.665,-13.48108 -43.2494,-15.10599 -4.7666,-0.46703 -15.717,-1.82259 -24.334,-3.01233 -12.4303,-1.71624 -16.389,-1.83444 -19.1596,-0.57206 -2.9252,1.33278 -3.3726,1.27956 -2.7559,-0.32772 0.405,-1.05537 -0.2732,-2.77641 -1.507,-3.82453 -6.707,-5.69729 -12.7208,-6.02481 -70.3419,-3.83084 -53.6154,2.04144 -77.00835,7.61267 -87.93017,20.9413 -4.85629,5.92648 -20.41333,33.20253 -26.60869,46.65283 -11.53031,25.0327 -34.40632,90.1663 -38.04798,108.332 -4.08662,20.3853 -12.60557,44.338 -34.69786,97.5598 -18.87491,45.471 -22.46692,90.2893 -9.8613,123.0411 7.01911,18.2369 15.75046,29.1348 34.74107,43.3616 12.68707,9.5046 57.10407,28.8596 79.83671,34.7896 12.98092,3.3862 37.41762,5.6828 72.66662,6.8295 39.6582,1.29 68.9285,4.596 94.2409,10.6441 6.4675,1.5454 19.2591,4.3068 28.4258,6.1368 19.6506,3.9228 38.1862,9.3527 39.5999,11.6006 0.677,1.0765 1.1605,0.728 1.484,-1.0699 0.2639,-1.4667 2.8062,-10.7667 5.6497,-20.6667 z m -20.0669,-18.011 c -5.402,-1.6435 -33.5442,-7.102 -62,-12.0258 -5.8667,-1.015 -16.9667,-2.4954 -24.6667,-3.2897 -36.3841,-3.7528 -102.347,-13.2037 -113.3321,-16.2376 -17.73922,-4.8993 -80.26302,-27.7852 -94.0451,-34.4236 -14.98055,-7.2158 -30.0694,-19.8471 -36.19522,-30.3 -3.46318,-5.9095 -3.48997,-6.1615 -2.67066,-25.1308 0.76841,-17.7914 1.11348,-19.7278 4.82602,-27.0823 6.82378,-13.5178 30.39023,-66.0021 44.3777,-98.8325 14.90828,-34.9917 44.29617,-101.0054 51.34395,-115.3334 8.30152,-16.8768 16.83318,-30 19.50361,-30 3.6352,0 2.4023,3.7766 -9.79393,30 -12.7886,27.4973 -29.93012,67.816 -49.31749,116 -14.56006,36.1867 -16.80878,41.4335 -37.74541,88.0703 -11.38341,25.3567 -11.40617,25.4297 -12.35579,39.606 l -0.95137,14.2025 4.12179,6.4232 c 4.87954,7.6041 18.42962,18.1842 31.89602,24.9048 5.31411,2.6522 18.21411,7.7583 28.66667,11.3471 10.45256,3.5887 25.74384,8.9604 33.98063,11.9372 8.2368,2.9768 20.53678,6.9047 27.33338,8.7286 10.6632,2.8617 90.2416,14.8812 115.6906,17.474 16.6239,1.6936 74.0669,11.391 82.763,13.9718 9.2278,2.7386 14.0887,6.5255 12.7739,9.9516 -0.9597,2.501 -6.0641,2.5148 -14.2035,0.039 z m 14,-35.3274 c -2.2,-0.586 -12.4,-2.8964 -22.6667,-5.1341 -10.2667,-2.2379 -30.3667,-7.0598 -44.6667,-10.7154 -14.3,-3.6556 -34.7,-8.2138 -45.3333,-10.1293 -10.6333,-1.9155 -23.2333,-4.3813 -28,-5.4797 -4.7667,-1.0984 -19.5025,-3.7591 -32.7462,-5.9124 -58.76835,-9.5557 -85.6924,-21.797 -94.54587,-42.9863 -5.70304,-13.6493 1.6142,-50.387 26.71091,-134.1075 18.60376,-62.0606 23.29166,-74.8636 27.41206,-74.8636 1.7338,0 2.5024,0.9571 2.5024,3.1157 0,3.03 -13.4797,53.2262 -28.60961,106.5375 -8.54509,30.1092 -17.7384,70.8369 -18.94154,83.914 -0.7429,8.0746 -0.48267,9.4741 2.80493,15.084 4.2788,7.3012 14.05625,14.0329 28.41002,19.56 14.6086,5.6253 27.8055,8.6441 54.3362,12.4295 13.2,1.8833 30.6,4.609 38.6667,6.057 8.0667,1.4481 22.1667,3.8466 31.3333,5.3301 9.1667,1.4836 31.0667,6.2502 48.6667,10.5925 17.6,4.3423 38.9,9.184 47.3333,10.7592 8.4334,1.5752 16.6834,3.7231 18.3334,4.7731 3.8825,2.4705 3.9009,7.7319 0.037,10.4385 -3.2146,2.2516 -4.9225,2.3658 -11.0366,0.7372 z M 1188.8066,1249 c -2.2534,-18.5026 -3.6083,-45.4583 -4.8085,-95.6667 -0.745,-31.1666 -2.2952,-71.0666 -3.4448,-88.6666 -1.1497,-17.6 -2.1945,-47.1935 -2.3218,-65.76333 -0.2174,-31.70276 -0.078,-33.8763 2.286,-35.615 1.6857,-1.23986 3.2679,-1.45012 4.7885,-0.63633 2.0455,1.09471 2.3536,5.75537 3.1039,46.94836 0.4581,25.1531 1.8422,61.0329 3.0759,79.7329 2.4271,36.7915 3.3903,143.8712 1.4183,157.6667 -1.2937,9.0501 -3.1297,9.9462 -4.0975,2 z m -60.7745,1.0387 c -1.9457,-2.3444 -1.9944,-20.8142 -0.1848,-70.0387 0.7952,-21.6333 2.0695,-72.0333 2.8316,-112 1.3245,-69.46576 2.9918,-109.18655 4.7786,-113.84274 1.0918,-2.8452 4.1367,-2.75072 5.6752,0.17608 0.7421,1.41191 0.7878,29.18617 0.1156,70.33336 -2.2145,135.5611 -4.7719,212.3059 -7.428,222.9035 -0.9066,3.6175 -3.8078,4.8548 -5.7882,2.4685 z m -40.9914,-3.661 c -0.7951,-1.0007 -1.691,-16.1029 -2.158,-36.3777 -0.4391,-19.0667 -1.4525,-50.8667 -2.252,-70.6667 -1.0444,-25.8659 -1.0489,-47.4477 -0.016,-76.6666 3.8134,-107.8771 4.1669,-112.00002 9.6021,-112.00002 2.7198,0 2.7467,0.34746 1.9354,25 -4.1748,126.85792 -4.1825,162.08172 -0.048,217.66662 1.1728,15.7667 1.8145,32.7112 1.4259,37.6545 -0.9997,12.7158 -4.9397,19.858 -8.4898,15.3899 z m -60.444,-4.462 c -1.4238,-1.7155 -1.3059,-5.078 0.6661,-19 4.4488,-31.4086 4.2337,-50.1218 -1.1675,-101.5824 -8.9278,-85.0603 -15.142,-124.03833 -22.3426,-140.1421 -3.2962,-7.3718 -3.82053,-9.64772 -2.5154,-10.91877 2.002,-1.94984 7.1552,3.66126 12.6728,13.79882 3.609,6.63098 8.8421,30.05705 10.7067,47.92875 0.4973,4.7667 1.7271,13.7667 2.7329,20 1.0058,6.2333 3.3775,25.7333 5.2704,43.3333 1.893,17.6 4.7015,42.2 6.2411,54.6667 3.0966,25.0738 2.8654,46.2472 -0.7989,73.1665 -2.5134,18.4635 -6.4119,24.8386 -11.4656,18.7492 z m 927.1532,22.6674 c -0.1375,-0.7793 -0.9285,-9.1793 -1.7579,-18.6666 -0.8293,-9.4874 -3.5329,-31.3498 -6.008,-48.5832 -2.475,-17.2333 -4.8828,-37.6333 -5.3505,-45.3333 -0.4676,-7.7 -1.9693,-23.6 -3.3371,-35.3333 -2.8641,-24.571 -5.96,-64.5772 -7.8933,-102 -0.7388,-14.3 -2.2152,-31.10002 -3.2811,-37.33335 -1.0658,-6.23334 -2.3444,-15.1363 -2.8412,-19.78438 -0.8382,-7.8432 -1.1086,-8.38949 -3.7586,-7.59543 -9.8535,2.9525 -62.6218,13.26669 -82.1888,16.06475 -37.5566,5.37056 -47.6591,7.13555 -66,11.5307 -9.5334,2.28453 -19.5834,4.69372 -22.3334,5.35374 -2.75,0.66004 -5,1.95203 -5,2.8711 0,0.91906 2.449,7.64593 5.442,14.94857 9.8959,24.1447 21.3736,63.4962 25.0675,85.9443 0.7843,4.7666 2.3763,19.1666 3.5375,32 1.1613,12.8333 5.4213,43.1333 9.4668,67.3333 5.0596,30.2665 7.5936,49.5012 8.1188,61.6249 l 0.7633,17.6248 14.8021,0.4298 c 37.1756,1.0794 142.7926,0.2671 142.5519,-1.0964 z m -269.0415,-4.1627 c -2.9805,-15.888 1.264,-71.708 8.716,-114.6226 4.6307,-26.6678 17.573,-80.1635 26.5634,-109.7978 2.1134,-6.9667 4.8128,-16.5667 5.9985,-21.3333 1.1856,-4.7667 3.3371,-10.3104 4.7809,-12.3193 l 2.6252,-3.65271 -3.2389,-6.34733 c -4.9647,-9.72912 -10.9973,-17.35907 -15.6115,-19.74516 -5.9553,-3.07961 -31.5856,-7.26885 -44.4717,-7.26885 -15.5656,0 -39.1397,-2.56795 -45.4036,-4.94583 -22.9577,-8.71531 -21.3873,-8.41683 -42.978,-8.16822 -17.2824,0.199 -20.6764,-0.0967 -22.7601,-1.9823 -2.2907,-2.07298 -3.1959,-1.99964 -14.0079,1.13486 -15.6935,4.54969 -46.8263,17.84054 -62.254,26.5767 -13.8449,7.83987 -26.5073,18.511 -33.8751,28.54804 l -4.7292,6.4423 -8.7024,0.1482 c -8.2816,0.1412 -8.9321,-0.081 -13.4533,-4.6027 -2.6132,-2.6131 -4.9248,-4.5411 -5.1371,-4.2844 -1.309,1.5829 -2.8758,85.5086 -1.8394,98.5285 1.1566,14.5296 0.4941,105.3935 -1.0326,141.6174 -0.5605,13.2996 -0.3366,17.1549 1.026,17.6651 0.9587,0.359 54.8431,1.1555 119.7431,1.7701 64.9,0.6147 125.4168,1.2153 134.4817,1.3349 l 16.4818,0.2173 z m -227.038,-2.0871 c -0.7274,-0.9166 -1.7905,-4.0666 -2.3624,-7 -1.4297,-7.3341 -0.8698,-147.3088 0.7475,-186.873 2.0903,-51.1306 4.2897,-68.46029 8.6892,-68.46029 3.2597,0 3.6869,6.41669 2.0768,31.19979 -0.8624,13.2734 -2.2159,34.3335 -3.0079,46.8002 -0.9705,15.2764 -1.0662,40.273 -0.2934,76.6667 1.371,64.5751 0.9688,105.1377 -1.0672,107.5908 -1.8118,2.183 -3.094,2.2034 -4.7826,0.076 z m 133.6316,-0.6666 c -0.5408,-1.2834 -1.4662,-24.5334 -2.0566,-51.6667 -0.5903,-27.1333 -1.767,-71.5333 -2.6147,-98.6667 -2.1476,-68.7432 0.5897,-141.70302 5.5021,-146.65547 0.8659,-0.8728 1.696,-0.70024 2.4426,0.50769 0.622,1.00644 0.8232,26.80143 0.447,57.32218 -0.5245,42.5672 -0.1769,63.722 1.4923,90.8256 3.7121,60.275 4.882,101.6165 3.5087,124 -0.6974,11.3667 -1.6579,22.0167 -2.1344,23.6667 -1.029,3.5621 -5.1894,3.9832 -6.587,0.6667 z m 49.955,-16.5832 c -1.6548,-6.109 0.2508,-29.2617 7.4416,-90.4168 4.6326,-39.3983 8.2566,-82.972 10.6414,-127.946 1.1455,-21.6036 2.4358,-40.6857 2.8672,-42.40474 0.5644,-2.24908 1.5802,-3.012 3.622,-2.72072 2.631,0.37531 2.869,1.32673 3.2699,13.07144 1.0699,31.34032 -3.77,118.84642 -9.7713,176.66662 -6.4279,61.9302 -7.3135,68.6809 -9.6643,73.6735 -3.3753,7.1683 -6.478,7.1966 -8.4065,0.077 z m -104.1836,-16.7008 c -1.1528,-1.3105 -3.476,-5.0827 -5.1628,-8.3827 -2.7595,-5.3987 -3.1814,-8.739 -4.2091,-33.3333 -1.6503,-39.492 1.3433,-188.83914 4.1381,-206.43619 0.6204,-3.90658 2.1103,-8.08515 3.3108,-9.28572 1.9838,-1.9836 2.374,-1.99178 4.2763,-0.0895 1.8391,1.83904 1.9215,4.23761 0.6783,19.74144 -3.8515,48.03077 -4.6675,136.48497 -2.018,218.73667 0.3513,10.9059 2.3722,18.0309 4.7054,16.589 0.9095,-0.5621 1.2834,0.033 0.9871,1.5711 -0.6443,3.3456 -4.1379,3.8089 -6.7061,0.8892 z M 1720,1263.9124 c 0,-0.7816 -0.6492,-2.6341 -1.4426,-4.1166 -0.7935,-1.4826 -2.9004,-9.6932 -4.6823,-18.2457 -4.1387,-19.8649 -11.3195,-42.3536 -12.7229,-39.8455 -0.5692,1.017 -1.623,13.7995 -2.3416,28.4056 -0.7187,14.606 -1.9032,28.5065 -2.6323,30.8898 l -1.3255,4.3333 h 12.5736 c 8.0106,0 12.5736,-0.5156 12.5736,-1.4209 z m 26.148,-1.5791 c -0.4564,-1.65 -1.4208,-14.1 -2.1432,-27.6666 -2.4577,-46.1568 -6.074,-69.9674 -15.7952,-104 -2.8278,-9.9 -5.9462,-22.0712 -6.9296,-27.0471 -0.9833,-4.9759 -2.2005,-8.2759 -2.7048,-7.3333 -1.8394,3.4379 -9.5112,40.8432 -12.6482,61.6687 -3.823,25.3785 -3.7038,23.3783 -1.3936,23.3783 3.5105,0 16.9532,36.2751 21.3492,57.6105 1.1645,5.6524 2.1174,13.5024 2.1174,17.4445 0,3.942 0.4,7.5673 0.889,8.0562 0.4888,0.4888 4.7588,0.8888 9.4888,0.8888 8.2754,0 8.5686,-0.1132 7.7702,-3 z m 34.6211,0 c -0.4813,-1.65 -1.4829,-9 -2.2259,-16.3333 -1.7828,-17.6006 -3.9489,-32.2652 -10.3396,-70 -2.9186,-17.2333 -5.9741,-39.7333 -6.7901,-50 -3.6899,-46.4295 -6.1811,-61.7316 -14.9781,-92 -2.9839,-10.2667 -5.7224,-19.7167 -6.0858,-21 -1.1384,-4.0208 -2.7466,-2.5587 -3.6666,3.3333 -0.4867,3.1167 -3.9202,18.5398 -7.63,34.2736 -4.6522,19.7308 -6.2683,28.7658 -5.2086,29.119 3.8462,1.2821 5.5942,5.779 11.3599,29.2248 3.388,13.7771 7.3075,29.3267 8.71,34.5547 6.4751,24.1365 12.7017,81.0058 11.8472,108.2042 l -0.4281,13.6296 h 13.1554 c 13.0127,0 13.146,-0.035 12.2803,-3.0029 z m -379.3955,-0.6666 c 0.023,-0.55 0.2936,-9.4 0.603,-19.6667 0.3094,-10.2667 1.1725,-23.284 1.9178,-28.9274 0.8402,-6.3615 1.1211,-36.0034 0.7394,-78 -0.3472,-38.1951 -0.037,-76.4622 0.7109,-87.7393 0.7296,-11 1.7124,-27.5294 2.1841,-36.7321 l 0.8575,-16.73209 -5.3644,-7.93455 c -2.9505,-4.364 -6.2891,-9.76115 -7.4189,-11.99367 -2.7067,-5.34768 -6.2696,-19.25189 -6.2696,-24.46667 0,-2.27749 -0.6306,-4.14088 -1.4014,-4.14088 -0.7706,0 -3.458,-2.24497 -5.9716,-4.98882 -4.44,-4.8465 -4.873,-5.00258 -15.1796,-5.47062 -8.0705,-0.3665 -12.6236,0.17168 -19.0283,2.24926 -4.6305,1.50208 -10.8906,3.36584 -13.9114,4.1417 -5.2402,1.34594 -5.5916,1.76499 -7.6598,9.13587 -1.1921,4.24888 -3.7137,11.5969 -5.6035,16.32892 -2.8031,7.0192 -3.5335,11.40655 -3.966,23.82302 -0.2915,8.37062 -1.2409,20.07063 -2.1098,26.00003 -1.1709,7.9909 -1.2803,25.0993 -0.4226,66.114 1.4199,67.897 1.4042,140.4844 -0.035,162.3141 l -1.0756,16.314 41.8489,0.3723 c 23.0169,0.2048 42.8989,0.5134 44.1822,0.6859 1.2834,0.1725 2.3515,-0.1363 2.3736,-0.6863 z m -56.5239,-36.9531 c -15.5755,-5.5525 -21.8907,-24.2427 -12.9532,-38.3357 6.6579,-10.4985 22.3247,-17.3701 33.0303,-14.4874 20.8126,5.6043 27.9712,27.7457 14.2448,44.0585 -7.6421,9.0823 -22.6676,12.9192 -34.3219,8.7646 z m 22.7899,-9.5769 c 12.4424,-9.2896 12.5855,-26.0999 0.2782,-32.7003 -13.5487,-7.2663 -30.1877,1.7793 -31.5115,17.131 -0.675,7.8273 2.8022,14.2662 9.2866,17.1964 5.8326,2.6356 17.3843,1.7791 21.9467,-1.6271 z m -23.25,-6.7111 c -0.9395,-2.4482 2.8156,-5.7589 6.5319,-5.7589 4.1457,0 2.9,4.9023 -1.6486,6.4879 -3.362,1.172 -4.2018,1.0466 -4.8833,-0.729 z m 16.9437,-6.1049 c 0,-3.1713 4.5403,-6.9682 6.721,-5.6205 1.7813,1.101 1.5983,5.1139 -0.3209,7.0331 -2.7354,2.7353 -6.4001,1.9265 -6.4001,-1.4126 z m -11.7333,-9.254 c -2.7024,-2.7025 -1.7936,-4.6946 2.5369,-5.5607 5.1683,-1.0337 6.5298,-0.2192 6.5298,3.906 0,2.6758 -0.6642,3.2547 -3.7334,3.2547 -2.0533,0 -4.4533,-0.72 -5.3333,-1.6 z m -1.7329,-167.7213 c -15.6759,-8.2854 -19.9435,-26.43095 -10.087,-42.88961 8.044,-13.43195 26.819,-18.96588 40.5607,-11.95532 20.5778,10.49797 20.0143,40.56723 -0.9964,53.16623 -6.2373,3.7402 -8.4206,4.3252 -15.9521,4.2744 -5.9123,-0.04 -10.2731,-0.8769 -13.5252,-2.5957 z m 24.1407,-8.016 c 7.9202,-4.0406 11.9922,-10.9342 11.9922,-20.30172 0,-6.95569 -0.4574,-8.19299 -4.8104,-13.01112 -5.8852,-6.51423 -12.7741,-8.76973 -20.4623,-6.69953 -14.8746,4.00532 -21.7752,19.63105 -14.372,32.54417 5.5147,9.6192 17.2327,12.7839 27.6525,7.4682 z m -12.7865,-4.474 c -1.9573,-5.1005 3.0143,-11.1531 6.3891,-7.7783 1.3563,1.3562 1.2986,2.3673 -0.2967,5.1965 -2.3876,4.2349 -5.0286,5.3541 -6.0924,2.5818 z m -10.5376,-15.49449 c -0.9474,-1.533 0.9988,-5.55092 3.825,-7.89642 2.6401,-2.19118 7.4913,0.31415 7.4913,3.86886 0,4.16186 -9.2079,7.43905 -11.3163,4.02756 z m 19.4222,-0.5667 c -0.8988,-1.08294 -1.1803,-3.36184 -0.6675,-5.40477 0.662,-2.63759 1.6054,-3.42979 3.7242,-3.12753 3.3026,0.47113 4.5605,5.52534 2.1098,8.47816 -2.0046,2.41549 -3.1964,2.42797 -5.1665,0.0541 z m -531.91257,259.69259 18.19332,-0.8889 3.52789,-14.7989 c 1.94034,-8.1395 5.93606,-20.499 8.87938,-27.4657 27.97512,-66.2155 35.4973,-86.1234 40.43056,-107.0017 1.78446,-7.5522 4.55962,-17.0163 6.16704,-21.0314 1.6074,-4.0151 4.87376,-13.0002 7.25857,-19.9669 4.17347,-12.1917 22.94839,-58.0889 26.87172,-65.69058 1.7062,-3.30584 1.66999,-3.78072 -0.34737,-4.55485 -2.63414,-1.01082 -42.39882,1.87378 -51.17443,3.71229 -5.78376,1.21174 -34.72212,2.82974 -84.26905,4.71174 -18.73536,0.7117 -23.75463,1.2933 -24.34067,2.8205 -2.57267,6.7043 -7.92439,35.0516 -12.01985,63.6676 -4.18504,29.2418 -11.3652,67.8123 -17.42402,93.5987 -1.99786,8.5029 -6.05412,37.6933 -9.31964,67.068 -1.01904,9.1666 -2.47694,18.7627 -3.23978,21.3245 -0.76284,2.5618 -1.38699,4.7989 -1.38699,4.9712 0,0.562 51.03017,1.2243 62.66667,0.8134 6.23333,-0.2201 19.52033,-0.8002 29.52665,-1.289 z M 216.66667,1046.9653 c 33.74944,-14.5161 54.85281,-22.4569 90.80901,-34.17 52.16299,-16.99249 71.19067,-22.69435 93.85766,-28.12546 94.09437,-22.54541 109.54853,-26.93791 163.59765,-46.49894 9.6018,-3.475 12.43966,-3.44773 16.64902,0.16 1.97348,1.6914 3.18949,1.57376 10,-0.96746 8.27496,-3.08766 18.72437,-9.15547 19.56321,-11.36007 0.27973,-0.73519 10e-4,-4.93669 -0.61917,-9.33669 -5.71136,-40.51387 -11.0588,-84.73932 -13.8647,-114.66667 -4.28389,-45.69133 -13.90962,-105.40399 -26.0455,-161.5716 -12.52851,-57.98478 -15.27246,-72.90414 -18.62074,-101.24451 -1.54981,-13.11781 -3.10405,-25.77179 -3.45389,-28.11996 l -0.63607,-4.2694 -6.95157,2.51619 c -3.82336,1.38389 -26.15157,6.81309 -49.61824,12.06488 C 442.5869,532.28495 319.72002,562.71594 256.66667,579.49654 233.2,585.74181 195.7,595.30618 173.33334,600.7507 c -22.36667,5.44453 -46.72575,11.77496 -54.13129,14.06763 l -13.46463,4.16848 1.16714,6.17326 c 0.64192,3.3953 1.73395,16.07327 2.42674,28.17327 0.69279,12.1 2.51323,30.1 4.04543,40 1.5322,9.9 3.90656,26.4 5.27636,36.66667 1.36979,10.26667 3.45719,22.76349 4.63864,27.77072 1.18146,5.00723 3.29034,19.70723 4.6864,32.66667 4.3766,40.62754 9.44237,77.66929 12.70429,92.89594 11.05177,51.58968 19.48612,82.99925 39.45018,146.91276 l 8.4065,26.9128 4.06378,-0.7957 c 2.23508,-0.4377 13.06379,-4.6667 24.06379,-9.3979 z m 74.90296,-81.24963 c -1.06512,-1.7234 5.9568,-22.0567 14.40612,-41.71566 4.25497,-9.9 9.78992,-23.1 12.29988,-29.33333 9.96327,-24.74315 30.40181,-60.42816 37.13816,-64.84199 3.41873,-2.24005 3.65333,-2.23767 5.32907,0.054 2.24333,3.06795 2.45274,2.55093 -15.28131,37.72888 -31.98376,63.44427 -50.20127,98.2454 -51.67269,98.71107 -0.84947,0.26883 -1.84812,-0.003 -2.21923,-0.603 z m 69.34984,-19.2541 c -1.87503,-1.04932 -2.25043,-3.42956 -2.23868,-14.19448 0.0147,-13.38171 4.46236,-46.61023 6.51348,-48.66135 0.64067,-0.64066 2.58404,-0.96404 4.31861,-0.71861 2.4051,0.34028 3.246,1.39579 3.54226,4.44621 0.30816,3.17314 -6.3074,38.89091 -9.94,53.66667 -0.53432,2.17335 -0.14663,3 1.40698,3 1.17951,0 2.14455,0.53581 2.14455,1.19068 0,1.91056 -3.30015,2.64032 -5.7472,1.27088 z m 46.41387,-16.63933 c -7.17118,-1.06972 -11.07482,-3.31248 -12.7329,-7.31543 -1.46122,-3.52772 -1.01113,-5.60159 4.38614,-20.2098 5.77138,-15.62084 5.9134,-16.34947 3.51393,-18.03012 -3.966,-2.77789 -3.09311,-8.42789 2.27005,-14.69355 4.86594,-5.68474 9.18806,-7.08138 12.29611,-3.97333 3.15326,3.15325 1.55559,11.96344 -5.73333,31.61599 C 407.3,908.09077 404,917.92341 404,919.0663 c 0,2.36336 7.91403,4.33766 24.00001,5.98723 9.47792,0.97192 9.82597,1.1226 6.66666,2.88608 -3.34184,1.86537 -19.83404,3.00131 -27.33333,1.88263 z m 33.59275,-17.97039 c -5.71646,-3.32553 -5.3009,-15.56515 1.01322,-29.84249 3.19308,-7.22012 2.67092,-11.34268 -1.43665,-11.34268 -2.85617,0 -1.72248,-4.52362 1.27853,-5.10156 1.32947,-0.25603 3.45259,0.47148 4.71804,1.61669 2.09654,1.89733 2.50092,1.84852 4.55442,-0.54979 2.9812,-3.48178 7.61302,-3.48822 7.61302,-0.0107 0,1.44178 -0.9652,4.64549 -2.1449,7.11934 -1.97098,4.13319 -1.97098,4.83423 0,8.64568 4.44624,8.59808 1.30006,21.88935 -6.66438,28.15418 -3.97258,3.12484 -5.44273,3.34066 -8.9313,1.31121 z m 9.13614,-13.30552 c 1.1719,-2.26619 1.72722,-5.11619 1.23403,-6.33333 -0.78872,-1.94655 -1.01725,-1.89194 -1.89819,0.45368 -1.63048,4.34141 -2.83258,10 -2.12437,10 0.3618,0 1.61665,-1.85416 2.78853,-4.12035 z m -227.75789,10.92665 c -2.76595,-0.58444 -6.56439,-2.50494 -8.44098,-4.2678 -4.28862,-4.02869 -3.90998,-9.09068 1.88535,-25.20517 2.24173,-6.23333 4.48969,-13.73333 4.99547,-16.66667 l 0.91958,-5.33333 -4.67844,4.44617 c -6.0548,5.7542 -10.79612,5.49868 -11.39077,-0.61386 -0.57275,-5.8873 8.56175,-13.83231 15.90317,-13.83231 10.9236,0 12.25536,11.98145 3.8199,34.36648 -5.22384,13.86243 -5.29074,14.253 -2.85735,16.68637 4.87264,4.87266 30.09929,5.87488 37.13687,1.47542 1.61176,-1.00758 3.24326,-1.32584 3.62557,-0.70726 1.03736,1.67848 -4.57844,6.25719 -9.88937,8.06307 -5.95515,2.02492 -24.47682,2.97336 -31.029,1.58889 z M 260,884.00001 c -2.94285,-2.94285 -3.5103,-9.60748 -1.3106,-15.39311 1.19482,-3.14261 0.79846,-4.1839 -3.33333,-8.7573 -7.13512,-7.89772 -5.88661,-10.91768 2.62709,-6.35462 l 5.0775,2.72138 3.08838,-3.77484 c 1.69862,-2.07616 3.10998,-4.17591 3.13635,-4.6661 0.0973,-1.8098 9.14357,-6.44208 12.58051,-6.44208 5.16536,0 6.06773,3.77651 1.66816,6.98138 -1.96095,1.42844 -5.15135,5.30348 -7.0898,8.6112 -3.3878,5.78084 -3.4389,6.15886 -1.3177,9.74978 3.45867,5.85503 2.7823,10.34879 -2.32656,15.45764 -5.16277,5.16278 -8.95138,5.71528 -12.8,1.86667 z m 39.66664,1.22652 c -4.07104,-2.37116 -6.3333,-8.6812 -6.3333,-17.66521 0,-8.26639 -0.14222,-8.63003 -4,-10.22798 -2.2,-0.91126 -4,-2.16294 -4,-2.78152 0,-1.57944 4.6424,-3.88514 7.82249,-3.88514 1.46547,0 3.02964,-1.15052 3.47595,-2.55672 2.44722,-7.71052 10.25836,-11.99374 13.89076,-7.61695 1.16024,1.398 0.7748,3.42552 -1.64351,8.64516 l -3.15921,6.81884 3.34736,6.7638 c 7.36202,14.87593 1.51862,28.86555 -9.40054,22.50572 z M 187,801.78364 c -3.079,-1.2424 -1.70766,-6.79412 4.93928,-19.99626 9.39324,-18.65685 55.10979,-90.54184 74.06294,-116.45708 5.48398,-7.49841 13.02452,-18.96961 16.75674,-25.49156 3.73222,-6.52196 7.97851,-12.49639 9.43619,-13.27651 4.70637,-2.51877 8.38427,1.42863 12.12196,13.0102 5.4576,16.91084 27.32215,79.51638 35.07364,100.42758 3.94163,10.63333 7.81432,21.88333 8.60599,25 0.80149,3.15537 2.2366,5.66667 3.23829,5.66667 0.9894,0 5.62495,-1.79042 10.3012,-3.97871 4.67625,-2.18828 15.34551,-6.35807 23.70944,-9.26619 l 15.20716,-5.28748 13.09315,6.7729 13.09316,6.77288 10.4386,-0.91058 c 9.642,-0.84108 39.79172,-6.45768 40.81252,-7.60297 0.24504,-0.27492 6.88587,-16.09985 14.75739,-35.16652 22.1709,-53.70307 43.05124,-101.25592 46.38566,-105.63866 1.48382,-1.95029 6.30299,0.1056 6.29503,2.68556 -0.007,1.94515 -13.6802,40.27303 -21.03261,58.9531 -16.10208,40.91005 -35.14712,86.75617 -36.67379,88.28283 -1.04215,1.04214 -9.04843,2.54477 -19.68913,3.69528 -9.86304,1.06641 -20.6328,2.53146 -23.9328,3.25568 -12.87035,2.82449 -17.04382,2.00172 -29.97098,-5.90859 -6.58403,-4.02885 -12.58403,-7.32472 -13.33333,-7.32415 -0.7493,5.8e-4 -5.23884,1.83492 -9.97678,4.07631 -7.39913,3.50035 -23.68269,9.61699 -39.88485,14.98205 -8.22845,2.72472 -9.21699,0.63736 -30.81097,-65.05941 -11.71462,-35.64014 -17.6959,-53.17752 -22.93159,-67.23642 -1.17088,-3.14405 -1.35396,-3.0299 -6.41549,4 -2.86563,3.98003 -8.65415,13.53642 -12.86339,21.23642 -14.24688,26.06195 -61.52963,100.54829 -73.63496,116 C 193.63796,801.45332 191.14295,803.45536 187,801.78364 Z m -74.45335,216.08796 c 12.63447,-1.3365 24.21251,-1.8067 31.12002,-1.2638 6.05,0.4756 11,0.4398 11,-0.079 0,-0.5193 -1.76465,-7.3006 -3.92144,-15.0696 -28.7154,-103.43595 -33.45722,-126.70788 -40.77692,-200.12546 -3.12561,-31.35025 -7.35771,-62.36178 -9.71149,-71.1629 -0.942555,-3.52435 -1.258097,-3.2766 -11.167495,8.76804 -5.608644,6.81717 -14.222461,17.49486 -19.141817,23.7282 -4.919355,6.23333 -10.370009,12.55586 -12.112562,14.05008 -3.757213,3.22176 -3.861372,5.65209 -1.169311,27.28325 1.049554,8.43333 2.816711,23.73333 3.927018,34 1.110306,10.26667 2.667421,24.66667 3.460256,32 1.827346,16.90207 6.055133,40.87639 8.582196,48.66667 2.208423,6.808 5.242937,25.90618 8.156364,51.33333 4.021671,35.09949 5.677727,49.34139 5.775259,49.66669 0.209706,0.6994 6.521976,0.2633 25.979922,-1.7951 z M 1454.1532,983.00001 c 8.932,-8.7962 15.7835,-13.98426 27.8468,-21.08625 19.012,-11.19282 46.3786,-24.28275 61.666,-29.4961 8.333,-2.8417 10.9995,-4.3349 11,-6.1598 4e-4,-1.32484 -2.0273,-7.32484 -4.5061,-13.33333 -2.4787,-6.00848 -4.922,-13.41919 -5.4297,-16.46821 -1.8824,-11.30571 -0.6663,-11.13811 -33.5975,-4.63018 -44.4987,8.79391 -99.79,23.63322 -104.8507,28.1402 -1.6021,1.42684 5.4504,34.42691 9.0516,42.35466 1.9267,4.24136 7.7907,11.92657 14.9203,19.55417 6.4604,6.91159 11.8151,12.61714 11.8993,12.67902 0.084,0.0619 5.4842,-5.13751 12,-11.55418 z m -159.6507,-2.91384 c 1.557,-3.61928 2.8308,-6.92685 2.8308,-7.35016 0,-0.4233 3.2147,-8.41206 7.1438,-17.75283 9.7121,-23.08902 9.5864,-22.58598 5.912,-23.66753 -11.1532,-3.28287 -37.2766,-13.25385 -57.7224,-22.03189 -13.2,-5.6672 -26.4,-11.06482 -29.3334,-11.99472 -5.9801,-1.89579 -29.2238,-14.89983 -33.3333,-18.64882 -3.0016,-2.73834 -1.4689,-4.23597 -14.3551,14.02646 -6.8629,9.72616 -19.6449,30.73262 -19.6449,32.28524 0,1.34413 14.2849,3.8782 32.6667,5.79493 15.8588,1.65365 24.7592,3.99805 37.3333,9.83372 9.7665,4.53263 44.0693,28.47035 56.6667,39.54399 4.0333,3.54547 7.7094,6.46787 8.1691,6.49421 0.4597,0.0264 2.1097,-2.91332 3.6667,-6.5326 z m 465.2381,-15.92337 c 12.6212,-3.95552 30.7538,-8.36988 44.4542,-10.8223 84.6736,-15.15681 100.4899,-18.72157 115.301,-25.9872 12.6853,-6.22284 16.1833,-9.67565 17.4004,-17.17582 1.3201,-8.13499 -1.7031,-14.59532 -12.5746,-26.87062 -13.9522,-15.75401 -20.6641,-24.66806 -23.7422,-31.53273 -1.4187,-3.16376 -3.5604,-6.73833 -4.7596,-7.94347 -3.3531,-3.36978 -7.882,-16.74866 -8.7144,-25.74265 -0.5362,-5.79267 0.2344,-13.19631 2.7149,-26.088 5.5537,-28.86317 6.0301,-31.77039 8.192,-50 4.5727,-38.55609 3.9845,-69.18608 -1.9841,-103.33334 -12.5768,-71.95268 -13.8368,-82.46008 -13.83,-115.33333 0,-26.35887 2.412,-46.23661 9.1529,-75.59839 5.728,-24.94982 7.6604,-31.40857 26.6492,-89.06828 34.7737,-105.59045 40.9369,-124.89593 44.1967,-138.43987 8.063,-33.50106 4.3973,-62.37974 -8.6088,-67.82065 -2.7068,-1.13235 -6.1215,-2.00967 -7.5882,-1.9496 -55.2302,2.26203 -53.2096,1.96532 -91.7768,13.47684 -33.4453,9.98275 -48.6444,12.69777 -70.2232,12.54404 -16.8002,-0.11973 -21.1549,-0.76845 -65.3333,-9.73321 -55.7123,-11.30524 -82.7756,-17.47004 -119.9771,-27.32968 -15.0206,-3.98101 -27.4458,-7.10273 -27.6114,-6.93718 -0.1655,0.16556 4.0241,3.55545 9.3104,7.53311 15.1237,11.37977 51.0194,48.0942 63.8662,65.32287 48.602,65.1794 73.5823,135.18558 76.5996,214.66667 3.1772,83.69684 -22.3758,164.91349 -72.9938,232 -32.9359,43.65141 -78.0551,82.24829 -125.3575,107.23592 l -14.1635,7.48195 -0.8969,15.64106 c -0.9872,17.21478 0.3704,33.31135 4.3552,51.64107 3.0284,13.93004 5.4759,20.2104 11.3181,29.04211 3.801,5.74593 4.6123,6.30433 8.2174,5.65517 2.2,-0.39615 8.0626,-1.09663 13.0281,-1.55661 7.5739,-0.70163 9.4532,-0.45171 11.6667,1.55148 2.7558,2.49402 3.6122,9.7637 1.4184,12.04118 -1.5212,1.57922 3.0326,20.36538 6.6604,27.47639 1.4353,2.81329 2.9865,7.86539 3.4473,11.22685 0.644,4.6993 1.5364,6.37744 3.8612,7.2613 1.6628,0.63224 3.7439,3.14202 4.6245,5.5773 l 1.6011,4.42778 9.8067,-0.49522 c 11.6445,-0.58802 24.7229,1.47307 33.5194,5.28248 8.119,3.51603 18.065,4.92496 46.1264,6.53428 37.0039,2.12214 53.8122,6.98603 63.654,18.41987 2.5222,2.9301 5.2814,5.11851 6.1315,4.86315 0.8501,-0.25536 11.1377,-3.47049 22.8615,-7.14472 z M 1838,844.17722 c -2.9333,-1.33697 -9.3025,-5.6738 -14.1537,-9.63737 -4.8512,-3.96359 -15.0512,-12.29377 -22.6667,-18.51156 -19.188,-15.66645 -46.5129,-41.20919 -46.5129,-43.47936 0,-2.47756 4.4753,-2.39441 9.4451,0.17549 7.433,3.8438 39.1906,24.9299 45.8588,30.4489 3.6504,3.02134 11.3784,9.83914 17.1733,15.15066 5.7949,5.31152 14.4472,11.91152 19.2275,14.66667 10.0752,5.80701 12.3016,8.45536 9.7214,11.56427 -2.376,2.86278 -11.3964,2.67449 -18.0928,-0.3777 z m 38.9974,-544.9576 c -3.0619,-3.06194 -0.5944,-5.80404 8.6693,-9.6341 13.8625,-5.73141 19.5457,-7.18033 26.2297,-6.6872 7.249,0.5348 8.0496,2.32102 2.785,6.2133 -6.812,5.03641 -35.1535,12.63845 -37.684,10.108 z m -29.0479,-27.31412 c -1.7513,-3.27239 -0.3447,-8.16991 4.3172,-15.0304 5.022,-7.39066 33.3279,-39.41699 43.5731,-49.30032 7.7181,-7.44566 10.0948,-9.0149 13.1258,-8.66667 8.5348,0.98057 4.7346,8.02588 -18.9289,35.09189 -4.488,5.13334 -11.8,13.83334 -16.2489,19.33334 -9.4719,11.70954 -19.5668,21.33333 -22.3778,21.33333 -1.0905,0 -2.6478,-1.24253 -3.4605,-2.76117 z m -504.4106,650.09451 c 2.791,-1.16611 8.899,-2 14.6494,-2 h 9.8625 l -0.8084,-3.66667 c -0.4446,-2.01666 -1.8022,-6.96666 -3.0168,-11 -1.7139,-5.69164 -2.1751,-12.40768 -2.0597,-30 0.1706,-26.03144 2.5526,-39.2094 10.9584,-60.6252 l 4.988,-12.70813 -28.0562,-0.0467 c -40.497,-0.0673 -78.3363,-5.67944 -111.7348,-16.57193 -8.9088,-2.90549 -16.4198,-5.06068 -16.6912,-4.78931 -0.2714,0.27136 0.5522,2.49915 1.8301,4.95063 6.8141,13.07204 0.3781,55.20031 -12.9857,85.001 -2.1073,4.69907 -3.6761,8.67796 -3.4863,8.84197 2.0003,1.72835 17.7593,8.70002 22.3788,9.90016 3.2815,0.85254 13.7663,3.89807 23.2997,6.76783 9.5333,2.86977 27.8333,8.26848 40.6666,11.99715 12.8334,3.72866 24.2364,7.07412 25.3401,7.43434 1.1036,0.36023 3.2861,-0.53697 4.8498,-1.99378 4.4559,-4.15131 6.1326,-20.2855 5.3604,-51.58034 -0.7214,-29.23257 -1.8688,-39.04301 -5.3323,-45.5898 -2.8208,-5.33192 -1.0681,-10.0628 3.4833,-9.4022 5.1954,0.75406 9.9781,9.92822 13.0751,25.08091 2.5658,12.55288 2.793,16.96315 2.1979,42.66667 -0.4761,20.56433 -1.2635,30.73936 -2.7859,36 -1.1672,4.03333 -2.507,8.68333 -2.9774,10.33333 -1.0184,3.57237 0.3648,3.77013 6.9946,1 z m 41.7945,-2.0606 c 0,-5.46224 5.6056,-11.16145 9.9145,-10.07999 1.8433,0.46263 3.7175,0.0539 4.5937,-1.00181 0.814,-0.98081 8.5326,-4.5544 17.1526,-7.94131 14.9821,-5.88674 34.726,-11.53752 73.3585,-20.99549 l 17.686,-4.32987 -2.1183,-3.23285 c -8.4333,-12.87087 -14.5718,-46.62311 -13.5234,-74.35808 0.3604,-9.53333 1.3036,-18.98333 2.0961,-21 0.7925,-2.01667 0.9372,-3.66667 0.3215,-3.66667 -0.6158,0 -7.351,2.33963 -14.9671,5.19916 -24.7769,9.30274 -54.6847,16.99603 -80.1337,20.6131 -12.7182,1.80764 -13.1495,2.26913 -19.714,21.092 -5.6239,16.12581 -7.0812,27.98108 -6.3631,51.76241 0.558,18.47988 1.104,22.3238 5.1604,36.32771 4.5415,15.67908 6.5363,19.22277 6.5363,11.61169 z m 801.8501,-40.27273 c 0.3899,-3.85 1.0536,-13.6 1.4751,-21.66667 0.7077,-13.54375 2.4156,-27.70367 4.2214,-35 0.7115,-2.87468 0.3883,-2.99984 -7.7354,-2.99627 l -8.4779,0.004 -0.049,32.03156 -0.051,32.03156 4.05,1.17779 c 2.2275,0.64777 4.4568,1.23189 4.954,1.29803 0.4973,0.0661 1.2231,-3.02975 1.6128,-6.87975 z m 106.7927,-68.66667 c -8.6483,-20.67755 -10.8555,-56.24236 -5.1096,-82.33333 2.0598,-9.35372 4.4036,-14.61476 18.117,-40.66667 10.1724,-19.32492 16.2835,-35.32247 21.6835,-56.7628 7.2043,-28.60428 8.218,-41.18636 5.5996,-69.49546 -1.2079,-13.05796 -2.5109,-30.26737 -2.8956,-38.24314 -0.5521,-11.44419 -1.5616,-17.012 -4.7884,-26.40998 -8.4173,-24.51497 -8.1351,-30.46938 2.8883,-60.93425 7.3241,-20.24167 11.9296,-29.83908 16.819,-35.05023 l 3.3427,-3.56253 -5.8163,-0.71566 c -21.9546,-2.70133 -29.0746,-4.21081 -44.483,-9.43061 -9.5334,-3.22955 -21.3035,-7.65375 -26.1559,-9.83157 l -8.8225,-3.95968 -7.0787,8.04169 c -9.9643,11.32001 -23.3137,17.73173 -36.6096,17.58347 -10.7575,-0.12 -28.1756,-4.57804 -36,-9.21402 -5.9732,-3.53912 -12.3496,-9.17012 -15.4948,-13.68329 l -2.0916,-3.00137 -16.4324,5.39593 c -23.6063,7.75161 -42.9713,10.83097 -58.1021,9.2392 -6.5335,-0.68732 -13.7458,-1.79499 -16.0271,-2.46147 l -4.148,-1.21178 4.5355,7.52044 c 2.4945,4.13624 5.3742,10.52044 6.3996,14.1871 2.6417,9.44826 3.8952,42.89191 2.1284,56.78826 -1.9359,15.22548 -11.5218,47.15803 -22.7782,75.87841 -14.6572,37.39802 -16.3656,44.15312 -16.5225,65.33334 -0.1524,20.55582 0.7256,24.39081 11.4408,49.96965 11.7367,28.01736 14.8639,45.02136 17.7573,96.55532 1.1279,20.08874 1.7396,38.53874 1.3595,41 -0.38,2.46127 -1.0045,6.50155 -1.3875,8.9784 -0.5821,3.76359 -0.2372,4.62348 2.0998,5.23459 2.3712,0.62009 2.5712,1.15155 1.3161,3.49664 -1.9065,3.56244 -2.3371,3.58804 19.7103,-1.17191 29.453,-6.35882 32.4169,-6.68466 79.0377,-8.6894 44.3592,-1.90748 78.8013,-1.21185 88.5325,1.7881 6.9164,2.13221 23.6799,9.31849 25.1376,10.77617 2.1972,2.19724 3.9127,1.63065 2.8386,-0.93756 z M 2134.7276,702.0734 c -2.365,-2.84972 -1.1834,-7.46692 2.6383,-10.30874 1.8513,-1.37658 10.2513,-5.00602 18.6667,-8.06542 l 15.3008,-5.56255 34.6666,0.36226 c 35.6675,0.37272 59.412,2.34974 60.2907,5.0199 1.2365,3.75855 -27.534,7.18476 -65.624,7.81497 -25.9944,0.4301 -28.8117,0.72032 -39.3333,4.0519 -6.2334,1.97373 -13.5595,4.71938 -16.2803,6.10145 -5.9372,3.01589 -8.2023,3.14449 -10.3255,0.58623 z m -8.2526,-99.96174 c -1.9872,-4.36133 1.9342,-12.3502 8.0674,-16.43545 21.8063,-14.52468 83.6512,-16.41026 136.4576,-4.16042 6.4167,1.48852 11.6667,3.1779 11.6667,3.75419 0,2.09723 -9.898,2.5666 -25.1095,1.19069 -21.2468,-1.92181 -88.1777,-0.34416 -98.5722,2.3235 -11.6656,2.99386 -21.3972,8.18974 -23.7079,12.65802 -2.4833,4.80212 -6.7705,5.1282 -8.8021,0.66947 z m 2.0913,-106.55901 c -1.4821,-3.8624 0.092,-6.88182 4.7845,-9.17823 5.8814,-2.87809 29.058,-5.54529 38.2336,-4.39995 8.6827,1.08384 52.3544,-1.62901 62.688,-3.89412 4.2502,-0.93162 14.109,-3.36312 21.9083,-5.40332 15.5807,-4.07566 19.8935,-3.83841 23.2464,1.27886 2.3845,3.63926 1.7861,6.80882 -2.2555,11.94688 -3.3236,4.22525 -5.5716,3.32286 -3.7377,-1.50042 0.7892,-2.07593 0.8429,-3.99214 0.132,-4.70322 -0.7111,-0.71107 -9.3661,1.55782 -21.2435,5.56888 -17.9997,6.07866 -21.9272,6.91921 -38.5162,8.2434 -10.16,0.811 -28.0727,1.17298 -39.806,0.80442 -19.1108,-0.6003 -32.276,0.19675 -41.5036,2.51271 -2.1388,0.53681 -3.3904,0.1304 -3.9302,-1.27589 z M 1376.8064,789.3099 c 104.2178,-8.22397 198.0256,-59.08937 258.6187,-140.23071 29.7787,-39.87712 50.0017,-82.88177 62.5808,-133.07918 7.3144,-29.18844 8.8256,-40.03358 9.6176,-69.01708 l 0.7381,-27.0171 -9.5084,4.69922 c -16.6093,8.20853 -27.1274,10.00233 -42.2749,7.20969 -12.3223,-2.27177 -12.4027,-3.13517 -0.5865,-6.29772 25.7426,-6.88997 57.166,-26.59566 51.2388,-32.13204 -0.7087,-0.66192 -5.866,1.53057 -12.1608,5.16978 -14.7603,8.53347 -29.7914,13.39093 -41.3566,13.36483 -13.1382,-0.0296 -14.2812,-1.50892 -4.8633,-6.29475 22.2168,-11.28973 38.2017,-22.9353 46.5511,-33.91402 8.5386,-11.22764 8.123,-15.67284 -0.678,-7.25199 -2.5976,2.48536 -9.6907,7.3766 -15.7622,10.86944 -9.7678,5.61913 -12.1482,6.41779 -20.6666,6.93393 -5.2952,0.32083 -11.0718,0.0315 -12.837,-0.64304 -3.091,-1.18106 -2.9268,-1.41948 4.4455,-6.45276 20.0192,-13.66788 33.6436,-26.58653 37.238,-35.30902 1.3411,-3.25456 3.3701,-7.85356 4.5089,-10.22003 1.9764,-4.10689 1.8696,-4.86468 -2.3484,-16.65612 -13.251,-37.04449 -32.369,-72.15223 -55.7482,-102.37456 -12.1054,-15.64872 -39.3715,-43.34132 -56.5407,-57.42516 -23.4236,-19.21426 -50.0347,-35.90818 -57.2397,-35.90818 -3.3847,0 -7.7726,-2.95432 -7.7726,-5.23312 0,-1.87756 -28.4164,-14.422165 -46.7825,-20.652437 -17.3279,-5.878061 -49.5085,-14.066012 -55.4109,-14.098632 l -2.8603,-0.01581 2.3856,7.666667 c 6.2493,20.083512 6.366,32.023192 0.6485,66.317222 C 1403.6503,189.2865 1391.7292,216 1381.1154,216 c -2.9139,0 -4.3766,-2.30353 -2.7887,-4.39173 1.8489,-2.43156 6.5148,-16.30349 9.5103,-28.27493 9.1845,-36.70595 10.3204,-69.41012 3.3958,-97.774803 -1.1938,-4.890528 -3.1242,-9.641869 -4.2898,-10.558536 -2.1424,-1.684873 -20.2763,-2.424677 -20.2763,-0.827207 0,0.461703 1.65,7.811703 3.6667,16.333334 3.2346,13.668552 3.6332,17.771522 3.3829,34.827202 -0.4576,31.17599 -5.078,61.14169 -12.0891,78.40297 C 1356.6944,215.88127 1345.2357,228 1338.6851,228 h -4.5174 l 3.5031,-3.66666 c 4.8537,-5.08032 11.0925,-18.96692 14.2271,-31.66667 3.5352,-14.32389 4.9874,-29.22573 5.2625,-54 0.2012,-18.11392 -0.2453,-22.98497 -3.6151,-39.435235 -4.8177,-23.518875 -6.1178,-26.426354 -12.0724,-26.996339 -2.4797,-0.237364 -5.8598,-0.09243 -7.5113,0.32208 -2.9458,0.739333 -2.9692,0.899525 -1.235,8.431572 6.2062,26.954822 7.0922,40.332372 4.5266,68.344592 -1.8381,20.0688 -5.7886,39.35038 -10.6397,51.92954 -6.8389,17.73399 -26.6029,44.07046 -33.0722,44.07046 -1.5811,0 -2.8746,-0.37152 -2.8746,-0.82559 0,-0.45407 2.125,-4.32381 4.7223,-8.59941 15.2303,-25.07178 21.6816,-50.46143 24.0306,-94.575 0.7391,-13.87863 0.4031,-19.51227 -2.0085,-33.67741 -2.8809,-16.92221 -6.2414,-31.597397 -7.531,-32.886902 -0.3716,-0.371699 -8.8967,0.625362 -18.9446,2.215694 -10.0478,1.590331 -20.9688,3.248008 -24.2688,3.683727 -8.2038,1.083196 -31.4644,7.947975 -46,13.575721 -21.3628,8.27103 -49.3906,22.84104 -68.5734,35.64724 -26.5345,17.71413 -29.3107,20.05703 -61.2618,51.70121 -26.9964,26.73701 -55.6408,70.14897 -72.8498,110.40738 -6.8961,16.13252 -15.315,41.8764 -15.315,46.83111 0,12.88527 14.5395,26.43857 45.5658,42.47508 5.6279,2.90887 10.5834,5.85661 11.0123,6.55055 1.5232,2.46453 -8.7773,4.46785 -19.7449,3.84012 -9.1511,-0.52376 -12.658,-1.47278 -22.5852,-6.11172 -6.4636,-3.02043 -13.5596,-7.01271 -15.769,-8.87175 -4.28623,-3.60663 -6.47902,-4.26748 -6.47902,-1.9526 0,2.87361 11.54762,15.04991 19.23172,20.27867 9.0327,6.14648 40.6295,21.51608 47.0863,22.90411 12.0424,2.5888 0.8338,6.70306 -15.5287,5.70004 -12.7165,-0.77952 -28.1895,-5.20528 -43.8787,-12.55074 -5.41238,-2.53399 -10.19313,-4.2548 -10.62389,-3.82404 -0.43077,0.43076 -0.2215,2.4215 0.46503,4.42386 0.97956,2.85701 4.40523,5.26966 15.91486,11.20872 16.7777,8.65734 28.2478,12.66724 45.3334,15.8484 l 12,2.23426 -4.6667,2.02376 c -7.2553,3.14638 -23.3821,5.37664 -31.523,4.3595 -8.1986,-1.02435 -22.3748,-5.56043 -30.78277,-9.84988 -3.07339,-1.56792 -6.00507,-2.85078 -6.51484,-2.85078 -1.69082,0 0.77309,38.122 3.50246,54.19058 12.68915,74.7043 47.51155,142.54254 100.09435,194.99572 44.9062,44.79547 95.5029,74.765 155.2238,91.94233 45.2615,13.01844 82.6277,17.0008 126.8064,13.5146 z m -162.3726,-82.31613 c 4.5167,-6.3432 26.0833,-26.39967 37.4492,-34.82692 35.1923,-26.09348 68.648,-38.01532 111.5249,-39.7415 30.6804,-1.23516 44.4809,2.5949 75.0699,20.8342 15.5517,9.27299 23.1044,14.94587 48.0277,36.07379 12.3236,10.44704 15.7819,14.66667 12.0201,14.66667 -0.8108,0 -6.0608,-4.28381 -11.6666,-9.51957 -19.5454,-18.2553 -37.1423,-31.25639 -55.8922,-41.29455 -28.716,-15.37384 -32.5612,-16.43355 -59.6334,-16.43418 -18.1503,-4.2e-4 -25.8547,0.61176 -38.6667,3.07246 -37.6987,7.2405 -78.0482,29.48652 -107.4929,59.26452 -11.587,11.71813 -15.5126,14.60749 -10.74,7.90508 z m -37.1005,-46.40967 c 0,-1.1454 1.5346,-5.32633 3.4102,-9.29093 5.404,-11.42319 20.0024,-23.35175 54.6147,-44.6265 16.8251,-10.34169 24.9415,-21.89789 29.3148,-41.73896 1.2614,-5.72309 2.5898,-10.1094 2.9518,-9.74733 0.3621,0.36207 -0.01,5.6446 -0.817,11.73897 -2.9474,22.13667 -12.995,34.89772 -41.2671,52.41159 -21.1868,13.12471 -35.8669,25.988 -40.707,35.66907 -3.6271,7.25482 -7.5004,10.13852 -7.5004,5.58409 z m 346.0903,-5.20007 c -3.6882,-9.65761 -22.8966,-25.57569 -47.253,-39.15876 -23.2384,-12.95961 -34.5575,-27.47904 -37.9531,-48.68361 -2.1089,-13.17007 -0.7103,-15.85289 1.6727,-3.20832 2.1737,11.53455 8.3456,23.64985 15.8128,31.04003 3.4633,3.42772 11.997,9.5321 18.9637,13.56529 17.8404,10.32831 33.4803,20.92068 41.3896,28.03181 6.7325,6.05318 15.4727,20.55564 13.9109,23.08252 -1.7564,2.84208 -4.3937,0.96032 -6.5436,-4.66896 z m -179.2041,-94.06574 c -12.8982,-5.85314 -16.7084,-6.6029 -25.854,-5.08743 -7.4527,1.23496 -9.2891,1.10567 -13.6433,-0.96053 -6.251,-2.9663 -13.5267,-10.31527 -14.6523,-14.79979 -0.5902,-2.35179 0.1719,-5.11979 2.5068,-9.10387 3.7023,-6.31762 15.9817,-18.03333 18.9008,-18.03333 3.5658,0 1.8039,3.37695 -4.6714,8.95331 -3.5892,3.09097 -8.123,8.47753 -10.0751,11.97013 -4.2948,7.68424 -3.4627,10.56431 4.5923,15.89487 5.3113,3.51485 5.6265,3.55817 14.4334,1.98429 9.98,-1.78353 16.8262,-0.82405 26.977,3.78076 7.8642,3.56745 12.7891,3.43131 21.5876,-0.5968 4.0207,-1.84072 11.4433,-3.88115 16.4946,-4.53428 14.5999,-1.88776 20.3008,-5.16681 18.5536,-10.67169 -0.4679,-1.47439 -5.6212,-7.90315 -11.4517,-14.28612 -17.4224,-19.07322 -21.2342,-30.0511 -22.1626,-63.8278 l -0.6229,-22.66667 3.7672,-7.25803 c 3.7659,-7.2555 7.4504,-10.83653 9.2737,-9.01322 0.5323,0.53226 -0.4889,3.51104 -2.2693,6.6195 -3.0753,5.36919 -3.2347,6.75164 -3.1857,27.65175 0.081,34.64189 4.2108,46.08012 23.3306,64.62017 11.1631,10.8245 12.672,13.77496 10.1143,19.77694 -3.5455,8.32024 -12.2892,13.36938 -25.4964,14.72326 -3.6667,0.37587 -9.9667,2.2217 -14,4.10183 -8.7692,4.08772 -14.6778,4.28849 -22.4472,0.76275 z M 1222,524.47957 c -29.0054,-4.4192 -56.8516,-28.48414 -65.0257,-56.19579 -4.0755,-13.817 -3.7126,-35.00411 0.8403,-49.05499 5.9435,-18.34225 17.0739,-32.92636 32.9706,-43.20085 11.9006,-7.69172 22.2163,-10.79096 38.5481,-11.58142 12.4227,-0.60125 15.352,-0.28033 26,2.84846 22.5906,6.63793 35.983,16.1359 45.3596,32.16924 2.7456,4.69468 5.1798,8.53578 5.4095,8.53578 0.2297,0 4.5293,-2.06352 9.5547,-4.58561 27.5821,-13.84249 49.3346,-15.02136 70.0585,-3.79677 l 7.5336,4.08032 4.207,-6.5559 c 6.1158,-9.53076 17.683,-19.26688 29.8772,-25.14766 23.4557,-11.31186 47.0237,-10.63434 73.6009,2.11584 16.3167,7.82777 23.8661,15.38912 31.5851,31.6349 8.8033,18.52778 11.1734,31.68931 8.8121,48.93514 -2.7261,19.91019 -14.6359,40.42751 -30.3755,52.32868 -10.9754,8.29881 -13.2052,9.55508 -24.3076,13.69532 -8.7916,3.27852 -11.8098,3.72275 -25.315,3.72588 -13.1658,0.003 -16.604,-0.47433 -24.3222,-3.37705 -13.4737,-5.06742 -22.9348,-11.34096 -32.922,-21.8304 -15.812,-16.60707 -22.434,-35.20832 -21.0416,-59.10566 0.4096,-7.03102 1.6916,-15.40913 2.8487,-18.618 1.1571,-3.20886 2.1037,-6.34666 2.1037,-6.97289 0,-1.75776 -10.4481,-6.86019 -19.3333,-9.44156 -11.1558,-3.24107 -19.3674,-2.97562 -32.5752,1.05302 -16.1186,4.91651 -27.2328,10.70741 -26.1121,13.60547 2.7154,7.0218 3.8275,23.44127 2.3699,34.98908 -3.655,28.9569 -26.3374,56.32112 -54.6152,65.88815 -9.4206,3.18723 -27.4001,5.129 -35.7341,3.85927 z m 30.3255,-11.05898 c 13.7318,-3.512 22.7474,-8.34746 31.9761,-17.15016 14.0011,-13.35477 21.0317,-30.38238 21.0317,-50.93709 0,-21.75192 -7.6536,-37.67978 -25.6195,-53.3161 -12.5831,-10.9515 -22.7822,-15.72362 -37.0931,-17.35582 -34.0588,-3.88448 -68.442,19.09844 -77.5134,51.81261 -10.51,37.90219 14.6696,78.85164 53.7429,87.40188 12.076,2.64254 21.8844,2.50914 33.4753,-0.45532 z m -31.6441,-2.2217 c -2.9252,-1.0706 -7.5702,-4.14524 -10.3223,-6.83252 -6.972,-6.80799 -9.4588,-14.02903 -8.8065,-25.57226 0.4373,-7.73866 1.2175,-10.32682 4.5373,-15.05025 4.9806,-7.08653 10.9757,-11.20391 20.2309,-13.89448 8.0736,-2.34707 7.5153,-2.50515 18.3355,5.19116 10.9794,7.80947 14.6884,14.64116 14.6369,26.95947 -0.061,14.52458 -6.1965,23.66858 -19.6555,29.29208 -5.9842,2.50038 -11.9499,2.47105 -18.9563,-0.0932 z M 1234,474.66667 c -0.4532,-0.73333 -1.424,-1.33333 -2.1574,-1.33333 -0.7333,0 -0.9625,0.6 -0.5093,1.33333 0.4533,0.73334 1.4241,1.33334 2.1574,1.33334 0.7334,0 0.9625,-0.6 0.5093,-1.33334 z m 246.4743,39.2253 c 19.1944,-4.93903 37.0979,-18.1235 45.1233,-33.22963 8.2756,-15.57716 11.108,-36.27431 7.0802,-51.73793 -3.4479,-13.23719 -8.2422,-20.87611 -20.7622,-33.08057 -16.7188,-16.29749 -27.923,-21.18956 -48.4608,-21.15933 -26.546,0.0391 -50.5638,14.08199 -63.8213,37.3155 -9.0036,15.77877 -10.7524,39.03392 -4.1789,55.57297 7.5441,18.98109 18.2118,31.43516 34.0596,39.76295 15.7102,8.25549 34.8074,10.71236 50.9601,6.55604 z m -30.2292,-2.41411 c -12.4353,-4.62137 -20.0563,-16.07171 -20.0632,-30.14452 -0.013,-16.51156 9.4929,-27.52476 27.7012,-32.10964 5.5908,-1.4078 6.5476,-1.30329 9.1792,1.00265 1.6157,1.41584 5.5257,4.302 8.6887,6.41371 19.0496,12.71785 16.8928,42.68463 -3.8438,53.40795 -5.8158,3.00749 -15.6672,3.65776 -21.6621,1.42985 z m 12.4216,-36.81119 c 0,-0.73333 -0.6355,-1.33333 -1.412,-1.33333 -0.7767,0 -1.0412,0.6 -0.588,1.33333 0.4532,0.73334 1.0887,1.33334 1.412,1.33334 0.3235,0 0.588,-0.6 0.588,-1.33334 z m 773.8209,-93.82456 c 3.2599,-1.91041 7.8407,-5.88963 10.1795,-8.84268 l 4.2525,-5.3692 -10.4597,-4.82635 c -14.9811,-6.91248 -19.3615,-7.0453 -39.1412,-1.18686 -21.5392,6.37956 -20.9727,6.00501 -16.7227,11.05577 10.2611,12.19463 38.2808,17.14576 51.8916,9.16932 z m 21.5402,-42.68027 c 0.9981,-10.65198 0.849,-11.78056 -4.3803,-33.16184 -4.0657,-16.62321 -2.7024,-15.89598 -20.9808,-11.19104 -17.3299,4.4608 -23.7127,7.7227 -33.552,17.14668 -11.7707,11.27378 -15.9285,17.63207 -17.6619,27.00851 -0.7952,4.30139 -1.2973,7.95548 -1.1158,8.12021 0.1813,0.16474 6.0297,-1.50165 12.9964,-3.70308 10.0064,-3.16194 15.3269,-4.04234 25.3333,-4.19193 11.9257,-0.17827 13.2907,0.0947 23.3333,4.66572 15.1826,6.91051 14.9336,6.98341 16.0278,-4.69323 z M 860.66208,964.8282 c -2.22754,-1.62881 -2.3376,-2.42716 -0.96511,-7 1.80936,-6.02842 16.20828,-26.16432 20.91511,-29.24836 4.8176,-3.15662 9.2953,-2.05151 9.80992,2.4211 0.62453,5.42795 -21.81179,35.66574 -26.46383,35.66574 -0.43,0 -1.91324,-0.82732 -3.29609,-1.83848 z M 827.2415,904.90816 c -1.16394,-3.03322 0.11894,-4.44691 4.90414,-5.40394 5.93428,-1.18686 17.0826,-7.83329 28.92788,-17.2463 9.85122,-7.82842 27.16174,-18.3376 33.25982,-20.19199 11.25854,-3.42365 -9.20385,16.42875 -30.45989,29.55189 -19.70197,12.1637 -22.63224,13.59642 -29.82415,14.58218 -4.75968,0.65238 -6.16398,0.3859 -6.8078,-1.29184 z M 912.28792,320.3658 c -3.875,-2.01556 -12.53812,-8.05029 -19.2514,-13.41053 -14.45248,-11.5396 -28.8607,-20.73735 -36.96314,-23.59604 -7.41128,-2.61485 -9.4067,-4.29544 -9.4067,-7.92248 0,-4.40743 2.5818,-6.10341 9.2912,-6.10341 7.47974,0 20.00982,6.17852 37.7518,18.61525 14.64334,10.26465 34.67202,29.73395 34.03709,33.08647 -0.70432,3.71894 -7.59595,3.4206 -15.45885,-0.66926 z m -15.81171,-71.649 c -3.47035,-2.43072 -5.23172,-6.9675 -7.05024,-18.15934 -2.37011,-14.5865 -1.87232,-28.38478 1.15717,-32.07642 2.099,-2.55774 3.03611,-2.87248 5,-1.67922 2.40936,1.46393 3.19403,5.9114 6.50406,36.86485 0.80558,7.53343 1.36574,9 3.43761,9 2.817,0 3.30323,3.01101 0.80853,5.00689 -3.2075,2.56614 -7.09542,2.97763 -9.85713,1.04324 z"
     id="path3757"
     inkscape:connector-curvature="0" />
</svg>
