<?xml version="1.0" encoding="UTF-8" standalone="no"?>
<!-- Created with Inkscape (http://www.inkscape.org/) -->

<svg
   xmlns:dc="http://purl.org/dc/elements/1.1/"
   xmlns:cc="http://creativecommons.org/ns#"
   xmlns:rdf="http://www.w3.org/1999/02/22-rdf-syntax-ns#"
   xmlns:svg="http://www.w3.org/2000/svg"
   xmlns="http://www.w3.org/2000/svg"
   xmlns:sodipodi="http://sodipodi.sourceforge.net/DTD/sodipodi-0.dtd"
   xmlns:inkscape="http://www.inkscape.org/namespaces/inkscape"
   version="1.1"
   id="svg186"
   width="1410.7538"
   height="1428.7742"
   viewBox="0 0 1410.7538 1428.7742"
   sodipodi:docname="alfred_feels_poorly.svg"
   inkscape:version="0.92.2 5c3e80d, 2017-08-06">
  <metadata
     id="metadata192">
    <rdf:RDF>
      <cc:Work
         rdf:about="">
        <dc:format>image/svg+xml</dc:format>
        <dc:type
           rdf:resource="http://purl.org/dc/dcmitype/StillImage" />
        <dc:title></dc:title>
      </cc:Work>
    </rdf:RDF>
  </metadata>
  <defs
     id="defs190" />
  <sodipodi:namedview
     pagecolor="#ffffff"
     bordercolor="#666666"
     borderopacity="1"
     objecttolerance="10"
     gridtolerance="10"
     guidetolerance="10"
     inkscape:pageopacity="0"
     inkscape:pageshadow="2"
     inkscape:window-width="723"
     inkscape:window-height="480"
     id="namedview188"
     showgrid="false"
     inkscape:pagecheckerboard="true"
     inkscape:zoom="0.15844727"
     inkscape:cx="81.445976"
     inkscape:cy="704.28337"
     inkscape:window-x="0"
     inkscape:window-y="0"
     inkscape:window-maximized="0"
     inkscape:current-layer="svg186" />
  <path
     style="fill:#000000;stroke-width:0.72727269"
     d="m 246.76495,1427.9059 c -8.8085,-1.4615 -20.3552,-4.3882 -27.4402,-6.9552 -11.5993,-4.2026 -19.0514,-10.4253 -23.3493,-19.4972 l -2.3014,-4.8579 0.064,-12 c 0.054,-10.153 0.4797,-14.5745 2.7646,-28.7273 5.8437,-36.1947 6.5041,-43.2743 6.568,-70.414 0.053,-22.7034 -0.04,-24.6506 -1.2148,-25.3088 -1.5222,-0.8528 -1.6755,-4.0648 -0.2708,-5.6745 0.551,-0.6315 1.2187,-2.6564 1.4837,-4.4999 0.433,-3.0124 0.3037,-3.4685 -1.2769,-4.5041 -2.265,-1.4841 -2.9226,-5.0291 -1.8631,-10.043 0.4555,-2.1557 4.0618,-12.367 8.014,-22.692 3.9522,-10.3249 7.1858,-19.1976 7.1858,-19.7171 0,-0.721 -1.6778,-0.536 -7.0909,0.7819 -21.6202,5.2638 -48.1584,9.5869 -71.0956,11.5815 -19.053,1.6569 -50.876196,1.1226 -65.273596,-1.0959 -24.8935,-3.8357 -43.1471,-12.0963 -50.125,-22.684 -3.7011,-5.6158 -4.763,-10.3799 -3.5909,-16.111 3.8904,-19.0228 26.2261,-38.2622 66.7585,-57.5036 13.9281,-6.612 20.763296,-9.3267 38.781096,-15.4028 l 13.4546,-4.5372 0.4685,-31.1787 c 0.6202,-41.2762 3.9464,-99.24256 9.3424,-162.81492 1.5106,-17.79709 2.5742,-35.09941 3.286,-53.45454 0.2405,-6.2 0.9021,-19.94546 1.4703,-30.54545 1.0453,-19.5 2.1445,-56.62553 2.8964,-97.81818 0.5423,-29.71337 1.5988,-58.02444 2.9176,-78.18182 0.5888,-9 1.5612,-25.03636 2.1609,-35.63636 0.9998,-17.67415 1.8633,-29.97836 4.0576,-57.81818 0.4414,-5.6 1.1118,-11.61615 1.4897,-13.36923 0.378,-1.75308 0.5464,-3.32827 0.3743,-3.50042 -0.3519,-0.35187 -22.422,6.53374 -33.5546,10.46864 -6.7384,2.38171 -12.4875,4.66593 -35.636396,14.1589 -6.094,2.49904 -9.5456,3.52297 -11.4394,3.39353 -2.0195,-0.13803 -3.0948,0.22532 -4.2102,1.42251 -0.9958,1.06889 -2.3534,1.60789 -4.0498,1.60789 -3.2556,0 -5.6115,-2.43735 -7.2704,-7.52177 -1.6446,-5.04048 -1.472,-4.88695 -4.2093,-3.74319 -3.3249,1.38923 -4.0955,0.46416 -3.1818,-3.81982 0.6138,-2.87809 0.5343,-3.48631 -0.5601,-4.28658 -2.1509,-1.57281 -7.4712,-1.95769 -18.1395,-1.31228 -27.3466,1.65444 -29.4834,0.63844 -29.4864,-14.02028 0,-10.65192 -3.8086,-44.11239 -5.8135,-51.10287 -2.1304,-7.42822 -4.149,-21.60409 -5.4386,-38.19321 -0.5597,-7.2 -1.4188,-17.83636 -1.90899996,-23.63636 -0.4982,-5.89467 -0.6588,-12.66022 -0.3642,-15.3406 0.5234,-4.76045 0.5751,-4.84989 7.15389996,-12.36364 3.6447,-4.16266 8.3541,-10.24153 10.4654,-13.50857 2.1113,-3.26705 4.4642,-6.1386 5.2286,-6.38122 0.7644,-0.24263 2.749,-2.05295 4.4101,-4.02294 l 3.0202,-3.5818 -1.8303,-12.78745 c -1.0066,-7.03309 -1.8302,-14.89317 -1.8302,-17.46684 0,-2.79839 -0.4703,-5.66562 -1.17,-7.13282 -1.075,-2.25446 -1.075,-2.63685 0,-4.71582 0.6435,-1.24434 1.17,-2.95474 1.17,-3.8009 0,-2.23421 1.3202,-4.35195 2.713,-4.35195 0.6641,0 2.0662,-0.82277 3.1158,-1.82838 3.8581,-3.69624 18.4522,-8.50506 54.8984,-18.08922 8.4,-2.20893 24.436396,-6.49422 35.636396,-9.52288 39.942,-10.80097 116.4888,-29.42175 140.6435,-34.21297 6.5699,-1.30318 11.2017,-1.01994 14.9833,0.91623 2.9717,1.5215 3.0808,1.77518 3.6528,8.49295 0.9757,11.45996 6.188,39.71739 12.6561,68.61268 8.3174,37.15713 14.3574,72.72056 15.7168,92.54068 0.591,8.61845 6.5844,56.96409 7.7783,62.74439 0.7448,3.60584 0.7123,4.57109 -0.2092,6.21285 -3.1492,5.61072 -27.92,15.44762 -33.5292,13.31501 -1.4838,-0.56416 -3.817,-0.0184 -11.9592,2.7976 -11.3295,3.91827 -27.9913,8.68728 -46.4605,13.29811 l -12.3636,3.08658 0.3605,7.63637 c 0.1983,4.2 0.3498,9.92727 0.3366,12.72727 -0.073,15.49435 -1.9529,95.92737 -2.5246,108 -0.3693,7.8 -1.0099,37.0909 -1.4235,65.0909 -0.4136,28 -1.0864,69.56364 -1.4951,92.36364 -0.4086,22.8 -1.075,64.03636 -1.4808,91.63636 -0.4058,27.6 -1.2063,57.87272 -1.7789,67.27272 -0.5725,9.4 -1.7117,29.03637 -2.5315,43.63637 -0.8197,14.59998 -2.1388,35.92388 -2.9311,47.38648 -0.7924,11.4625 -1.4407,22.4997 -1.4407,24.5272 0,3.6139 0.039,3.68 2,3.3671 16.0633,-2.5636 30.0423,-3.9341 48.4006,-4.745 8.8074,-0.389 16.1073,-0.8013 16.222,-0.916 0.1147,-0.1146 6.4145,-16.0715 13.9996,-35.4596 7.585,-19.3881 16.5643,-42.28748 19.9539,-50.88748 3.3896,-8.6 8.3594,-21.65663 11.0441,-29.01474 5.8689,-16.08567 9.0208,-23.6664 11.7535,-28.26851 2.2727,-3.82749 3.5352,-8.09607 6.8266,-23.08036 1.2301,-5.6 4.3473,-18.89462 6.9272,-29.54356 2.5799,-10.64895 4.6907,-20.49528 4.6907,-21.8808 0,-1.38546 1.4727,-8.33564 3.2727,-15.44473 1.8,-7.10916 3.2707,-13.79004 3.2681,-14.84647 0,-1.38218 -0.6331,-2.27855 -2.2462,-3.19666 -2.1639,-1.23163 -2.2313,-1.42094 -1.944,-5.45454 0.1637,-2.29833 1.4996,-10.31178 2.9686,-17.80778 1.4691,-7.49607 3.3184,-19.93244 4.1096,-27.63637 3.6873,-35.90356 5.3105,-47.59287 9.2164,-66.3709 1.4145,-6.8 3.8036,-18.81002 5.3091,-26.68893 1.5055,-7.87892 3.2762,-15.14789 3.935,-16.15327 0.7441,-1.13568 2.369,-2.12781 4.2906,-2.6197 1.701,-0.43545 3.4693,-0.91642 3.9294,-1.06882 0.8661,-0.28684 1.3649,-2.72152 2.0891,-10.19655 1.7583,-18.14757 4.7269,-37.96913 8.387,-56 2.3547,-11.6 5.2637,-27.47273 6.4645,-35.27273 1.2007,-7.8 2.9725,-18.10909 3.9373,-22.90909 0.9648,-4.8 1.9592,-10.2 2.2097,-12 0.4497,-3.23044 0.4175,-3.29442 -2.4983,-4.95196 -6.2154,-3.5333 -7.0876,-8.37039 -3.9147,-21.71083 5.5971,-23.53313 6.2752,-27.75828 6.659,-41.49557 0.7972,-28.53665 -1.8398,-45.62685 -15.7981,-102.38709 -7.0986,-28.86596 -9.4609,-41.85902 -9.9864,-54.92693 -0.5214,-12.96674 0.3939,-20.26664 6.0617,-48.34579 5.4137,-26.81989 7.3975,-34.67971 12.9482,-51.30119 9.7602,-29.22649 13.008,-53.14732 9.6029,-70.72834 -0.6811,-3.51624 -3.1741,-12.02533 -5.54,-18.90909 -9.0168,-26.234385 -10.0816,-35.488054 -4.9341,-42.879552 0.9712,-1.394495 2.0254,-2 3.4822,-2 2.996,0 3.2164,0.98616 1.0038,4.491265 -4.4943,7.119292 -3.7342,11.272062 8.362,45.690547 5.8805,16.7324 7.1131,31.46705 4.1814,49.98573 -2.637,16.65638 -5.063,26.96014 -9.8923,42.01427 -4.6117,14.37561 -5.6781,18.97772 -10.6169,45.81818 -1.8401,10 -3.8663,20.8 -4.5028,24 -0.7909,3.97608 -1.1588,9.84776 -1.162,18.54545 -0.01,15.6845 1.1117,21.96089 10.4302,58.58291 13.1128,51.53397 15.8118,66.57084 17.0942,95.23527 0.2537,5.67022 0.1227,13.08213 -0.2956,16.72727 -0.716,6.23839 -1.5241,10.09659 -6.9958,33.40069 -1.3079,5.57038 -2.2113,10.56246 -2.0075,11.0935 1.3521,3.52357 24.3403,4.71748 33.7473,1.7527 3.9229,-1.23639 5.2295,-1.3678 7.1037,-0.71445 1.2632,0.44034 3.089,0.60175 4.0574,0.35869 0.9685,-0.24306 1.925,-0.17627 2.1257,0.14843 0.2006,0.3247 2.5934,0.34021 5.3173,0.0345 14.8457,-1.6664 22.7236,-2.1377 32.2251,-1.92784 5.8,0.1281 11.0406,0.48013 11.6458,0.78229 0.8447,0.42177 2.0905,-1.15578 5.3634,-6.79151 8.0179,-13.80648 14.4336,-18.82809 27.7181,-21.69508 7.8133,-1.68623 21.5286,-2.98911 31.3979,-2.98265 3.9311,0.003 12.7602,-0.38768 19.6202,-0.86722 10.8847,-0.7609 12.9911,-0.72758 16.5454,0.2617 2.8079,0.78152 4.0748,0.88146 4.0793,0.32177 0,-0.44651 1.3199,-3.26639 2.9253,-6.26639 1.6054,-3 4.7537,-9.21818 6.9961,-13.81818 5.6088,-11.50568 7.9304,-13.75567 11.9653,-11.59625 1.304,0.69788 1.7228,0.15444 4.6244,-6 3.4824,-7.38628 8.3916,-25.74167 8.3916,-31.37623 0,-1.9584 -0.8394,-5.22419 -2.1149,-8.22829 l -2.1149,-4.98106 -10.067,-5.13592 c -20.7991,-10.61129 -36.1864,-21.6564 -51.5667,-37.01504 -11.671,-11.65456 -17.52,-18.74415 -26.1257,-31.66725 -9.9185,-14.89437 -16.4521,-27.61719 -21.8483,-42.54545 l -2.366,-6.54545 -6.8074,-0.44453 c -13.0852,-0.85448 -19.4856,-5.08897 -25.1609,-16.64638 -7.2418,-14.74768 -9.9259,-35.28871 -5.4168,-41.45455 3.8948,-5.32596 13.2131,-8.54392 22.7444,-7.85449 5.0226,0.36331 5.026,0.35869 5.026,-6.95398 0,-11.95381 3.9088,-34.28887 8.7538,-50.01923 7.4279,-24.11637 21.3224,-49.72541 37.3426,-68.826665 3.447,-4.10991 6.2672,-7.610459 6.2672,-7.779012 0,-0.168546 -1.8818,0.3512 -4.1818,1.154989 -7.4719,2.611233 -22.9235,6.308803 -30.089,7.200313 -8.633,1.07409 -43.1197,-0.11562 -53.7292,-1.85353 -9.0615,-1.48432 -19.6282,-5.074521 -33.2273,-11.28951 -6.0794,-2.778364 -14.0292,-6.048524 -17.6661,-7.267018 -6.6085,-2.214029 -6.6173,-2.214865 -13.8531,-1.311847 -7.6542,0.955243 -10.4597,0.552021 -11.8775,-1.707084 -0.5249,-0.836334 -0.5438,-1.891622 -0.059,-3.272727 1.1446,-3.257993 4.775,-4.126582 16.6826,-3.991382 9.9241,0.112684 10.2192,0.161738 11.6591,1.93768 0.8366,1.031804 5.0949,3.434051 9.8182,5.538727 4.5875,2.044167 11.178,4.973571 14.6455,6.509782 7.4175,3.286196 16.5373,6.139825 23.1499,7.243789 7.3013,1.218916 41.3139,1.781862 49.8182,0.824545 9.5052,-1.069978 18.7363,-3.462022 35.5718,-9.21768 7.5646,-2.586109 14.4957,-4.702021 15.4027,-4.702021 0.9069,0 2.1398,-0.490909 2.7398,-1.090909 0.6,-0.6 1.4872,-1.090909 1.9715,-1.090909 0.4844,0 3.0441,-1.745491 5.6884,-3.878866 9.9484,-8.02643 24.9223,-17.602363 37.0471,-23.692011 8.429,-4.233443 25.2143,-10.695669 35.2118,-13.5563128 4.9018,-1.402589 9.9052,-3.013592 11.1186,-3.580008 8.0025,-3.73547496 46.4732,-5.938676 65.3429,-3.74216196 23.803,2.77078396 44.0711,8.56647096 66.3248,18.96566376 3.835,1.792096 8.1731,3.459457 9.6403,3.705248 1.4672,0.245791 5.2858,1.272926 8.4858,2.28252 20.7206,6.537306 52.4911,14.511819 74.5454,18.71115 43.7789,8.335861 45.8399,8.658508 55.2728,8.652727 10.8639,-0.0065 18.333,-1.394095 36.0434,-6.695367 19.38495,-5.802473 22.04685,-6.246786 37.47905,-6.255688 10.7733,-0.0065 13.7821,0.207346 14.7997,1.050488 0.7222,0.598363 2.431,0.980582 3.9321,0.879491 3.6389,-0.245069 8.6541,2.456523 11.4538,6.169883 3.4678,4.599629 5.6605,13.4336 5.6597,22.801428 0,11.069815 -2.6591,22.968425 -10.4791,46.909085 -2.3519,7.2 -5.6128,18 -7.2465,24 -1.6338,6 -6.0506,20.07272 -9.8151,31.27272 -10.6243,31.608 -13.5537,43.73967 -15.2666,63.22319 -1.5222,17.3149 0.2648,40.98019 4.7352,62.70655 7.0923,34.46932 7.4207,54.82203 1.471,91.16116 -2.9566,18.05749 -2.5673,28.80886 1.3238,36.56691 1.2622,2.51658 5.5043,8.23517 9.56,12.88764 8.8806,10.1873 10.3142,12.92112 10.7533,20.50579 0.4206,7.26552 -0.9935,11.20191 -5.8805,16.36908 l -3.5826,3.7882 0.4836,4.57755 c 0.266,2.51766 0.9364,8.01392 1.4899,12.21392 0.987,7.49091 1.4542,14.55704 2.1633,32.72727 0.5301,13.58247 1.7674,31.81307 2.9368,43.27273 0.5714,5.6 1.2353,13.12727 1.4753,16.72727 0.3988,5.9812 1.5256,15.05948 4.342,34.98116 0.5711,4.03965 1.2244,11.07601 1.4517,15.63637 0.2274,4.56036 0.5869,10.00855 0.7989,12.10709 l 0.3854,3.81553 2.3117,-1.72109 c 1.2714,-0.94659 5.3017,-3.25025 8.9563,-5.11922 5.6498,-2.88936 8.0052,-4.72738 15.732,-12.27626 9.839,-9.61254 16.2625,-18.10177 25.2962,-33.43122 2.8851,-4.8958 6.9049,-11.51963 8.933,-14.71963 2.0281,-3.2 6.0081,-10.23636 8.8447,-15.63636 2.8365,-5.4 8.7765,-16.2 13.1999,-24 17.127,-30.20083 24.9012,-53.33323 26.0678,-77.56538 0.564,-11.71708 1.0087,-13.62692 3.2484,-13.95279 0.9279,-0.135 1.9292,0.14655 2.2254,0.62566 0.8615,1.39404 0,25.83833 -1.1888,33.8016 -2.8949,19.36071 -12.0068,42.61087 -28.1058,71.71499 -3.4536,6.24325 -7.0657,13.11597 -8.0271,15.27273 -2.2684,5.08908 -22.878,39.50206 -27.6105,46.10318 -10.8036,15.06885 -24.3307,28.2357 -34.0058,33.10027 -3.1292,1.57337 -5.87,3.15269 -6.0906,3.5096 -0.2206,0.3569 0.074,4.53842 0.6542,9.29225 0.5803,4.75384 1.4122,14.69788 1.8485,22.09788 0.4363,7.4 1.0853,15.90909 1.4422,18.90909 0.357,3 1.1694,11.50909 1.8053,18.90909 0.6359,7.4 1.9385,20 2.8946,28 2.8929,24.20727 4.7888,41.54633 5.237,47.8976 0.4188,5.93411 0.3953,6.04662 -1.59,7.60822 -1.1083,0.87178 -2.4312,1.58509 -2.9398,1.58509 -0.5549,0 -0.7783,0.56029 -0.5585,1.4008 0.2938,1.12313 -0.1883,1.55491 -2.4317,2.17774 -1.5389,0.42735 -4.0355,0.77884 -5.5481,0.78102 -1.6137,0 -2.9034,0.40364 -3.1211,0.97098 -0.4226,1.10117 1.2334,8.78379 4.9646,23.0331 1.4141,5.39999 3.7776,14.8909 5.2523,21.0909 5.9562,25.04197 7.1517,29.79688 9.5075,37.81818 1.3511,4.6 2.8287,10.16364 3.2837,12.36364 0.9874,4.77564 8.4515,17.74596 16.2223,28.18982 2.8985,3.89556 7.7349,10.84654 10.7474,15.44654 3.0125,4.6 9.0482,12.83146 13.4126,18.29216 4.3644,5.4606 9.8849,13.1516 12.2678,17.0909 2.3827,3.9393 8.971,14.19878 14.6405,22.79878 12.5296,19.0061 17.3337,27.3237 34.4444,59.6363 7.3076,13.8 15.0687,28.4455 17.2469,32.5455 2.1782,4.1 4.278,7.4545 4.6662,7.4545 0.3882,0 2.9068,-1.1078 5.5968,-2.4618 19.79,-9.9612 46.7271,-12.3873 76.3982,-6.8809 4.6726,0.8671 8.4865,1.2521 8.817,0.89 0.3203,-0.351 1.1191,-6.6927 1.775,-14.0927 1.9525,-22.028 1.5265,-72.3611 -1.0065,-118.90908 -0.3918,-7.2 -1.2113,-24.54548 -1.8211,-38.54548 -0.6097,-13.99999 -1.6024,-33.95083 -2.2058,-44.33512 -2.8983,-49.87774 -3.4368,-75.40989 -3.5205,-166.9376 -0.082,-90.09484 0.2336,-107.14281 2.8308,-152.72726 0.5812,-10.2 1.6176,-28.52728 2.3029,-40.72728 1.5211,-27.07123 1.6695,-79.08909 0.3186,-111.63636 -1.5391,-37.08151 0.4408,-108.08857 4.2883,-153.79737 2.8302,-33.62287 4.4246,-46.25932 13.0116,-103.12239 1.5148,-10.03062 2.4392,-22.58365 3.7082,-50.35295 0.4114,-9 1.0709,-21.10909 1.4658,-26.90909 0.9685,-14.224515 2.2093,-43.106972 1.8667,-43.449605 -0.1518,-0.151701 -10.374,0.381913 -22.7162,1.185819 -12.3422,0.803905 -27.6766,1.65357 -34.0766,1.888138 -6.4,0.234574 -19.9819,0.91248 -30.1819,1.506472 -10.2,0.593986 -23.044,1.155273 -28.5423,1.247302 -7.9024,0.132276 -9.9975,0.376335 -10,1.164902 0,0.548669 0.5075,4.436436 1.1316,8.639483 1.5505,10.442424 5.2811,22.989269 10.031,33.737539 2.1849,4.94397 5.0843,11.77085 6.4432,15.17085 l 2.4707,6.18182 11.2329,0.39335 c 12.6364,0.44249 15.4474,1.23833 15.8227,4.47953 0.3917,3.38332 -2.8495,4.42316 -14.9732,4.80374 -9.1503,0.28724 -10.3414,0.46614 -10.0303,1.50649 1.2975,4.33881 3.3221,16.66456 3.3186,20.20386 -0.01,4.02937 -0.7696,10.0646 -1.7857,14.07657 -0.5459,2.1554 -0.8661,1.99988 15.1033,7.33591 9.4782,3.16703 12.1325,3.73384 22.1604,4.73223 6.2658,0.62383 11.9794,1.44838 12.6968,1.83233 0.7174,0.38394 2.4452,0.48405 3.8396,0.22246 2.3148,-0.43425 2.5349,-0.32624 2.5308,1.24168 0,0.94452 -0.4933,2.65472 -1.0909,3.80044 -0.5976,1.14572 -1.0864,3.05183 -1.0864,4.2358 0,1.60605 -0.9922,3.20088 -3.9073,6.28051 -2.1489,2.27031 -4.4059,5.10965 -5.0154,6.30965 -2.0973,4.12885 -7.8046,23.75398 -7.7893,26.78399 0.01,1.6688 0.8488,5.3251 1.8675,8.1251 3.9593,10.88265 4.6883,14.40093 5.3495,25.81818 0.359,6.2 1.072,15.28181 1.5843,20.18181 1.172,11.21028 0.2462,21.53193 -3.2789,36.55646 -3.644,15.53064 -9.4472,30.33667 -16.8202,42.91438 -4.2278,7.21203 -5.5528,13.10278 -5.64,25.07462 -0.082,11.19077 0.8756,16.73764 4.3293,25.0909 1.4058,3.4 2.5561,7.26534 2.5564,8.58965 4e-4,2.38643 -1.8156,5.22439 -3.3487,5.23302 -0.4379,0.002 -1.7733,0.51394 -2.9675,1.13661 -1.9711,1.02778 -2.5409,1.02372 -6.1818,-0.0439 -2.2059,-0.64684 -5.388,-1.80202 -7.0715,-2.56706 -1.6834,-0.76504 -6.2652,-2.23059 -10.1818,-3.25679 -6.3959,-1.67582 -8.38,-1.85691 -19.4846,-1.77836 -6.8,0.0481 -13.0476,0.24463 -13.8834,0.43675 -1.2245,0.28143 -1.6873,1.25808 -2.3815,5.02579 -1.0758,5.8382 -2.2423,20.54527 -2.2641,28.54489 -0.023,8.42673 -0.3955,8.9446 -6.035,8.38961 -4.396,-0.4326 -11.5536,-3.04429 -12.4883,-4.55677 -0.254,-0.41086 0.072,-1.77948 0.7247,-3.04136 0.9434,-1.82419 1.2702,-5.47989 1.5951,-17.83955 l 0.4085,-15.54522 -5.0198,0.0126 c -8.7892,0.022 -18.0662,1.33967 -33.1511,4.70841 -8.0757,1.80344 -15.0317,3.26656 -15.4578,3.25138 -0.426,-0.0152 -1.6623,-1.31133 -2.7473,-2.88034 -1.9037,-2.7531 -6.597,-5.81931 -8.9074,-5.81931 -1.38,0 -1.419,0.61371 0.4461,-7.03348 1.8049,-7.40044 1.9512,-16.1971 0.6336,-38.10666 -1.2322,-20.4897 -2.8922,-28.95879 -8.0617,-41.13074 -1.5498,-3.64899 -3.708,-9.5399 -4.796,-13.09091 -1.7741,-5.79014 -1.9796,-7.5821 -1.9909,-17.36548 -0.017,-14.76532 0.033,-14.95034 13.3405,-49.0909 1.6371,-4.2 4.3054,-12.21818 5.9296,-17.81818 2.4749,-8.53297 3.0165,-11.59512 3.3447,-18.90909 0.668,-14.88704 -1.32,-24.79161 -5.5741,-27.7713 -0.7052,-0.49393 -1.6841,-1.86845 -2.1754,-3.05449 -1.0928,-2.63842 0.1529,-5.86511 2.696,-6.98304 1.0917,-0.47988 1.6332,-1.34675 1.6332,-2.61455 0,-4.23097 3.6336,-5.15186 12.7275,-3.22561 2.7999,0.59305 6.8146,1.08396 8.9215,1.09091 6.8358,0.0225 21.2071,-3.64119 31.2267,-7.96072 3.6463,-1.57192 3.8007,-1.75549 4.2143,-5.01099 1.819,-14.31813 2.8388,-16.49938 11.9559,-25.57271 8.1061,-8.06722 11.7689,-10.1056 23.4487,-13.04955 4.3384,-1.09352 8.0707,-2.17086 8.2939,-2.39411 0.2233,-0.22325 -2.0424,-5.59169 -5.0347,-11.92987 -8.6413,-18.30328 -11.1672,-26.771225 -14.012,-46.974132 -1.2988,-9.223593 -1.2979,-9.278036 0.1851,-11.272727 1.7778,-2.391076 5.9928,-3.126349 7.5015,-1.308546 0.8376,1.0092 1.1181,0.941222 2.5669,-0.622101 1.9895,-2.146706 2.5833,-2.209673 34.9137,-3.702185 13.2,-0.609369 32.0182,-1.591717 41.8182,-2.182996 32.107,-1.937162 50.1519,-2.53465 51.9403,-1.719805 0.9111,0.415114 2.2668,2.115829 3.0128,3.779367 1.2375,2.759648 1.341,4.872273 1.181,24.115523 -0.097,11.599997 -0.499,25.345452 -0.8944,30.545452 -0.3955,5.2 -1.0482,21.4 -1.4504,36 -0.4024,14.6 -1.1803,29.65454 -1.7288,33.45454 -8.1171,56.23078 -10.5848,76.85227 -13.1418,109.81818 -2.5121,32.38886 -3.0904,44.33473 -4.1015,84.72727 -0.7191,28.72273 -0.694,39.93551 0.1412,63.27272 1.8253,51.0049 1.3088,85.31311 -2.2228,147.63636 -2.9215,51.55552 -3.2788,68.88172 -3.2396,157.09091 0.039,86.84072 0.3076,100.00981 3.2315,158.18181 0.7741,15.4 1.7556,36.01818 2.1812,45.81818 0.4255,9.8 1.4059,29.76364 2.1787,44.36369 2.379,44.94948 2.9716,61.90458 3.1267,89.45448 0.1236,21.9305 -0.083,28.4835 -1.1878,37.6929 -0.7356,6.1311 -1.2265,11.2378 -1.0909,11.3482 0.1355,0.1104 2.9357,1.0568 6.2225,2.1031 29.2092,9.298 55.036,24.4852 73.6603,43.3153 16.3042,16.4843 23.9607,31.4927 23.9892,47.0241 0.02,10.5492 -2.9893,18.2577 -10.171,26.0579 -21.2619,23.0931 -71.6521,27.3737 -121.3955,10.3123 -2.9676,-1.0178 -5.5086,-1.7375 -5.6468,-1.5993 -0.1383,0.1382 0.6533,2.183 1.7591,4.5439 1.6945,3.6179 2.0131,5.2641 2.027,10.4744 0.013,4.9496 0.472,7.5589 2.3015,13.0909 2.7432,8.2945 6.9046,28.9672 9.1082,45.2466 1.3684,10.1089 1.6032,15.2007 1.6028,34.7534 -5e-4,22.4243 -0.044,23.1014 -2.0326,32 -3.928,17.5734 -8.9847,30.821 -13.7981,36.1489 -3.1864,3.527 -9.3983,6.4511 -16.654,7.8393 -8.2256,1.5738 -30.7468,2.7065 -54.3625,2.7341 -25.9493,0.03 -38.6671,-1.0071 -104.3637,-8.5125 -38.8933,-4.4432 -51.8216,-5.5355 -90.1818,-7.6186 -40.37945,-2.1927 -88.10785,-3.9478 -139.63635,-5.135 -17.2,-0.3963 -39.7818,-1.0527 -50.1818,-1.4589 -46.0029,-1.7963 -66.742,-2.132 -133.0909,-2.1538 -60.3536,-0.02 -74.6432,0.1839 -98.9091,1.4105 -15.6,0.7886 -39,1.7717 -52,2.1848 -24.3983,0.7755 -43.6601,1.6493 -65.0909,2.9531 -11.0108,0.6699 -19.9297,1.3641 -56.3636,4.3876 -5.4,0.4481 -16.8546,1.6114 -25.4546,2.5852 -37.9246,4.2938 -60.2346,6.9296 -73.0909,8.6352 -32.3541,4.2923 -56.7384,5.6027 -68.3636,3.6739 z m 45.4545,-9.7829 c 6.6,-0.7754 19.3637,-2.413 28.3637,-3.639 21.7729,-2.966 73.4257,-9.4052 82.5454,-10.2904 54.5302,-5.2933 76.6348,-6.7963 133.4545,-9.0742 15.4,-0.6174 36.8364,-1.6428 47.6364,-2.2785 28.6714,-1.6878 146.4118,-2.0745 186.1818,-0.6114 16,0.5886 38.0909,1.403 49.0909,1.8098 11,0.4068 34.2364,1.074 51.6364,1.4828 54.9126,1.2899 148.75425,4.4194 162.54545,5.4205 2.8,0.2033 10,0.7181 16,1.1441 13.4468,0.9547 25.6733,2.1848 53.8276,5.4154 61.7809,7.089 85.444,8.8026 111.9906,8.1098 29.7451,-0.7763 41.6493,-2.3358 47.8507,-6.2687 2.6944,-1.7086 3.7994,-3.1104 5.8547,-7.4269 6.3379,-13.3101 9.9316,-33.6213 9.9304,-56.1251 0,-17.5565 -1.5371,-30.4799 -6.9281,-58.2865 -1.3959,-7.2 -2.805,-16.5328 -3.1314,-20.7395 -0.4247,-5.4748 -0.9797,-8.2383 -1.9528,-9.7236 l -1.3596,-2.0749 -12.7683,0.4967 c -20.8403,0.8105 -132.9523,0.6188 -146.2229,-0.25 -6.6,-0.4322 -21.3273,-1.28 -32.7273,-1.8842 -62.2258,-3.2974 -76.55455,-4.3129 -112.36365,-7.9628 -9.6,-0.9785 -23.6727,-2.3015 -31.2727,-2.9399 -24.4884,-2.0571 -64.5801,-5.9508 -78.5454,-7.6283 -3.2,-0.3845 -10.0728,-1.2096 -15.2728,-1.8336 -18.4229,-2.211 -38.2151,-4.8678 -70.5454,-9.4697 -63.4428,-9.0307 -75.0166,-10.1777 -120.9911,-11.9903 -42.1634,-1.6622 -71.7576,-0.4109 -104.0998,4.4018 -2.6,0.3869 -8.1637,1.1973 -12.3637,1.8009 -17.9663,2.5822 -40.0527,6.5056 -55.6363,9.8832 -28.3551,6.1458 -34.945,7.1986 -78.9091,12.6058 -11,1.353 -25.5636,2.8281 -32.3636,3.2781 -6.8,0.45 -17.9273,1.2859 -24.7273,1.8575 -23.0045,1.9337 -33.399,2.5044 -52.7273,2.8945 -30.2759,0.6112 -59.0808,3.4999 -69.6239,6.9823 -7.4273,2.4532 -7.5122,2.5983 -6.7729,11.5687 2.5502,30.9408 1.714,45.8341 -5.0429,89.8182 -4.202,27.3527 -4.4829,34.8114 -1.5598,41.4196 1.7811,4.0264 6.5404,9.2328 10.6319,11.6305 5.7672,3.3799 21.262,7.7794 35.6403,10.1196 4.6354,0.7544 33.2811,-0.2973 44.7273,-1.6423 z m -81.613,-169.9561 c 12.8154,-5.4791 42.8607,-9.8626 76.8857,-11.2173 19.5649,-0.7789 28.4993,-1.4704 42.1819,-3.2647 4.4,-0.577 14.3818,-1.5546 22.1818,-2.1724 21.967,-1.7399 33.9236,-3.0776 58.8172,-6.5801 26.0306,-3.6624 27.5477,-3.9401 53.5464,-9.8022 70.8273,-15.9699 117.7402,-20.6278 183.6364,-18.2332 40.4159,1.4687 67.8732,4.2177 131.2727,13.143 35.2723,4.9656 45.9446,6.2902 108.7273,13.4936 5,0.5737 19.7272,1.8534 32.7272,2.8436 13,0.9902 25.6,1.975 28,2.1884 51.65715,4.5926 67.42175,5.7762 112.00005,8.4088 48.671,2.8743 65.1934,3.5448 97.8182,3.9697 41.5586,0.5413 79.9484,1.6476 91.1894,2.6279 4.7543,0.4145 8.9146,0.4832 9.2454,0.1524 0.5657,-0.5657 -9.8887,-20.122 -18.0201,-33.7087 -7.3625,-12.3023 -22.6979,-39.1293 -28.2503,-49.4201 -3.1294,-5.8 -8.948,-16.1091 -12.9302,-22.9091 -3.9824,-6.8 -10.5832,-18.5818 -14.6688,-26.1818 -22.4942,-41.8441 -36.0633,-65.8604 -43.5046,-77.0002 -2.3715,-3.5501 -8.5592,-13.3683 -13.7506,-21.8182 -5.1913,-8.4499 -12.3075,-19.29068 -15.8136,-24.09068 -6.9906,-9.5704 -10.023,-14.1436 -23.3879,-35.27271 -12.2623,-19.38589 -16.8727,-28.32546 -17.0473,-33.05476 -0.08,-2.16008 -1.9541,-9.36306 -4.5512,-17.49069 -4.603,-14.40451 -8.3799,-28.35004 -11.0304,-40.72728 -0.8566,-4 -2.533,-10.41781 -3.7254,-14.26189 -1.1922,-3.84407 -3.0603,-11.20771 -4.1512,-16.36363 l -1.9834,-9.37448 -72.71905,-0.46421 c -39.9954,-0.25528 -72.8799,-0.31259 -73.0766,-0.12728 -0.1966,0.18531 0.1307,0.61033 0.7273,0.94444 0.5967,0.33404 5.8303,4.164 11.6303,8.51098 5.8,4.34691 13.5912,9.98829 17.3136,12.53637 12.1033,8.28479 17.0386,13.74545 15.3219,16.95316 -1.4691,2.74494 -6.7751,1.12073 -16.4779,-5.04415 -7.3473,-4.66829 -27.0987,-20.00676 -35.0175,-27.19374 l -7.6855,-6.97535 -111.2727,-0.92989 c -110.3197,-0.92196 -399.7814,-2.05767 -412.3652,-1.61789 l -6.5469,0.2288 -1.3562,7.00473 c -0.7459,3.85265 -2.163,9.78785 -3.1491,13.18938 -0.9862,3.40153 -2.0655,8.81913 -2.3986,12.03913 -0.3331,3.22007 -1.917,10.43643 -3.5198,16.03643 -1.6028,5.6 -4.766,16.89091 -7.0293,25.09091 -2.2633,8.2 -5.0707,18.15716 -6.2386,22.12705 -1.168,3.9699 -2.1236,7.98626 -2.1236,8.92524 0,0.93898 -1.2659,4.23636 -2.8132,7.32749 -2.8115,5.61695 -5.8509,13.54626 -13.584,35.4384 -8.4766,23.99714 -41.0277,107.51082 -62.5049,160.36362 -21.5384,53.0035 -42.5524,109.2564 -42.5524,113.9094 0,1.0869 -0.454,2.4928 -1.0087,3.1243 -0.6195,0.7051 -0.8683,2.0602 -0.6448,3.5117 0.4243,2.7554 0.2165,2.6871 3.6768,1.2077 z m 233.1151,-86.1218 c -3.0028,-1.2099 -4.2903,-6.7392 -2.0832,-8.9463 1.4658,-1.4658 6.0888,-2.2426 7.3109,-1.2284 0.7459,0.619 1.9271,0.3842 4.8943,-0.973 4.9337,-2.2567 12.1541,-8.046 24.1941,-19.3987 12.8525,-12.1188 16.6403,-15.3628 27.6364,-23.6684 18.9263,-14.2956 35.7995,-23.9449 47.6531,-27.2515 12.4784,-3.4808 30.3723,-1.7743 42.5287,4.0559 7.3858,3.5421 20.056,15.3851 29.9139,27.9609 5.4402,6.9401 6.2956,8.969 6.6688,15.8182 0.2817,5.1689 0.1646,6 -0.8454,6 -0.6448,0 -1.6319,-1.0997 -2.1935,-2.4439 -0.6591,-1.5776 -3.2348,-4.1724 -7.2668,-7.3208 -3.4351,-2.6824 -8.9531,-7.7785 -12.2623,-11.3248 -6.8948,-7.3891 -13.7475,-13.1069 -18.7403,-15.6369 -5.1798,-2.6248 -14.1072,-4.8062 -21.4562,-5.2427 -5.5281,-0.3284 -7.6195,-0.1012 -13.4546,1.4613 -11.6768,3.1268 -18.8078,6.6193 -33.9256,16.6154 -16.9462,11.2052 -21.4345,14.5539 -31.4963,23.4997 -18.7843,16.7007 -30.4537,25.5688 -36.4121,27.671 -3.3778,1.1917 -8.187,1.3509 -10.6639,0.353 z m 578.70615,-2.6023 c -2.1592,-5.2174 -2.5103,-5.6864 -4.829,-6.45 -1.1586,-0.3815 -4.3434,-2.1815 -7.0774,-4 -32.35445,-21.52 -72.80465,-46.3981 -87.02915,-53.5254 -16.3355,-8.1851 -25.7717,-11.2992 -38.431,-12.6829 -19.8898,-2.1741 -42.7654,5.143 -77.1941,24.6915 -19.0624,10.8235 -27.9852,14.0293 -41.5112,14.9142 -7.9747,0.5217 -10.6047,-0.1459 -11.2872,-2.8651 -1.0282,-4.0968 2.3559,-6.4654 13.1021,-9.1707 13.8944,-3.4979 19.4287,-5.9537 36.3851,-16.1456 23.0285,-13.8418 45.9461,-23.5029 64.3877,-27.1432 7.5893,-1.4981 20.5103,-1.0232 29.8214,1.0958 18.9627,4.3158 45.4808,18.4849 90.5454,48.3803 11.60005,7.6954 23.43825,15.5274 26.30725,17.4047 5.993,3.9214 9.3721,8.3781 10.1166,13.3426 0.5768,3.8465 -0.219,14.103 -1.1689,15.0629 -0.3952,0.3993 -1.2498,-0.7636 -2.1376,-2.9091 z m -554.83375,-90.7245 c -0.5174,-0.6235 -0.8337,-1.8664 -0.703,-2.7622 0.1989,-1.3632 1.4999,-2.0612 7.9833,-4.2835 4.2639,-1.4615 9.3311,-3.7896 11.2727,-5.1793 2.1704,-1.5535 6.5031,-6.4148 11.2641,-12.6386 4.2553,-5.5627 8.1008,-10.2353 8.5454,-10.3835 4.3971,-1.4658 -10.5473,22.7264 -17.6181,28.5205 -6.5929,5.4023 -18.6095,9.2989 -20.7444,6.7266 z m 325.171,-13.3239 c -2.2422,-0.9238 -0.7824,-3.0261 3.6363,-5.2369 5.5903,-2.7969 15.2729,-9.7193 24.9091,-17.8082 8.4467,-7.0906 13.8667,-10.889 14.9988,-10.5117 0.9944,0.3315 -20.8194,22.0015 -26.2698,26.0966 -6.7644,5.0825 -14.7136,8.5154 -17.2744,7.4602 z m 191.4545,-14.7084 c -5.9731,-2.7353 -20.8658,-16.2109 -26.0917,-23.609 -9.1335,-12.93 -10.064,-15.0268 -6.6685,-15.0268 1.2592,0 3.8841,2.0004 8.9091,6.7896 3.9181,3.7342 9.2511,8.6984 11.8511,11.0313 10.0072,8.9796 19.6363,18.5969 19.6363,19.6125 0,1.1195 -2.1553,2.5775 -3.7704,2.5506 -0.5262,-0.01 -2.2659,-0.6155 -3.8659,-1.3482 z m -349.7498,-9.6526 c -4.7327,-2.4957 -9.7366,-8.3857 -13.1926,-15.5287 -3.9504,-8.1647 -6.0354,-15.3131 -4.8209,-16.52758 1.5026,-1.5026 4.5231,1.60528 11.1712,11.49448 6.7673,10.0667 10.1313,13.5718 14.3189,14.9195 3.494,1.1245 4.455,1.9666 4.455,3.9041 0,3.3552 -6.9462,4.367 -11.9316,1.7382 z m -148.0684,-24.6267 c 0,-2.1447 2.0108,-3.5314 8.8512,-6.1045 7.3151,-2.75168 13.3971,-6.70638 24.6034,-15.99748 9.1808,-7.6119 14.4184,-10.852 16.9168,-10.4652 1.5257,0.2363 1.4872,0.3285 -0.6099,1.4582 -1.2312,0.6632 -7.4494,6.2305 -13.8182,12.3717 -12.515,12.0677 -17.266,15.42998 -25.8967,18.32718 -6.9596,2.3363 -10.0466,2.4623 -10.0466,0.4101 z m 455.1892,-38.09318 c -3.6711,-1.30349 -5.9967,-3.12269 -12.3555,-9.66479 -5.2367,-5.38771 -12.4954,-14.59157 -14.4259,-18.29171 -0.9992,-1.91513 -0.5683,-3.76138 0.8778,-3.76138 1.1067,0 4.7023,2.34109 12.0021,7.81454 5.3534,4.01404 20.5384,19.89047 20.5194,21.45367 -0.033,2.70457 -2.9056,3.76787 -6.6179,2.44967 z m -444.2919,-76.67214 c -2.2913,-1.85542 -1.4268,-4.20494 1.7678,-4.80429 2.9883,-0.56058 9.6837,-4.84509 14.7813,-9.45869 2.0955,-1.89658 8.476,-8.57585 14.179,-14.84283 21.431,-23.55048 25.3586,-27.07033 28.9389,-25.93397 2.1786,0.69149 1.8006,3.99884 -0.8802,7.70313 -3.1374,4.33498 -27.7668,30.35534 -34.6073,36.56182 -6.4872,5.88574 -11.5957,9.28865 -16.3862,10.91505 -4.4367,1.50633 -5.79,1.48196 -7.7933,-0.14022 z m 860.02825,345.70222 c 18.4045,-2.9851 31.5812,-10.6462 36.5496,-21.2505 1.7954,-3.832 1.9739,-4.9684 1.9197,-12.2248 -0.068,-9.1949 -1.3113,-13.0678 -7.3217,-22.819 -5.287,-8.5778 -19.5147,-22.3668 -30.72,-29.7729 -14.1554,-9.3561 -35.5806,-19.6344 -49.2986,-23.6501 l -3.7635,-1.1017 -0.4195,2.6719 c -0.5429,3.4579 -2.3694,23.2259 -2.9723,32.1683 l -0.4685,6.9511 h -3.4932 c -2.1187,0 -4.2672,0.5071 -5.4603,1.2889 -1.0819,0.7088 -2.0636,1.1808 -2.1815,1.0489 -0.4262,-0.4768 1.135,-23.0532 2.3965,-34.6555 1.2185,-11.2073 1.2209,-11.9075 0.043,-12.538 -0.6863,-0.3673 -5.4483,-1.3904 -10.5823,-2.2736 -12.5869,-2.1652 -36.6506,-2.3628 -46.0618,-0.3783 -11.9536,2.5207 -24,7.5323 -24,9.9847 0,1.866 21.2621,40.1174 31.0645,55.8866 3.8875,6.2538 9.8834,16.265 13.3242,22.2471 7.0763,12.3027 6.3812,11.7157 20.3386,17.1731 13.6808,5.3491 31.8287,9.9386 45.7003,11.5574 8.5643,0.9994 28.3947,0.8238 35.407,-0.3136 z M 140.21945,1192.9011 c 13.5013,-1.2675 31.4013,-3.9783 45.8182,-6.9387 15.2848,-3.1386 33.3721,-7.9605 34.8873,-9.3006 0.7196,-0.6364 3.1954,-6.0662 5.5019,-12.0662 2.3064,-6 7.1241,-17.9454 10.7059,-26.5454 15.878,-38.1235 23.0649,-56.3128 22.481,-56.8966 -1.669,-1.6691 -59.0843,3.6168 -61.0918,5.6244 -0.6845,0.6844 -1.7003,37.7035 -1.229,44.7887 0.3691,5.5498 0.2507,6.4531 -1.0653,8.126 -0.8142,1.0352 -2.5401,2.1035 -3.8352,2.374 -1.2951,0.2705 -5.1366,1.7163 -8.5366,3.213 -9.7067,4.2727 -11.8514,4.6619 -23.1137,4.1948 -5.4875,-0.2276 -11.2232,-0.7845 -12.746,-1.2374 -4.113,-1.2235 -9.4696,-4.5881 -10.5074,-6.5998 -0.7002,-1.3573 -0.8014,-6.1017 -0.435,-20.3851 0.3276,-12.7753 0.2365,-18.765 -0.2904,-19.0907 -1.584,-0.9789 -34.4154,11.5274 -47.446796,18.0737 -26.6058,13.3654 -44.0226,27.734 -48.735,40.2059 -2.8155,7.4515 -1.5572,13.1794 4.1585,18.929 12.772,12.8478 48.6295,17.9294 95.479396,13.531 z m 37.1913,-57.3964 c 3.6251,-1.4 7.0429,-2.5455 7.5951,-2.5455 1.5082,0 1.6319,-1.4778 2.0913,-24.9904 0.2334,-11.9448 0.8965,-28.9629 1.4735,-37.8182 1.9696,-30.2253 2.5765,-40.8414 4.3717,-76.46408 3.118,-61.87161 3.2494,-65.8047 3.9977,-119.63634 0.4031,-29 1.0595,-63.85454 1.4586,-77.45454 0.3991,-13.6 1.0614,-46 1.4717,-72 0.7095,-44.96012 1.2171,-62.16421 2.8863,-97.81818 0.4026,-8.6 1.0638,-28.72727 1.4694,-44.72727 0.6575,-25.93844 2.1114,-55.07995 3.3258,-66.66216 l 0.4317,-4.11671 -10.0639,2.52085 c -12.1846,3.05206 -24.0592,6.64076 -24.5383,7.41584 -0.193,0.31236 -0.8604,11.18418 -1.483,24.1596 -0.6227,12.97542 -1.2886,24.57349 -1.4798,25.77349 -0.1912,1.2 -0.8396,13.96364 -1.4408,28.36364 -0.6013,14.4 -1.2685,28.30909 -1.4827,30.90909 -1.0916,13.24894 -1.8618,40.51222 -2.548,90.18181 -0.7141,51.6912 -1.1105,66.22807 -2.896,106.18182 -0.4022,9 -1.0792,24.38181 -1.5045,34.18181 -0.4253,9.8 -1.2425,24.69091 -1.816,33.09091 -0.5735,8.4 -1.5414,23.12727 -2.1508,32.72727 -0.6095,9.6 -1.424,20.89091 -1.8101,25.09091 -1.19,12.94531 -5.0319,67.91884 -5.8197,83.27274 -1.0223,19.9278 -1.695,85.7005 -0.9629,94.1621 0.7546,8.7219 0.7539,8.7215 13.5326,8.7363 8.9009,0.01 9.583,-0.099 15.8911,-2.5348 z M 1064.5706,813.82509 c -1.31,-1.77178 -1.557,-3.39018 -1.8594,-12.18181 -0.3727,-10.8344 -2.1356,-33.98488 -3.1812,-41.77491 -1.6764,-12.48982 -2.2495,-19.00793 -2.9415,-33.45455 -1.126,-23.50938 -3.0049,-56.1605 -3.332,-57.90334 -0.2795,-1.48939 -0.7706,-1.55483 -15.0266,-2.00238 -8.1058,-0.25446 -39.61045,-0.79123 -70.01045,-1.1928 -30.4,-0.40157 -78.8364,-1.05604 -107.6364,-1.45438 -28.8,-0.39834 -65.6014,-0.73772 -81.781,-0.75417 l -29.4174,-0.0299 -0.9243,1.76408 c -1.7626,3.36422 -5.4464,3.02227 -6.3529,-0.58972 l -0.4612,-1.83739 h -23.8693 -23.8695 l -0.8284,1.81818 c -1.0597,2.32585 -3.5401,2.38822 -4.5759,0.11507 l -0.7759,-1.7031 -26.2994,-0.48596 c -14.4646,-0.26727 -34.7935,-0.79759 -45.1753,-1.17848 -10.3818,-0.38089 -18.9999,-0.56862 -19.1513,-0.41717 -0.3956,0.39555 6.1175,3.20045 10.3909,4.4749 5.1627,1.53965 14.3309,4.46672 32.7273,10.44858 8.8,2.86145 18.4546,5.86927 21.4546,6.68404 8.0158,2.17703 14.3787,5.38914 16.0193,8.08692 1.5262,2.50967 5.5965,4.12702 10.434,4.14598 1.5493,0.006 6.2948,-1.16083 10.5454,-2.5931 19.6794,-6.63105 25.0951,-7.58093 35.1141,-6.15874 8.4141,1.1944 15.4631,4.91516 18.069,9.53764 1.637,2.90385 1.8181,4.03105 1.8181,11.31178 v 8.08655 l 4.461,2.31265 c 4.2278,2.19178 5.3502,3.18538 10.9936,9.732 3.9931,4.63222 3.0225,11.42858 -2.181,15.27134 -3.2882,2.42837 -8.0423,4.14728 -11.4701,4.14728 -1.5919,0 -2.8944,0.1608 -2.8944,0.35731 0,0.19658 1.1364,1.84611 2.5253,3.66574 4.5677,5.98386 4.8571,12.14095 0.7929,16.86582 -1.563,1.81709 -2.258,2.02734 -7.4864,2.2648 l -5.7635,0.26174 0.9677,3.7307 c 1.6531,6.3728 -0.4656,12.36821 -5.1573,14.59461 -3.9802,1.88873 -11.8647,1.50597 -21.8944,-1.06276 -17.7558,-4.54756 -25.6024,-8.15149 -37.6789,-17.30604 -10.8928,-8.25716 -21.5552,-12.05301 -26.8293,-9.55112 -1.2264,0.58174 -2.343,0.69054 -2.9374,0.28611 -0.5275,-0.35877 0.03,0.21978 1.2393,1.28581 l 2.1983,1.93811 -1.8063,0.70968 c -0.9935,0.39032 -3.2087,1.2912 -4.9228,2.00203 -3.0779,1.27637 -3.195,1.2688 -9.4653,-0.60814 -3.4918,-1.04524 -9.9814,-2.55462 -14.4213,-3.35404 -4.4399,-0.79949 -10.7384,-2.13425 -13.9968,-2.96618 -3.2584,-0.832 -10.0937,-2.15746 -15.1895,-2.94553 -5.0958,-0.788 -11.2288,-1.76014 -13.6288,-2.16014 -2.4,-0.40008 -7.9636,-0.73339 -12.3636,-0.7408 -14.3344,-0.024 -39.499,-2.51848 -48.7273,-4.82989 -9.6205,-2.40975 -38.6346,-14.79302 -45.4546,-19.40015 -10.5322,-7.11491 -17.8487,-14.75374 -22.7961,-23.80058 -5.7318,-10.48109 -7.142,-16.47919 -7.6859,-32.69164 l -0.427,-12.72727 -10.5455,0.10256 c -5.8,0.0564 -19.5455,0.29931 -30.5455,0.53977 -11,0.24046 -20.8269,0.43977 -21.8377,0.44289 -1.7996,0.006 -1.8727,0.22024 -3.5306,10.36933 -0.9311,5.7 -1.9716,11.67272 -2.3123,13.27272 -0.3406,1.6 -1.1365,5.69091 -1.7687,9.09091 -0.6322,3.4 -2.2598,11.25455 -3.6169,17.45455 -3.0154,13.77629 -4.0647,20.61396 -7.3101,47.63636 -3.4092,28.38574 -3.8268,31.34931 -5.8416,41.45454 -1.613,8.09019 -1.6517,8.79368 -0.5311,9.63637 0.8461,0.63622 4.4959,0.90189 12.1608,0.88509 26.6278,-0.0582 134.082,0.78763 182.1734,1.43411 28.9718,0.38945 106.5355,0.73142 172.3636,0.76 65.8282,0.0284 166.0787,0.35476 222.7791,0.72494 95.85845,0.62582 103.24045,0.58749 105.21515,-0.54589 2.0112,-1.15418 2.2715,-1.14342 4.9086,0.2032 2.8949,1.47833 6.184,2.25898 10.261,2.43535 l 2.3855,0.1032 z M 735.12195,779.1491 c 3.0057,-3.62175 -3.7475,-11.4488 -12.3391,-14.3011 -13.0118,-4.31978 -16.7899,-7.3104 -14.2099,-11.24807 1.686,-2.57309 3.8471,-2.7288 9.3144,-0.67091 12.4103,4.67128 23.0733,7.89157 27.2412,8.22713 4.5295,0.36465 4.5454,0.35913 4.5454,-1.57098 0,-3.68487 -5.0997,-7.58335 -19.0616,-14.57171 -13.5574,-6.78589 -15.0062,-8.04538 -13.6067,-11.82858 1.1292,-3.05266 2.9627,-3.32982 11.4144,-1.72538 4.2897,0.81425 10.5812,2.00036 13.9812,2.63563 3.4,0.63535 7.7949,1.48335 9.7663,1.88437 4.2173,0.85796 8.3181,0.26181 8.9159,-1.29608 1.15,-2.99672 -15.503,-14.03149 -21.3085,-14.1197 -1.1555,-0.0175 -3.41,-0.50357 -5.01,-1.07993 -1.6,-0.57644 -3.6604,-1.05302 -4.5786,-1.05898 -2.136,-0.0138 -5.2396,-3.09644 -5.2396,-5.20379 0,-2.4208 2.775,-4.98792 5.3995,-4.99512 1.2302,0 4.3875,0.54502 7.0161,1.21854 6.4228,1.64582 7.2232,1.25142 7.2108,-3.55323 -0.016,-6.08553 -0.4554,-6.88415 -4.9632,-9.01673 -3.5679,-1.68785 -4.9589,-1.92531 -11.0099,-1.87949 -5.6122,0.0429 -8.7885,0.56116 -16.7442,2.73389 -19.5848,5.34873 -20.3323,5.48953 -25.2234,4.7496 -2.4728,-0.37411 -5.9268,-1.31309 -7.6755,-2.08662 l -3.1794,-1.4064 -1.6826,4.07782 c -0.9254,2.24284 -4.2138,11.44145 -7.3076,20.44145 -3.0938,9 -6.6639,18.94604 -7.9336,22.10226 -1.2697,3.15629 -2.181,5.86618 -2.0252,6.02196 0.1558,0.15586 2.1458,0.58647 4.4222,0.95702 6.6107,1.07593 13.1341,4.55658 29.0164,15.48225 3.6895,2.53811 16.5079,7.50277 23.1618,8.97077 2.9348,0.64749 7.136,1.59723 9.336,2.11061 5.6999,1.33004 11.2529,1.32975 12.357,-5e-4 z m -84.3205,-33.09891 c 1.5509,-5.4 4.9821,-15.70909 7.6249,-22.90909 2.6427,-7.2 5.445,-15.21818 6.2272,-17.81818 0.7823,-2.6 1.7137,-5.63033 2.0699,-6.73411 0.7915,-2.4528 0.5774,-2.58364 -8.3831,-5.12351 -3.6335,-1.02992 -11.1608,-3.55935 -16.7273,-5.62096 -5.5665,-2.06161 -15.6845,-5.55567 -22.4845,-7.76459 -12.6972,-4.12459 -22.3898,-7.62218 -31.1955,-11.25697 -2.7576,-1.13825 -7.2606,-2.53802 -10.0068,-3.11061 -2.7461,-0.5726 -7.5263,-2.15348 -10.6226,-3.51306 -3.0963,-1.3596 -7.6164,-3.33222 -10.0447,-4.38363 -2.8935,-1.25283 -6.9037,-2.1881 -11.6364,-2.71386 -9.1646,-1.01811 -11.8173,-2.97027 -8.3276,-6.1284 1.2721,-1.1512 2.4753,-1.25805 10.3637,-0.92031 8.9239,0.38208 15.261,1.91292 24.9154,6.01877 2.5631,1.09004 5.4787,1.20347 25.0909,0.97619 12.205,-0.14144 37.4909,-0.26014 56.1909,-0.26378 l 34.0001,-0.007 -10e-5,-6.628 c 0,-3.64541 0.3424,-8.39086 0.7609,-10.54546 0.4883,-2.51442 0.7531,-22.9879 0.7391,-57.16502 -0.018,-43.61755 0.1709,-54.33723 1.0439,-59.27272 1.6521,-9.34114 1.5087,-10.23903 -1.003,-6.2785 -2.1412,3.3763 -3.3987,4.25326 -6.099,4.25326 -2.1673,0 -4.8965,-2.818 -4.8965,-5.05586 0,-1.04127 -0.4851,-2.58584 -1.078,-3.43237 -1.1534,-1.64662 -18.4258,-12.25034 -19.0074,-11.66879 -0.1908,0.19086 -0.3435,20.92244 -0.3393,46.0702 0.01,35.29468 0.2616,48.46013 1.1211,57.72318 1.7913,19.30538 2.7154,37.91528 2.0403,41.08706 -0.7242,3.40264 -2.7483,4.32382 -3.7202,1.69313 -0.3432,-0.9291 -0.8341,-9.40311 -1.0909,-18.83112 -0.2568,-9.42802 -0.8144,-21.37347 -1.2391,-26.54546 -0.4247,-5.17198 -0.8553,-30.77691 -0.9569,-56.89983 l -0.1848,-47.49622 -2.136,-1.45074 c -6.8908,-4.68001 -14.5446,-7.35331 -23.5906,-8.23963 -2.6,-0.25474 -8.5729,-0.99413 -13.2731,-1.64309 -6.7802,-0.93613 -8.9395,-1.0006 -10.4507,-0.31203 -1.5955,0.72697 -1.8396,0.69795 -1.5032,-0.17875 0.2209,-0.57566 -0.149,-1.51441 -0.822,-2.08611 -3.6584,-3.10762 -6.9386,-3.28626 -38.3683,-2.08955 -29.2448,1.11351 -42.0046,4.15236 -47.9619,11.42252 -2.6489,3.23263 -11.1346,18.11047 -14.5139,25.44701 -6.2892,13.65418 -18.767,49.18163 -20.7534,59.09018 -2.2291,11.11922 -6.8758,24.18433 -18.9261,53.21445 -10.2954,24.80234 -12.2547,49.24868 -5.3789,67.11331 3.8286,9.94742 8.5912,15.89171 18.9497,23.65178 6.9202,5.18429 31.1476,15.7416 43.5473,18.97614 7.0805,1.84699 20.4096,3.09971 39.6363,3.72517 21.6317,0.70363 37.5974,2.50691 51.4041,5.80589 3.5278,0.84291 10.505,2.34916 15.505,3.34734 10.7185,2.13971 20.8289,5.10146 21.5999,6.32757 0.3693,0.5872 0.6331,0.39709 0.8095,-0.58357 0.144,-0.8 1.5307,-5.87272 3.0817,-11.27272 z m -10.9456,-9.82422 c -2.9466,-0.89644 -18.2969,-3.87382 -33.8182,-6.55949 -3.2,-0.55367 -9.2546,-1.36117 -13.4546,-1.7944 -19.8458,-2.04698 -55.8256,-7.20204 -61.8175,-8.85687 -9.6759,-2.67237 -43.7798,-15.15557 -51.2973,-18.77651 -8.1712,-3.93586 -16.4015,-10.82567 -19.7428,-16.52725 -1.8891,-3.22336 -1.9037,-3.36082 -1.4568,-13.7077 0.4192,-9.7044 0.6074,-10.76062 2.6324,-14.77218 3.7221,-7.37334 16.5765,-36.00115 24.206,-53.90865 8.1318,-19.08638 24.1616,-55.09384 28.0058,-62.90909 4.5281,-9.20553 9.1818,-16.36364 10.6384,-16.36364 1.9828,0 1.3103,2.05993 -5.3422,16.36364 -6.9756,14.9985 -16.3255,36.99051 -26.9004,63.27273 -7.9419,19.73815 -9.1685,22.60007 -20.5884,48.03829 -6.2092,13.83095 -6.2216,13.87076 -6.7396,21.6033 l -0.5189,7.74681 2.2482,3.50359 c 2.6616,4.14769 10.0526,9.91865 17.3979,13.58444 2.8986,1.44662 9.9349,4.23178 15.6363,6.18931 5.7014,1.95745 14.0421,4.88749 18.5349,6.5112 4.4928,1.62371 11.2019,3.76618 14.9091,4.76102 5.8164,1.56094 49.2227,8.11701 63.104,9.53127 9.0676,0.92378 40.4001,6.21331 45.1434,7.62102 5.0334,1.49374 7.6848,3.55934 6.9677,5.42814 -0.5235,1.36415 -3.3077,1.37171 -7.7474,0.0211 z m 7.6363,-19.26945 c -1.2,-0.31964 -6.7636,-1.57986 -12.3636,-2.80044 -5.6,-1.22066 -16.5636,-3.85076 -24.3636,-5.84473 -7.8,-1.99396 -18.9273,-4.48029 -24.7273,-5.52509 -5.8,-1.0448 -12.6727,-2.38982 -15.2727,-2.98894 -2.6,-0.59913 -10.6378,-2.0504 -17.8616,-3.22495 -32.0555,-5.21217 -46.7413,-11.88925 -51.5705,-23.44706 -3.1107,-7.44508 0.8805,-27.48384 14.5696,-73.14956 10.1475,-33.85124 12.7046,-40.83465 14.952,-40.83465 0.9457,0 1.365,0.52202 1.365,1.69946 0,1.65274 -7.3526,29.03248 -15.6053,58.11135 -4.6609,16.42318 -9.6754,38.63833 -10.3317,45.77125 -0.4052,4.40437 -0.2633,5.16772 1.53,8.22764 2.3338,3.98249 7.667,7.65432 15.4963,10.66913 7.9683,3.06832 15.1667,4.71494 29.638,6.77969 7.2,1.02729 16.6909,2.51402 21.0909,3.30385 4.4,0.78985 12.0909,2.09814 17.0909,2.9073 5,0.80924 16.9455,3.40924 26.5455,5.77775 9.6,2.3685 21.2181,5.00945 25.8181,5.86865 4.6,0.8592 9.1,2.03076 10,2.60349 2.1178,1.34756 2.1278,4.21738 0.02,5.69375 -1.7534,1.22814 -2.685,1.2904 -6.02,0.40211 z m -21.7418,-68.54269 c -1.2292,-10.09234 -1.9682,-24.79546 -2.6228,-52.18182 -0.4064,-17 -1.252,-38.76364 -1.879,-48.36363 -0.6271,-9.6 -1.197,-25.74191 -1.2665,-35.8709 -0.1185,-17.29241 -0.043,-18.47798 1.247,-19.42636 0.9194,-0.67629 1.7824,-0.79098 2.6118,-0.34709 1.1158,0.59711 1.2838,3.13929 1.6931,25.60818 0.2498,13.71989 1.0048,33.29071 1.6777,43.49071 1.3239,20.06809 1.8493,78.47518 0.7737,86 -0.7057,4.93638 -1.7072,5.4252 -2.235,1.09091 z m -33.1498,0.56654 c -1.0612,-1.27878 -1.0878,-11.35317 -0.1008,-38.20291 0.4338,-11.8 1.1288,-39.2909 1.5445,-61.0909 0.7225,-37.89042 1.632,-59.55631 2.6066,-62.09604 0.5955,-1.55193 2.2564,-1.5004 3.0955,0.096 0.4048,0.77013 0.4297,15.91972 0.063,38.36363 -1.2079,73.94245 -2.6028,115.80322 -4.0516,121.58374 -0.4945,1.97321 -2.077,2.64806 -3.1572,1.34644 z m -22.3589,-1.99687 c -0.4337,-0.54585 -0.9224,-8.78341 -1.1771,-19.8424 -0.2395,-10.4 -0.7923,-27.74545 -1.2284,-38.54545 -0.5696,-14.10868 -0.5721,-25.88061 -0.01,-41.81818 2.0801,-58.84205 2.2729,-61.09091 5.2375,-61.09091 1.4836,0 1.4982,0.18953 1.0557,13.63636 -2.2772,69.19524 -2.2813,88.40819 -0.026,118.72727 0.6397,8.6 0.9897,17.84246 0.7778,20.53881 -0.5453,6.93586 -2.6944,10.83163 -4.6308,8.3945 z m -32.9695,-2.43387 c -0.7765,-0.93572 -0.7122,-2.76981 0.3634,-10.36364 2.4266,-17.13192 2.3093,-27.33916 -0.6368,-55.40853 -4.8698,-46.39655 -8.2593,-67.65729 -12.1869,-76.44116 -1.7979,-4.02099 -2.0839,-5.2624 -1.3721,-5.9557 1.0921,-1.06355 3.9029,1.99706 6.9125,7.52663 1.9685,3.6169 4.823,16.39475 5.84,26.14296 0.2713,2.6 0.9421,7.50909 1.4907,10.90909 0.5486,3.4 1.8422,14.03637 2.8748,23.63637 1.0325,9.6 2.5644,23.01818 3.4042,29.81818 1.689,13.67659 1.5629,25.22572 -0.4358,39.90901 -1.3709,10.07099 -3.4974,13.54829 -6.254,10.22679 z m 505.71995,12.36408 c -0.075,-0.42507 -0.5065,-5.00689 -0.9588,-10.18182 -0.4524,-5.17494 -1.9271,-17.09988 -3.2771,-26.49988 -1.3501,-9.4 -2.6634,-20.52727 -2.9185,-24.72727 -0.255,-4.2 -1.0742,-12.87273 -1.8202,-19.27273 -1.5623,-13.40235 -3.2509,-35.22393 -4.3055,-55.63636 -0.4029,-7.8 -1.2083,-16.96364 -1.7896,-20.36364 -0.5814,-3.4 -1.2788,-8.25616 -1.5498,-10.79147 -0.4572,-4.27811 -0.6047,-4.57609 -2.0502,-4.14296 -5.3746,1.61045 -34.15735,7.23637 -44.83025,8.76259 -20.4854,2.92939 -25.9958,3.89211 -36,6.28946 -5.2,1.24611 -10.6818,2.56022 -12.1818,2.92023 -1.5,0.36002 -2.7273,1.06474 -2.7273,1.56605 0,0.50131 1.3358,4.17051 2.9684,8.15378 5.3977,13.16985 11.6583,34.63428 13.6732,46.87868 0.4277,2.6 1.2961,10.45455 1.9295,17.45455 0.6334,7 2.9571,23.52727 5.1637,36.72727 2.7598,16.50897 4.142,27.00065 4.4284,33.61356 l 0.4164,9.61355 8.0739,0.23442 c 20.2776,0.58876 77.88685,0.14569 77.75555,-0.59801 z m -146.74985,-2.2706 c -1.6258,-8.66619 0.6894,-39.11343 4.7541,-62.52141 2.5259,-14.54605 9.5853,-43.72556 14.4891,-59.88969 1.1528,-3.8 2.6252,-9.03636 3.272,-11.63636 0.6467,-2.6 1.8202,-5.62383 2.6077,-6.71963 l 1.432,-1.99236 -1.7667,-3.46219 c -2.708,-5.30679 -5.9986,-9.46858 -8.5154,-10.77008 -3.2483,-1.67979 -17.2285,-3.96483 -24.2573,-3.96483 -8.4903,0 -21.3489,-1.4007 -24.7656,-2.69773 -12.5224,-4.7538 -11.6658,-4.59099 -23.4425,-4.45538 -9.4268,0.10854 -11.2781,-0.0527 -12.4146,-1.08126 -1.2495,-1.13071 -1.7432,-1.09071 -7.6407,0.61902 -8.5601,2.48164 -25.5416,9.7312 -33.9567,14.49637 -7.5518,4.27629 -14.4586,10.09691 -18.4773,15.57164 l -2.5796,3.51398 -4.7468,0.0809 c -4.5172,0.077 -4.872,-0.0444 -7.3381,-2.51058 -1.4254,-1.42532 -2.6863,-2.47694 -2.8021,-2.33694 -0.714,0.86337 -1.5686,46.64102 -1.0033,53.7428 0.6309,7.92522 0.2695,57.48735 -0.5632,77.24585 -0.3058,7.25436 -0.1837,9.35725 0.5596,9.63554 0.5229,0.19579 29.9144,0.63027 65.3144,0.96551 35.4,0.33525 68.4092,0.66289 73.3537,0.7281 l 8.99,0.11856 z m -123.8389,-1.13837 c -0.3968,-0.5 -0.9767,-2.21819 -1.2886,-3.81819 -0.7799,-4.00046 -0.4745,-80.3503 0.4077,-101.93072 1.1401,-27.88943 2.3398,-37.342 4.7395,-37.342 1.7781,0 2.0111,3.49999 1.1328,17.01804 -0.4704,7.24008 -1.2086,18.72741 -1.6406,25.52741 -0.5294,8.33256 -0.5816,21.96709 -0.1601,41.81818 0.7479,35.22277 0.5285,57.34784 -0.5821,58.68591 -0.9882,1.19075 -1.6876,1.20184 -2.6086,0.0414 z m 72.8899,-0.36364 c -0.295,-0.7 -0.7998,-13.38182 -1.1218,-28.18182 -0.322,-14.8 -0.9638,-39.01818 -1.4262,-53.81818 -1.1714,-37.49631 0.3217,-77.29258 3.0012,-79.99392 0.4723,-0.47607 0.9251,-0.38195 1.3323,0.27693 0.3392,0.54896 0.449,14.61896 0.2438,31.26664 -0.2861,23.21848 -0.097,34.75747 0.814,49.54126 2.0248,32.87725 2.6629,55.42715 1.9138,67.63636 -0.3804,6.2 -0.9043,12.00909 -1.1642,12.90909 -0.5612,1.94296 -2.8306,2.17264 -3.5929,0.36364 z m 27.2482,-9.04535 c -0.9027,-3.33221 0.1368,-15.96097 4.059,-49.31829 2.5269,-21.48998 4.5037,-45.25743 5.8045,-69.78868 0.6248,-11.78379 1.3285,-22.19223 1.5639,-23.12989 0.3078,-1.22677 0.8619,-1.64291 1.9756,-1.48403 1.4351,0.20472 1.5649,0.72368 1.7836,7.12988 0.5835,17.09471 -2.0564,64.82532 -5.3298,96.36363 -3.5061,33.7801 -3.9892,37.46226 -5.2715,40.18554 -1.841,3.90995 -3.5334,3.92539 -4.5853,0.0418 z m -56.8275,-9.10954 c -0.6288,-0.71481 -1.896,-2.77238 -2.816,-4.57238 -1.5052,-2.94478 -1.7353,-4.76674 -2.2959,-18.18182 -0.9001,-21.54111 0.7327,-103.00315 2.2572,-112.60155 0.3384,-2.13085 1.151,-4.41008 1.8059,-5.06493 1.082,-1.08197 1.2949,-1.08643 2.3325,-0.0488 1.0031,1.00311 1.0481,2.31142 0.3699,10.76805 -2.1008,26.19859 -2.5458,74.44631 -1.1007,119.31088 0.1917,5.94868 1.294,9.83505 2.5666,9.04854 0.4961,-0.30658 0.7,0.018 0.5384,0.85698 -0.3514,1.8249 -2.257,2.07759 -3.6579,0.48504 z m 99.7782,21.56162 c 0,-0.42629 -0.3541,-1.43673 -0.7869,-2.24541 -0.4328,-0.80867 -1.582,-5.28716 -2.5539,-9.95219 -2.2575,-10.83538 -6.1743,-23.10194 -6.9398,-21.73391 -0.3105,0.55471 -0.8853,7.527 -1.2773,15.49395 -0.392,7.96695 -1.0381,15.54901 -1.4357,16.84901 l -0.723,2.36364 h 6.8583 c 4.3694,0 6.8583,-0.28128 6.8583,-0.77509 z m 14.2626,-0.86128 c -0.249,-0.9 -0.775,-7.69091 -1.169,-15.09091 -1.3406,-25.17639 -3.3131,-38.16402 -8.6156,-56.72727 -1.5425,-5.4 -3.2434,-12.03883 -3.7798,-14.75296 -0.5364,-2.71413 -1.2003,-4.51413 -1.4753,-4 -1.0034,1.87527 -5.188,22.27814 -6.8991,33.6375 -2.0852,13.84284 -2.0202,12.75183 -0.7601,12.75183 1.9148,0 9.2472,19.7864 11.645,31.42388 0.6352,3.08313 1.155,7.36495 1.155,9.51516 0,2.15019 0.2181,4.12762 0.4848,4.39429 0.2667,0.26667 2.5957,0.48485 5.1757,0.48485 4.5139,0 4.6739,-0.0617 4.2384,-1.63637 z m 18.8842,0 c -0.2626,-0.9 -0.8089,-4.90909 -1.2141,-8.90909 -0.9725,-9.60032 -2.154,-17.59923 -5.6398,-38.18181 -1.592,-9.4 -3.2586,-21.67273 -3.7037,-27.27273 -2.0127,-25.3252 -3.3715,-33.67177 -8.1699,-50.18182 -1.6276,-5.6 -3.1213,-10.75454 -3.3195,-11.45454 -0.6209,-2.19318 -1.4982,-1.39566 -2,1.81818 -0.2654,1.7 -2.1382,10.1126 -4.1618,18.69465 -2.5375,10.76229 -3.4191,15.69044 -2.841,15.88312 2.0979,0.6993 3.0513,3.15216 6.1963,15.94078 1.848,7.51479 3.9859,15.99639 4.7509,18.848 3.5318,13.16539 6.9282,44.18499 6.4621,59.02049 l -0.2335,7.43431 7.1757,-10e-4 c 7.0978,-0.001 7.1705,-0.0193 6.6983,-1.63795 z m -206.943,-0.36363 c 0.012,-0.3 0.1602,-5.12728 0.3289,-10.72728 0.1688,-5.6 0.6395,-12.70037 1.0461,-15.7786 0.4582,-3.46987 0.6115,-19.63822 0.4033,-42.54545 -0.1894,-20.83365 -0.02,-41.70663 0.3877,-47.85776 0.398,-6 0.9341,-15.01607 1.1914,-20.0357 l 0.4677,-9.12661 -2.926,-4.32794 c -1.6094,-2.38036 -3.4304,-5.32426 -4.0467,-6.542 -1.4764,-2.91691 -3.4198,-10.50103 -3.4198,-13.34545 0,-1.24227 -0.3439,-2.25866 -0.7644,-2.25866 -0.4203,0 -1.8862,-1.22453 -3.2572,-2.72118 -2.4218,-2.64354 -2.658,-2.72868 -8.2798,-2.98397 -4.4021,-0.19991 -6.8856,0.0936 -10.379,1.22686 -2.5258,0.81932 -5.9404,1.83592 -7.5881,2.25912 -2.8583,0.73414 -3.05,0.96272 -4.1781,4.9832 -0.6502,2.31757 -2.0256,6.32557 -3.0564,8.90668 -1.529,3.82865 -1.9274,6.22175 -2.1633,12.99437 -0.159,4.5658 -0.6769,10.94761 -1.1508,14.18182 -0.6387,4.3587 -0.6983,13.69052 -0.2305,36.06219 0.7745,37.03472 0.7659,76.62786 -0.019,88.53495 l -0.5867,8.89859 22.8267,0.20306 c 12.5547,0.11168 23.3994,0.28005 24.0994,0.37414 0.7,0.0941 1.2826,-0.0744 1.2947,-0.37438 z m -30.8312,-20.15623 c -8.4958,-3.02864 -11.9404,-13.22327 -7.0654,-20.91038 3.6316,-5.72644 12.1771,-9.47458 18.0165,-7.90219 11.3523,3.05684 15.2571,15.13398 7.7699,24.03188 -4.1684,4.95397 -12.3641,7.04686 -18.721,4.78069 z m 12.4308,-5.22377 c 6.7868,-5.06706 6.8648,-14.2363 0.1518,-17.83653 -7.3902,-3.96343 -16.466,0.97055 -17.1881,9.34417 -0.3682,4.26949 1.5285,7.78157 5.0654,9.37987 3.1814,1.4376 9.4824,0.97045 11.9709,-0.88751 z m -12.6818,-3.66061 c -0.5124,-1.33538 1.5358,-3.14121 3.5629,-3.14121 2.2613,0 1.5818,2.67398 -0.8992,3.53887 -1.8339,0.63928 -2.292,0.57088 -2.6637,-0.39766 z m 9.2421,-3.3299 c 0,-1.72984 2.4765,-3.80088 3.6659,-3.06575 0.9717,0.60053 0.8718,2.78941 -0.175,3.83626 -1.492,1.49197 -3.4909,1.05077 -3.4909,-0.77051 z m -6.4,-5.04767 c -1.4741,-1.47407 -0.9784,-2.5607 1.3837,-3.03312 2.8191,-0.56381 3.5617,-0.11957 3.5617,2.13059 0,1.45948 -0.3622,1.77525 -2.0363,1.77525 -1.12,0 -2.4291,-0.39272 -2.9091,-0.87272 z m -0.9453,-91.48434 c -8.5505,-4.51928 -10.8782,-14.41687 -5.5019,-23.39433 4.3876,-7.32652 14.6285,-10.34502 22.124,-6.52108 11.2242,5.72616 10.9168,22.12759 -0.5435,28.99975 -3.4022,2.04012 -4.5931,2.35924 -8.7012,2.33149 -3.2249,-0.0217 -5.6035,-0.47828 -7.3774,-1.41583 z m 13.1677,-4.37236 c 4.3201,-2.20396 6.5412,-5.96409 6.5412,-11.07366 0,-3.79402 -0.2495,-4.46891 -2.6239,-7.09698 -3.2101,-3.55321 -6.9677,-4.78349 -11.1612,-3.65429 -8.1134,2.18472 -11.8774,10.70785 -7.8393,17.75138 3.008,5.24685 9.3997,6.97305 15.0832,4.07355 z m -6.9744,-2.44034 c -1.0677,-2.78212 1.6441,-6.08353 3.4849,-4.24272 0.7398,0.73975 0.7083,1.29123 -0.1618,2.83443 -1.3023,2.30994 -2.7429,2.92042 -3.3231,1.40829 z m -5.7478,-8.45156 c -0.5168,-0.83619 0.5448,-3.02778 2.0863,-4.30714 1.4401,-1.19519 4.0862,0.17135 4.0862,2.11029 0,2.2701 -5.0225,4.05765 -6.1725,2.19685 z m 10.5939,-0.30911 c -0.4903,-0.5907 -0.6438,-1.83373 -0.3641,-2.94806 0.3611,-1.43868 0.8756,-1.87079 2.0313,-1.70592 1.8015,0.25698 2.4876,3.01382 1.1509,4.62445 -1.0935,1.31754 -1.7435,1.32435 -2.8181,0.0295 z m -290.1341,141.65048 9.9236,-0.48481 1.9243,-8.07217 c 1.0584,-4.43969 3.2378,-11.18125 4.8433,-14.98125 15.2592,-36.11755 19.3622,-46.9764 22.053,-58.36461 0.9734,-4.11936 2.4871,-9.28161 3.3639,-11.47166 0.8767,-2.19005 2.6584,-7.091 3.9592,-10.891 2.2764,-6.65006 12.5173,-31.68488 14.6573,-35.83125 0.9306,-1.80318 0.9109,-2.06221 -0.1895,-2.48446 -1.4368,-0.55136 -23.1266,1.02206 -27.9133,2.02488 -3.1548,0.66093 -18.9393,1.5435 -45.9649,2.57006 -10.2193,0.38818 -12.9571,0.70542 -13.2768,1.53844 -1.4032,3.65686 -4.3224,19.11907 -6.5563,34.72779 -2.2827,15.95006 -6.1992,36.98852 -9.504,51.05381 -1.0897,4.63795 -3.3022,20.56002 -5.0834,36.58255 -0.5558,5 -1.3511,10.2342 -1.7672,11.63156 -0.4161,1.39736 -0.7565,2.61756 -0.7565,2.71157 0,0.30651 27.8346,0.66778 34.1818,0.44364 3.4,-0.12006 10.6475,-0.43645 16.1055,-0.70309 z M 95.492154,538.21305 c 18.408796,-7.91785 29.919796,-12.24921 49.532196,-18.63814 28.4526,-9.26864 38.8313,-12.37875 51.1951,-15.34117 51.3242,-12.2975 59.7538,-14.69341 89.2351,-25.36306 5.2373,-1.89545 6.7853,-1.88058 9.0813,0.0873 1.0764,0.92258 1.7397,0.85841 5.4545,-0.52771 4.5136,-1.68418 10.2133,-4.99389 10.6709,-6.1964 0.1526,-0.40101 6e-4,-2.69275 -0.3378,-5.09275 -3.1152,-22.09847 -6.032,-46.22144 -7.5625,-62.54545 -2.3367,-24.92254 -7.5871,-57.49308 -14.2067,-88.12996 -6.8337,-31.62806 -8.3304,-39.76589 -10.1567,-55.22427 -0.8454,-7.15517 -1.6931,-14.05734 -1.884,-15.33816 l -0.3469,-2.32877 -3.7918,1.37247 c -2.0854,0.75485 -14.2645,3.71623 -27.0645,6.58084 -26.5889,5.95055 -93.6072,22.54927 -128,31.70233 -12.8,3.40651 -33.254496,8.62344 -45.454496,11.59318 -12.2,2.96974 -25.4868,6.4227 -29.5262,7.67325 l -7.3443,2.27371 0.6366,3.36724 c 0.3501,1.85198 0.9458,8.76724 1.3237,15.36724 0.3779,6.6 1.3708,16.41818 2.2066,21.81818 0.8357,5.4 2.1308,14.4 2.878,20 0.7472,5.6 1.8857,12.41645 2.5302,15.14766 0.6444,2.73122 1.7947,10.7494 2.5562,17.81818 2.3872,22.16048 5.1504,42.36507 6.9296,50.67052 6.0282,28.13982 10.6288,45.27231 21.5183,80.13423 l 4.5853,14.67968 2.2166,-0.43401 c 1.2192,-0.23871 7.1257,-2.54547 13.1257,-5.12614 z M 136.34835,493.8951 c -0.581,-0.94004 3.2492,-12.03093 7.8579,-22.754 2.3209,-5.4 5.3399,-12.59999 6.709,-15.99999 5.4345,-13.49627 16.5828,-32.96082 20.2572,-35.36836 1.8648,-1.22185 1.9927,-1.22055 2.9068,0.0295 1.2236,1.67343 1.3378,1.39142 -8.3353,20.57939 -17.4457,34.60597 -27.3825,53.5884 -28.1851,53.8424 -0.4633,0.14663 -1.0081,-10e-4 -1.2105,-0.32891 z m 37.8272,-10.50224 c -1.0227,-0.57235 -1.2275,-1.87066 -1.2211,-7.74244 0.01,-7.29911 2.434,-25.42376 3.5528,-26.54255 0.3495,-0.34946 1.4095,-0.52584 2.3556,-0.39197 1.3119,0.18561 1.7706,0.76134 1.9321,2.42521 0.1681,1.7308 -3.4404,21.21322 -5.4218,29.27272 -0.2914,1.18546 -0.08,1.63637 0.7675,1.63637 0.6433,0 1.1697,0.29226 1.1697,0.64946 0,1.04212 -1.8001,1.44017 -3.1348,0.6932 z m 25.3166,-9.076 c -3.9115,-0.58348 -6.0408,-1.8068 -6.9452,-3.99023 -0.797,-1.92421 -0.5515,-3.05541 2.3925,-11.02353 3.148,-8.52045 3.2255,-8.91789 1.9167,-9.83461 -2.1633,-1.51521 -1.6872,-4.59703 1.2382,-8.01466 2.6541,-3.10077 5.0116,-3.86257 6.7069,-2.16727 1.72,1.71996 0.8485,6.52551 -3.1272,17.24508 -2.2,5.9317 -4,11.29496 -4,11.91835 0,1.28911 4.3167,2.36599 13.0909,3.26576 5.1697,0.53014 5.3596,0.61233 3.6363,1.57423 -1.8228,1.01747 -10.8185,1.63707 -14.9091,1.02688 z m 18.3234,-9.80202 c -3.1181,-1.81393 -2.8914,-8.49008 0.5526,-16.27773 1.7417,-3.93824 1.4569,-6.18691 -0.7836,-6.18691 -1.5579,0 -0.9395,-2.46743 0.6974,-2.78267 0.7251,-0.13965 1.8832,0.25717 2.5735,0.88183 1.1435,1.03491 1.3641,1.00828 2.4842,-0.29988 1.6261,-1.89916 4.1525,-1.90267 4.1525,-0.006 0,0.78643 -0.5264,2.5339 -1.1699,3.88328 -1.0751,2.25446 -1.0751,2.63685 0,4.71582 2.4252,4.68987 0.7091,11.93965 -3.6351,15.35682 -2.1669,1.70446 -2.9688,1.82219 -4.8716,0.71521 z m 4.9833,-7.25756 c 0.6392,-1.2361 0.9421,-2.79065 0.6731,-3.45455 -0.4302,-1.06175 -0.5548,-1.03196 -1.0354,0.24747 -0.8893,2.36804 -1.545,5.45454 -1.1587,5.45454 0.1973,0 0.8818,-1.01136 1.521,-2.24746 z m -124.231596,5.95999 c -1.5087,-0.31878 -3.5805,-1.36633 -4.6041,-2.32789 -2.3393,-2.19747 -2.1327,-4.95855 1.0283,-13.74827 1.2228,-3.4 2.449,-7.49091 2.7248,-9.09091 l 0.5016,-2.90909 -2.5518,2.42518 c -3.3027,3.13866 -5.8888,2.99928 -6.2132,-0.33484 -0.3124,-3.21125 4.6701,-7.54489 8.6745,-7.54489 5.958296,0 6.684696,6.53534 2.083496,18.74535 -2.849296,7.56133 -2.885796,7.77437 -1.558496,9.10166 2.657796,2.65781 16.417796,3.20448 20.256496,0.80477 0.8791,-0.54958 1.769,-0.72318 1.9776,-0.38577 0.5658,0.91553 -2.4974,3.41301 -5.3943,4.39803 -3.2482,1.1045 -13.3509,1.62184 -16.924896,0.86667 z m 20.561296,-13.89435 c -1.6052,-1.60519 -1.9147,-5.24044 -0.7149,-8.39624 0.6518,-1.71415 0.4356,-2.28213 -1.8181,-4.77671 -3.8919,-4.30785 -3.2109,-5.9551 1.4329,-3.46615 l 2.7696,1.48438 1.6845,-2.059 c 0.9266,-1.13245 1.6964,-2.27777 1.7108,-2.54514 0.053,-0.98716 4.9874,-3.51386 6.8621,-3.51386 2.8174,0 3.3096,2.05991 0.9099,3.80802 -1.0696,0.77915 -2.8099,2.89281 -3.8672,4.69702 -1.8479,3.15318 -1.8758,3.35938 -0.7187,5.31806 1.8865,3.19365 1.5176,5.64479 -1.2691,8.43144 -2.816,2.81606 -4.8825,3.11743 -6.9818,1.01818 z m 21.6364,0.66901 c -2.2206,-1.29336 -3.4546,-4.7352 -3.4546,-9.63557 0,-4.50893 -0.078,-4.70728 -2.1818,-5.57889 -1.2,-0.49706 -2.1818,-1.17979 -2.1818,-1.51719 0,-0.86152 2.5322,-2.11917 4.2668,-2.11917 0.7994,0 1.6525,-0.62756 1.896,-1.39458 1.3348,-4.20574 5.5954,-6.54203 7.5768,-4.1547 0.6328,0.76255 0.4226,1.86847 -0.8965,4.71554 l -1.7232,3.71937 1.8258,3.68935 c 4.0157,8.11414 0.8284,15.74484 -5.1275,12.27584 z m -61.454596,-45.5143 c -1.6794,-0.67767 -0.9314,-3.70588 2.6942,-10.90705 5.1236,-10.17646 30.059896,-49.38645 40.397896,-63.52204 2.9913,-4.09004 7.1043,-10.34706 9.1401,-13.90449 2.0357,-3.55743 4.3519,-6.81621 5.147,-7.24173 2.5671,-1.37387 4.5732,0.77926 6.612,7.09648 2.9769,9.22409 14.903,43.37256 19.1311,54.77867 2.1499,5.8 4.2623,11.93636 4.6941,13.63636 0.4372,1.72112 1.22,3.09091 1.7664,3.09091 0.5396,0 3.0681,-0.97659 5.6188,-2.1702 2.5507,-1.19361 8.3703,-3.46804 12.9324,-5.05428 l 8.2948,-2.88408 7.1418,3.6943 7.1417,3.6943 5.6938,-0.49668 c 5.2592,-0.45877 21.7045,-3.52237 22.2613,-4.14707 0.1337,-0.14996 3.756,-8.78174 8.0495,-19.18174 12.0932,-29.29258 23.4825,-55.2305 25.3013,-57.62108 0.8093,-1.0638 3.438,0.0576 3.4336,1.46485 0,1.06099 -7.4619,21.9671 -11.4723,32.15623 -8.7829,22.31457 -19.1711,47.32155 -20.0039,48.15427 -0.5684,0.56844 -4.9355,1.38806 -10.7395,2.01561 -5.3798,0.58168 -11.2543,1.3808 -13.0543,1.77582 -7.0201,1.54063 -9.2966,1.09185 -16.3478,-3.22286 -3.5912,-2.19756 -6.864,-3.99531 -7.2727,-3.99499 -0.4087,3.1e-4 -2.8575,1.00086 -5.4419,2.22344 -4.0359,1.90928 -12.9178,5.24563 -21.7553,8.17203 -4.4883,1.48621 -5.0275,0.34765 -16.806,-35.48696 -6.3898,-19.44007 -9.6523,-29.00592 -12.5082,-36.6744 -0.6386,-1.71494 -0.7385,-1.65268 -3.4993,2.18182 -1.5631,2.17092 -4.7205,7.38349 -7.0164,11.58349 -7.771,14.21561 -33.561596,54.84453 -40.164496,63.27273 -5.749,7.33817 -7.1099,8.43019 -9.3697,7.51834 z m -40.6109,117.86616 c 6.8915,-0.72902 13.2068,-0.98549 16.9746,-0.68933 3.3,0.25938 6,0.23987 6,-0.0433 0,-0.28324 -0.9626,-3.98212 -2.139,-8.21976 -15.6629,-56.41965 -18.2494,-69.11344 -22.242,-109.15938 -1.7048,-17.10014 -4.0132,-34.01552 -5.2971,-38.81613 -0.5142,-1.92237 -0.6863,-1.78724 -6.0914,4.78256 -3.0593,3.71846 -7.7577,9.54266 -10.441,12.94266 -2.6833,3.4 -5.6563,6.84865 -6.6068,7.66368 -2.0494,1.75732 -2.1062,3.08296 -0.6378,14.88177 0.5724,4.6 1.5363,12.94546 2.142,18.54546 0.6056,5.59999 1.4549,13.45454 1.8874,17.45454 0.9967,9.21931 3.3028,22.29621 4.6812,26.54545 1.2046,3.71346 2.8598,14.13065 4.4489,28 2.1936,19.14515 3.0969,26.91348 3.1501,27.09091 0.1144,0.38151 3.5575,0.14362 14.1709,-0.97913 z M 770.48485,503.32292 c 4.872,-4.79793 8.6091,-7.62778 15.1891,-11.50159 10.3702,-6.10517 25.2974,-13.24513 33.636,-16.08878 4.5453,-1.55002 5.9998,-2.36449 6,-3.35989 3e-4,-0.72264 -1.1058,-3.99537 -2.4578,-7.27273 -1.352,-3.27735 -2.6848,-7.31955 -2.9617,-8.98266 -1.0268,-6.16675 -0.3634,-6.07533 -18.3259,-2.52555 -24.272,4.79668 -54.4309,12.89085 -57.1913,15.3492 -0.8739,0.77828 2.973,18.77832 4.9373,23.10254 1.0509,2.31347 4.2494,6.5054 8.1383,10.66591 3.5238,3.76996 6.4446,6.88208 6.4905,6.91583 0.046,0.0337 2.9914,-2.80228 6.5455,-6.30228 z m -87.0822,-1.58937 c 0.8492,-1.97415 1.5441,-3.77828 1.5441,-4.00917 0,-0.2309 1.7534,-4.5884 3.8966,-9.68336 5.2975,-12.59402 5.2289,-12.31963 3.2247,-12.90957 -6.0836,-1.79065 -20.3327,-7.22937 -31.485,-12.01739 -7.2,-3.0912 -14.4,-6.03535 -16,-6.54258 -3.2619,-1.03406 -15.9403,-8.12717 -18.1818,-10.17208 -1.6372,-1.49364 -0.8012,-2.31053 -7.83,7.6508 -3.7434,5.30517 -10.7154,16.76325 -10.7154,17.61013 0,0.73316 7.7917,2.11538 17.8182,3.16087 8.6502,0.90199 13.505,2.18076 20.3636,5.36385 5.3271,2.47234 24.0378,15.52928 30.9091,21.56944 2.2,1.93389 4.2051,3.52793 4.4559,3.5423 0.2507,0.0144 1.1507,-1.58908 2,-3.56324 z m 253.7662,-8.68547 c 6.8843,-2.15756 16.7748,-4.56539 24.2478,-5.90307 46.18555,-8.26735 54.81265,-10.21177 62.89135,-14.17484 6.9193,-3.39427 8.8273,-5.27763 9.4912,-9.36863 0.72,-4.43726 -0.929,-7.96108 -6.8589,-14.6567 -7.6103,-8.59309 -11.2713,-13.45531 -12.9503,-17.19967 -0.7738,-1.72569 -1.942,-3.67545 -2.5961,-4.3328 -1.829,-1.83806 -4.2993,-9.13563 -4.7533,-14.04145 -0.2925,-3.15963 0.1278,-7.19798 1.4808,-14.22981 3.0293,-15.74355 3.2892,-17.3293 4.4684,-27.27273 2.4942,-21.0306 2.1734,-37.73786 -1.0823,-56.36363 -6.86,-39.24692 -7.5473,-44.97823 -7.5436,-62.90909 0,-14.37757 1.3156,-25.21997 4.9925,-41.23549 3.1244,-13.60899 4.1784,-17.13194 14.5359,-48.58269 18.9675,-57.59479 22.3293,-68.12505 24.1073,-75.51265 4.398,-18.273305 2.3985,-34.025315 -4.6957,-36.993082 -1.4764,-0.617644 -3.339,-1.096182 -4.139,-1.063418 -30.1256,1.233832 -29.0234,1.071992 -50.06015,7.351003 -18.2428,5.445135 -26.5332,6.926058 -38.3035,6.842204 -9.1638,-0.06531 -11.539,-0.419157 -35.6363,-5.309026 -30.3886,-6.166494 -45.1504,-9.529112 -65.4421,-14.907097 -8.1931,-2.171455 -14.9705,-3.874216 -15.0608,-3.783912 -0.09,0.0903 2.195,1.939337 5.0784,4.108966 8.2493,6.207149 27.8288,26.233197 34.8362,35.630657 17.8706,23.966015 29.4417,48.152475 36.1856,75.636785 1.7885,7.28885 4.714,25.31512 5.2976,32.64258 l 0.196,2.4612 7.6363,0.12782 c 8.8587,0.14829 12.4368,1.01626 16.589,4.02411 4.0345,2.92261 5.1558,4.83879 5.7977,9.90818 1.2243,9.6688 -1.7091,23.8016 -7.3059,35.19931 -5.4246,11.04714 -11.9642,15.61676 -23.7939,16.62652 l -5.4405,0.46439 -2.6438,8 c -11.1022,33.59454 -29.0494,61.36315 -55.8717,86.4471 -11.7549,10.99301 -28.5609,22.93335 -43.0565,30.59067 l -7.7255,4.08106 -0.4892,8.53149 c -0.5385,9.38988 0.202,18.16983 2.3755,28.16786 1.6519,7.5982 2.9869,11.02385 6.1736,15.84115 2.0732,3.13414 2.5157,3.43872 4.4821,3.08464 1.2,-0.21608 4.3979,-0.59816 7.1063,-0.84907 4.1312,-0.3827 5.1563,-0.24638 6.3636,0.84627 1.5032,1.36037 1.9704,5.32565 0.7737,6.56792 -0.8297,0.86138 1.6542,11.10838 3.6329,14.98711 0.783,1.53453 1.6291,4.29022 1.8804,6.12374 0.3513,2.56325 0.838,3.47861 2.1061,3.96071 0.907,0.34486 2.0421,1.71383 2.5225,3.04217 l 0.8733,2.41514 5.3491,-0.27011 c 6.3516,-0.32074 13.4852,0.80349 18.2833,2.88135 4.4285,1.91783 9.8536,2.68634 25.1599,3.56415 20.1839,1.15753 29.3521,3.81056 34.7204,10.0472 1.3757,1.59824 2.8807,2.79192 3.3444,2.65263 0.4637,-0.13929 6.0751,-1.893 12.4699,-3.89712 z m 42.6869,-65.44668 c -1.6,-0.72925 -5.074,-3.0948 -7.7202,-5.25674 -2.6461,-2.16196 -8.2097,-6.7057 -12.3636,-10.09722 -10.4662,-8.54534 -25.3707,-22.47774 -25.3707,-23.71601 0,-1.3514 2.4411,-1.30605 5.1519,0.0957 4.0544,2.09662 21.3767,13.59812 25.0139,16.60849 1.9911,1.648 6.2064,5.3668 9.3672,8.264 3.1609,2.89719 7.8803,6.49719 10.4877,8 5.4956,3.16746 6.71,4.61201 5.3026,6.30778 -1.296,1.56152 -6.2162,1.45881 -9.8688,-0.20602 z m 21.27135,-297.24959 c -1.67015,-1.67014 -0.3242,-3.16584 4.7287,-5.25496 7.5614,-3.12622 10.6613,-3.91654 14.3071,-3.64756 3.954,0.29171 4.3907,1.26601 1.5191,3.38907 -3.7156,2.74713 -19.1746,6.8937 -20.5549,5.51345 z M 985.28275,115.4532 c -0.9553,-1.78494 -0.188,-4.45631 2.3548,-8.1984 2.7393,-4.03126 18.17895,-21.50017 23.76725,-26.89108 4.2099,-4.061265 5.5062,-4.917205 7.1595,-4.727265 4.6554,0.53486 2.5825,4.377745 -10.3248,19.141025 -2.448,2.8 -6.4364,7.54545 -8.86315,10.54545 -5.1665,6.38703 -10.6728,11.63637 -12.206,11.63637 -0.5949,0 -1.4443,-0.67775 -1.8876,-1.5061 z m -275.133,354.597 c 1.5224,-0.63606 4.854,-1.09091 7.9906,-1.09091 h 5.3795 l -0.4409,-2 c -0.2426,-1.1 -0.9831,-3.8 -1.6455,-6 -0.9349,-3.10453 -1.1864,-6.76783 -1.1235,-16.36364 0.093,-14.19897 1.3923,-21.38694 5.9773,-33.06829 l 2.7207,-6.93171 -15.3033,-0.0254 c -22.0893,-0.0367 -42.7289,-3.09788 -60.9463,-9.03924 -4.8594,-1.58481 -8.9563,-2.76037 -9.1043,-2.61235 -0.148,0.14802 0.3012,1.36317 0.9982,2.70034 3.7168,7.13021 0.2063,30.10926 -7.0831,46.36418 -1.1494,2.56313 -2.0051,4.73344 -1.9016,4.8229 1.0911,0.94273 9.6869,4.74546 12.2066,5.40009 1.7899,0.46501 7.5089,2.12621 12.7089,3.69154 5.2,1.56533 15.1819,4.51008 22.1819,6.5439 7,2.03381 13.2198,3.85861 13.8218,4.05509 0.602,0.19649 1.7924,-0.29289 2.6453,-1.08752 2.4305,-2.26435 3.3451,-11.06481 2.9239,-28.13472 -0.3935,-15.94504 -1.0193,-21.29619 -2.9085,-24.86717 -1.5386,-2.90832 -0.5826,-5.4888 1.8999,-5.12847 2.8339,0.4113 5.4426,5.41539 7.132,13.6805 1.3994,6.84702 1.5234,9.25262 1.1988,23.27272 -0.2597,11.21691 -0.6892,16.76693 -1.5196,19.63637 -0.6366,2.2 -1.3675,4.73636 -1.624,5.63636 -0.5555,1.94857 0.1989,2.05644 3.8152,0.54545 z m 22.797,-1.12397 c 0,-2.9794 3.0576,-6.08806 5.4079,-5.49817 1.0055,0.25234 2.0277,0.0294 2.5057,-0.54645 0.444,-0.53499 4.6541,-2.48421 9.3559,-4.33162 8.1721,-3.21095 18.9415,-6.29319 40.0137,-11.45208 l 9.647,-2.36175 -1.1555,-1.76337 c -4.6,-7.02048 -7.9483,-25.43079 -7.3764,-40.55896 0.1966,-5.2 0.7111,-10.35454 1.1433,-11.45454 0.4323,-1.1 0.5112,-2 0.1754,-2 -0.3359,0 -4.0096,1.27616 -8.1639,2.8359 -13.5147,5.07422 -29.828,9.27056 -43.7093,11.24351 -6.9371,0.98598 -7.1724,1.23771 -10.7531,11.50473 -3.0675,8.79589 -3.8624,15.2624 -3.4707,28.23404 0.3043,10.07993 0.6022,12.17662 2.8147,19.81511 2.4772,8.55223 3.5653,10.48515 3.5653,6.33365 z m 437.37275,-21.96694 c 0.2127,-2.1 0.5747,-7.41818 0.8046,-11.81818 0.386,-7.3875 1.3176,-15.11109 2.3026,-19.09091 0.3881,-1.56801 0.2118,-1.63628 -4.2193,-1.63433 l -4.6243,0.002 -0.027,17.47176 -0.028,17.47176 2.2091,0.64243 c 1.215,0.35333 2.431,0.67194 2.7022,0.70801 0.2713,0.0361 0.6671,-1.65258 0.8797,-3.75258 z m 58.2506,-37.45455 c -4.7173,-11.27866 -5.9212,-30.67765 -2.7871,-44.90909 1.1236,-5.10203 2.402,-7.97168 9.8821,-22.18181 5.5485,-10.54087 8.8818,-19.2668 11.8273,-30.96153 3.9296,-15.60233 4.4825,-22.46529 3.0543,-37.90661 -0.6588,-7.12252 -1.3696,-16.50948 -1.5794,-20.8599 -0.3012,-6.24228 -0.8518,-9.27927 -2.6118,-14.40544 -4.5913,-13.3718 -4.4374,-16.61966 1.5754,-33.23686 3.995,-11.04091 6.507,-16.27586 9.174,-19.11831 l 1.8233,-1.9432 -3.1725,-0.39035 c -11.9753,-1.47346 -15.8589,-2.29681 -24.2635,-5.14397 -5.2,-1.76157 -11.6201,-4.17477 -14.2669,-5.36268 l -4.8122,-2.15983 -3.8611,4.38638 c -5.4351,6.17456 -12.7166,9.67186 -19.9689,9.59098 -5.8677,-0.0654 -15.3685,-2.49711 -19.6364,-5.02582 -3.2581,-1.93043 -6.7361,-5.00188 -8.4517,-7.46362 l -1.1409,-1.63711 -8.9631,2.94324 c -12.8761,4.22815 -23.4389,5.9078 -31.6921,5.03956 -3.5637,-0.3749 -7.4976,-0.97908 -8.742,-1.34262 l -2.2625,-0.66097 2.4739,4.10206 c 1.3606,2.25613 2.9314,5.73842 3.4906,7.73842 1.441,5.15359 2.1247,23.39558 1.161,30.97541 -1.0559,8.30481 -6.2846,25.72256 -12.4244,41.38822 -7.9949,20.39892 -8.9267,24.08352 -9.0123,35.63637 -0.083,11.21226 0.3957,13.30407 6.2404,27.25617 6.4018,15.2822 8.1076,24.5571 9.6858,52.66654 0.6152,10.95749 0.9489,21.02112 0.7415,22.36363 -0.2072,1.34251 -0.5479,3.5463 -0.7568,4.89731 -0.3175,2.05287 -0.1293,2.5219 1.1454,2.85523 1.2933,0.33823 1.4024,0.62812 0.7178,1.90726 -1.0399,1.94315 -1.2747,1.95711 10.7511,-0.63922 16.0653,-3.46846 17.682,-3.64619 43.1115,-4.73968 24.1959,-1.04044 42.9825,-0.66101 48.2905,0.97533 3.7725,1.16302 12.9163,5.08281 13.7114,5.87791 1.1985,1.19849 2.1342,0.88945 1.5483,-0.5114 z m -86.8629,-59.41451 c -1.29,-1.55439 -0.6455,-4.07287 1.4391,-5.62295 1.0098,-0.75086 5.5916,-2.73056 10.1818,-4.39932 l 8.3459,-3.03412 18.9091,0.1976 c 19.455,0.20331 32.4065,1.28168 32.8858,2.73813 0.6745,2.05011 -15.0185,3.91896 -35.7949,4.26271 -14.1788,0.2346 -15.7155,0.3929 -21.4545,2.21012 -3.4,1.07658 -7.3961,2.57421 -8.8802,3.32807 -3.2385,1.64503 -4.474,1.71518 -5.6321,0.31976 z m -4.5014,-54.52458 c -1.0839,-2.37891 1.055,-6.73647 4.4004,-8.96479 11.8943,-7.92256 45.6279,-8.95105 74.4314,-2.26932 3.5,0.81192 6.3637,1.7334 6.3637,2.04774 0,1.14394 -5.3989,1.39996 -13.6961,0.64947 -11.5892,-1.04827 -48.0969,-0.18773 -53.7667,1.26736 -6.363,1.63301 -11.6712,4.46713 -12.9316,6.90437 -1.3545,2.61934 -3.693,2.7972 -4.8011,0.36517 z m 1.1407,-58.1231 c -0.8084,-2.10676 0.05,-3.75371 2.6098,-5.0063 3.208,-1.56987 15.8498,-3.02471 20.8546,-2.39997 4.736,0.59118 28.557,-0.88856 34.1935,-2.12407 2.3183,-0.50816 7.6958,-1.83443 11.95,-2.94727 8.4985,-2.22309 10.8509,-2.09368 12.6798,0.69756 1.3007,1.98506 0.9743,3.71391 -1.2302,6.51648 -1.8129,2.30468 -3.0391,1.81247 -2.0388,-0.81841 0.4305,-1.13232 0.4598,-2.17753 0.072,-2.56539 -0.3879,-0.38786 -5.1088,0.84972 -11.5873,3.03757 -9.8181,3.31563 -11.9603,3.77411 -21.0089,4.4964 -5.5418,0.44236 -15.3124,0.63981 -21.7124,0.43878 -10.4241,-0.32744 -17.6051,0.10731 -22.6383,1.37056 -1.1666,0.29281 -1.8493,0.0711 -2.1437,-0.69594 z M 728.29565,397.67378 c 56.8461,-4.48581 108.014,-32.23057 141.0647,-76.48948 13.0346,-17.45471 22.5718,-35.8543 30.0859,-58.04319 3.0756,-9.08183 4.0841,-10.89416 9.1058,-16.36363 l 2.6709,-2.9091 -0.4101,4.64497 -0.4101,4.64497 4.5447,-0.4164 c 6.2962,-0.57687 9.4506,-1.63428 13.0718,-4.3818 3.3354,-2.53069 8.1987,-10.26955 10.8208,-17.21901 4.071,-10.78958 5.5266,-25.53118 3.0146,-30.53096 -2.5369,-5.04952 -7.7895,-7.24277 -18.4451,-7.70182 l -6.9917,-0.30121 -8.8489,4.373 c -12.8666,6.35843 -17.6654,7.38924 -26.6704,5.72903 -6.7213,-1.23915 -6.7651,-1.7101 -0.32,-3.43512 14.0415,-3.75817 31.1815,-14.50672 27.9485,-17.52657 -0.3866,-0.36104 -3.1997,0.83486 -6.6332,2.81989 -8.0511,4.65461 -16.2498,7.30413 -22.5581,7.2899 -7.1663,-0.0161 -7.7898,-0.82305 -2.6527,-3.4335 12.1182,-6.15803 20.8373,-12.51016 25.3915,-18.49856 4.6574,-6.12416 4.4307,-8.54882 -0.3699,-3.95563 -1.4168,1.35566 -5.2858,4.0236 -8.5975,5.92879 -5.3279,3.06498 -6.6263,3.50061 -11.2727,3.78215 -2.8883,0.17499 -6.0391,0.0172 -7.002,-0.35075 -1.686,-0.64422 -1.5964,-0.77427 2.4248,-3.51969 10.9196,-7.45521 18.3511,-14.50175 20.3117,-19.25947 0.7314,-1.77521 1.8382,-4.28376 2.4594,-5.57456 1.078,-2.24012 1.0198,-2.65346 -1.281,-9.08516 -9.9878,-27.92186 -24.0862,-50.63185 -44.3136,-71.381421 -17.332,-17.779483 -32.0509,-28.477829 -54.2136,-39.404874 -7.8963,-3.893241 -18.0376,-8.226681 -23.6622,-10.111171 -9.5574,-3.202078 -27.1033,-7.6443828 -30.2622,-7.6618398 l -1.5602,-0.0086 1.3013,4.1818178 c 3.4087,10.95464 3.4723,17.467192 0.3537,36.173024 -3.4528,20.710519 -9.9552,35.281514 -15.7446,35.281514 -1.5893,0 -2.3872,-1.25647 -1.521,-2.39549 1.0085,-1.32631 3.5535,-8.892815 5.1874,-15.422685 5.0097,-20.021426 5.6293,-37.860063 1.8523,-53.331707 -0.6512,-2.667561 -1.7042,-5.2592008 -2.34,-5.7592008 -1.1685,-0.919022 -11.0597,-1.322552 -11.0597,-0.451204 0,0.251838 0.9,4.2609288 2,8.9090908 1.7643,7.455572 1.9817,9.693557 1.8452,18.996657 -0.2496,17.005083 -2.7698,33.350004 -6.594,42.765244 -2.6907,6.624525 -8.9408,13.234745 -12.5139,13.234745 h -2.464 l 1.9107,-2 c 2.6475,-2.77108 6.0505,-10.345585 7.7602,-17.272715 1.9283,-7.813035 2.7205,-15.941311 2.8705,-29.454547 0.1098,-9.880316 -0.1338,-12.537253 -1.9718,-21.510126 -2.6279,-12.8284768 -3.3371,-14.4143738 -6.585,-14.7252748 -1.3526,-0.129472 -3.1963,-0.05042 -4.0971,0.17568 -1.6068,0.403272 -1.6196,0.49065 -0.6736,4.5990388 3.3852,14.702628 3.8685,21.999475 2.469,37.278864 -1.0026,10.946618 -3.1574,21.463845 -5.8034,28.325205 -3.7304,9.673075 -14.5107,24.038425 -18.0394,24.038425 -0.8624,0 -1.568,-0.20265 -1.568,-0.45032 0,-0.24767 1.1591,-2.35845 2.5758,-4.69059 8.3075,-13.67551 11.8264,-27.524405 13.1076,-51.586356 0.4032,-7.570158 0.2199,-10.643054 -1.0955,-18.369492 -1.5714,-9.230297 -3.4044,-17.2349438 -4.1078,-17.9383108 -0.2028,-0.202745 -4.8528,0.341107 -10.3335,1.208561 -5.4806,0.8674528 -11.4375,1.7716408 -13.2375,2.0093048 -4.4748,0.590834 -17.1624,4.335259 -25.0909,7.404939 -17.4848,6.769612 -38.6641,19.037091 -53.1267,30.772052 -23.4164,19.000127 -44.9554,47.914962 -57.4287,77.094752 -3.7616,8.79956 -8.3537,22.84167 -8.3537,25.54424 0,7.02833 7.9307,14.42104 24.8541,23.16823 3.0698,1.58665 5.7728,3.19451 6.0067,3.57302 0.8308,1.34429 -4.7876,2.43701 -10.7699,2.09461 -4.9915,-0.28568 -6.9044,-0.80333 -12.3193,-3.33366 -3.5256,-1.64751 -7.3961,-3.82512 -8.6012,-4.83914 -2.338,-1.96725 -3.534,-2.32771 -3.534,-1.06505 0,1.56742 6.2987,8.20904 10.49,11.06109 4.9269,3.35262 22.1616,11.73604 25.6834,12.49315 6.5686,1.41207 0.4548,3.65622 -8.4702,3.10911 -6.9363,-0.42519 -15.376,-2.83924 -23.9338,-6.84585 -2.9522,-1.38218 -5.5599,-2.3208 -5.7948,-2.08584 -0.235,0.23496 -0.1209,1.32081 0.2536,2.41301 0.5343,1.55837 2.4029,2.87436 8.6809,6.11384 9.1514,4.72219 15.4078,6.90941 24.7272,8.64459 l 6.5455,1.21869 -2.5455,1.10387 c -4.0073,1.73784 -12.751,2.93306 -17.2996,2.36475 -2.247,-0.28075 -6.5557,-1.421 -9.5747,-2.5339 -3.0191,-1.1129 -6.6348,-2.44402 -8.0348,-2.95805 -1.4,-0.51402 -3.6011,-1.38322 -4.8913,-1.93154 -5.9012,-2.50787 -18.8747,-1.73714 -24.5136,1.45631 -4.7592,2.69529 -5.8342,4.81045 -6.1056,12.01389 -0.5384,14.28963 6.9166,34.50083 14.9835,40.62145 3.8735,2.93903 6.9592,3.89007 14.2723,4.39892 l 5.7453,0.39976 -0.4812,-3.00885 c -0.2706,-1.69282 -0.1888,-3.00883 0.1871,-3.00883 0.3675,0 2.2103,1.71818 4.0951,3.81818 2.6657,2.97018 4.2097,5.80619 6.9518,12.76937 22.6707,57.56847 69.3239,100.15524 128.3021,117.11897 24.6881,7.10096 45.0697,9.27316 69.1671,7.3716 z m -88.5669,-44.89971 c 2.4637,-3.45993 14.2273,-14.39982 20.4269,-18.9965 19.1958,-14.23281 37.4444,-20.73563 60.8317,-21.67718 16.7348,-0.67372 24.2624,1.4154 40.9472,11.36411 8.4828,5.05799 12.6024,8.15229 26.197,19.67661 6.7219,5.69838 8.6083,8 6.5564,8 -0.4422,0 -3.3059,-2.33663 -6.3636,-5.1925 -10.6611,-9.95743 -20.2594,-17.04893 -30.4866,-22.52429 -15.6633,-8.38573 -17.7607,-8.96376 -32.5274,-8.9641 -9.9001,-2.3e-4 -14.1025,0.33369 -21.0909,1.67589 -20.5629,3.94936 -42.5717,16.08355 -58.6325,32.3261 -6.3202,6.39171 -8.4614,7.96772 -5.8582,4.31186 z m -20.2366,-25.31436 c 0,-0.62477 0.8371,-2.90528 1.8601,-5.06779 2.9476,-6.23083 10.9104,-12.73731 29.7899,-24.34172 9.1773,-5.64092 13.6044,-11.9443 15.9898,-22.7667 0.6881,-3.12169 1.4126,-5.51422 1.6101,-5.31673 0.1975,0.19749 0,3.07887 -0.4456,6.40308 -1.6077,12.07454 -7.0882,19.03511 -22.5094,28.58813 -11.5564,7.15893 -19.5637,14.17527 -22.2038,19.45586 -1.9784,3.95717 -4.0911,5.5301 -4.0911,3.04587 z m 188.7765,-2.8364 c -2.0117,-5.26779 -12.4891,-13.95038 -25.7744,-21.35933 -12.6755,-7.06888 -18.8495,-14.98856 -20.7016,-26.55469 -1.1504,-7.18368 -0.3875,-8.64704 0.9123,-1.75 1.1857,6.29157 4.5522,12.89992 8.6252,16.93093 1.8891,1.86966 6.5438,5.19933 10.3438,7.39925 9.7312,5.63362 18.262,11.41128 22.5762,15.29008 3.6723,3.30173 8.4396,11.21216 7.5878,12.59046 -0.9581,1.55023 -2.3966,0.52381 -3.5693,-2.5467 z m -97.7477,-51.30859 c -7.0353,-3.19262 -9.1136,-3.60158 -14.1021,-2.77496 -4.0651,0.67361 -5.0668,0.60309 -7.4418,-0.52393 -3.4097,-1.61798 -7.3783,-5.62651 -7.9922,-8.07261 -0.3219,-1.28279 0.094,-2.79261 1.3673,-4.96575 2.0195,-3.44597 8.7173,-9.83636 10.3096,-9.83636 1.945,0 0.9839,1.84197 -2.5481,4.88362 -1.9577,1.68599 -4.4307,4.62411 -5.4955,6.52917 -2.3426,4.1914 -1.8887,5.76235 2.5049,8.66992 2.8971,1.9172 3.069,1.94083 7.8728,1.08235 5.4436,-0.97284 9.1779,-0.44949 14.7147,2.06223 4.2896,1.94588 6.9759,1.87162 11.7751,-0.32553 2.1931,-1.00403 6.2417,-2.11699 8.997,-2.47324 7.9636,-1.02969 11.0732,-2.81826 10.1201,-5.82093 -0.2552,-0.80421 -3.0661,-4.3108 -6.2464,-7.79243 -9.5031,-10.40357 -11.5822,-16.3915 -12.0886,-34.81516 l -0.3398,-12.36363 2.0548,-3.95893 c 2.0542,-3.95755 4.0639,-5.91083 5.0584,-4.9163 0.2904,0.29032 -0.2666,1.91511 -1.2378,3.61064 -1.6774,2.92864 -1.7643,3.68271 -1.7376,15.08277 0.044,18.89558 2.2968,25.13461 12.7258,35.24736 6.0889,5.90427 6.912,7.51362 5.5168,10.78742 -1.9338,4.53831 -6.7032,7.29239 -13.9071,8.03087 -2,0.20502 -5.4363,1.21184 -7.6363,2.23736 -4.7832,2.22967 -8.0061,2.33918 -12.244,0.41605 z m -207.2245,-19.59015 c -4.0094,-2.9044 -9.2478,-9.51252 -11.8701,-14.97399 -5.4149,-11.27756 -4.2621,-23.72508 2.5893,-27.9595 5.2369,-3.23662 19.0766,-3.44019 18.4312,-0.27109 -0.1817,0.89197 -1.5471,1.14368 -6.7913,1.25191 -11.1921,0.23097 -14.4634,3.49433 -13.982,13.94768 0.2135,4.6343 0.7292,6.82747 2.4796,10.54545 2.8318,6.01475 7.3607,11.69553 11.9564,14.99716 1.994,1.43259 3.5044,2.97323 3.3562,3.42363 -0.5318,1.61702 -3.1797,1.20445 -6.1693,-0.96125 z m 140.5594,-0.5037 c -15.8212,-2.41047 -31.01,-15.5368 -35.4686,-30.65225 -2.223,-7.53654 -2.0251,-19.09314 0.4584,-26.75726 3.2418,-10.00486 9.313,-17.95983 17.9839,-23.5641 6.4912,-4.19548 12.118,-5.88598 21.0263,-6.31714 6.776,-0.32795 8.3738,-0.1529 14.1818,1.55371 12.3221,3.62069 19.627,8.8014 24.7416,17.54685 1.4975,2.56074 2.8253,4.65589 2.9506,4.65589 0.1253,0 2.4705,-1.12556 5.2117,-2.50125 15.0447,-7.55045 26.9098,-8.19346 38.2137,-2.07096 l 4.1092,2.22563 2.2947,-3.57595 c 3.3359,-5.19859 9.6453,-10.5092 16.2967,-13.7169 12.794,-6.17011 25.6493,-5.80055 40.1459,1.15409 8.9,4.26969 13.0179,8.39407 17.2282,17.2554 4.8019,10.10606 6.0947,17.28508 4.8067,26.69189 -1.487,10.8601 -7.9832,22.05137 -16.5685,28.54292 -5.9866,4.52662 -7.2028,5.21186 -13.2587,7.47017 -4.7954,1.78829 -6.4417,2.03059 -13.8082,2.0323 -7.1813,0.001 -9.0567,-0.25873 -13.2666,-1.84203 -7.3493,-2.76404 -12.5099,-6.18598 -17.9575,-11.90749 -8.6247,-9.0584 -12.2367,-19.20454 -11.4772,-32.23944 0.2234,-3.83511 0.9227,-8.40499 1.5538,-10.15528 0.6312,-1.75029 1.1475,-3.46182 1.1475,-3.80339 0,-0.95878 -5.699,-3.74192 -10.5454,-5.14994 -6.085,-1.76786 -10.564,-1.62307 -17.7683,0.57437 -8.792,2.68173 -14.8542,5.8404 -14.243,7.42117 1.4811,3.83007 2.0877,12.78614 1.2927,19.08495 -1.9937,15.79467 -14.3659,30.72061 -29.7901,35.93899 -5.1385,1.73848 -14.9455,2.79763 -19.4913,2.10505 z m 16.5412,-6.03217 c 7.49,-1.91563 12.4076,-4.55316 17.4415,-9.35463 7.6369,-7.28442 11.4718,-16.57221 11.4718,-27.78387 0,-11.86468 -4.1747,-20.5526 -13.9743,-29.0815 -6.8635,-5.97355 -12.4266,-8.57652 -20.2326,-9.46682 -18.5775,-2.1188 -37.332,10.41734 -42.28,28.26143 -5.7327,20.67392 8.0016,43.00998 29.3143,47.67375 6.5869,1.44138 11.937,1.36862 18.2593,-0.24836 z m -17.2605,-1.21184 c -1.5955,-0.58396 -4.1292,-2.26104 -5.6303,-3.72682 -3.8029,-3.71345 -5.1593,-7.6522 -4.8036,-13.94851 0.2386,-4.22109 0.6642,-5.63281 2.4749,-8.20922 2.7167,-3.86539 5.9867,-6.11123 11.0351,-7.57881 4.4038,-1.28022 4.0992,-1.36645 10.0012,2.83154 5.9887,4.25971 8.0118,7.98609 7.9837,14.70516 -0.033,7.9225 -3.3799,12.91014 -10.7212,15.9775 -3.2641,1.36385 -6.5181,1.34785 -10.3398,-0.0508 z m 7.2647,-19.92666 c -0.2472,-0.4 -0.7767,-0.72727 -1.1767,-0.72727 -0.4,0 -0.525,0.32727 -0.2778,0.72727 0.2472,0.4 0.7767,0.72728 1.1767,0.72728 0.4,0 0.525,-0.32728 0.2778,-0.72728 z m 134.4405,21.39562 c 10.4697,-2.69402 20.2352,-9.88554 24.6128,-18.12525 4.5139,-8.49664 6.0589,-19.78599 3.8618,-28.22069 -1.8806,-7.22029 -4.4957,-11.38697 -11.3248,-18.04394 -9.1193,-8.88955 -15.2307,-11.55795 -26.4331,-11.54146 -14.4797,0.0213 -27.5803,7.68108 -34.8117,20.35391 -4.911,8.6066 -5.8649,21.29122 -2.2794,30.31253 4.115,10.35332 9.9338,17.14645 18.578,21.68888 8.5692,4.50299 18.9859,5.8431 27.7964,3.57602 z m -16.4886,-1.31679 c -6.7829,-2.52075 -10.9398,-8.76638 -10.9436,-16.44246 -0.01,-9.00631 5.178,-15.01351 15.1098,-17.51435 3.0495,-0.76789 3.5714,-0.71089 5.0068,0.5469 0.8813,0.77228 3.014,2.34655 4.7393,3.49839 10.3907,6.93701 9.2142,23.28252 -2.0966,29.1316 -3.1723,1.64045 -8.5458,1.99514 -11.8157,0.77992 z m 6.7754,-20.07883 c 0,-0.4 -0.3466,-0.72727 -0.7702,-0.72727 -0.4236,0 -0.5679,0.32727 -0.3207,0.72727 0.2472,0.4 0.5938,0.72728 0.7702,0.72728 0.1764,0 0.3207,-0.32728 0.3207,-0.72728 z m 143.5488,19.4947 c -0.3281,-0.53084 0.2919,-1.44524 1.5934,-2.35009 4.7472,-3.30032 10.4918,-10.02792 13.1425,-15.39124 2.3159,-4.68591 2.7478,-6.34153 2.983,-11.43449 0.4879,-10.56778 -2.7469,-13.81998 -13.9765,-14.05173 -5.2442,-0.10822 -6.6097,-0.35993 -6.7914,-1.25191 -0.6453,-3.16909 13.1943,-2.96553 18.4313,0.2711 6.8514,4.23441 8.0042,16.68193 2.5893,27.9595 -4.9213,10.24939 -15.672,19.96963 -17.9716,16.24886 z m 278.53535,-70.67173 c 1.7781,-1.04204 4.2767,-3.21252 5.5524,-4.82328 l 2.3196,-2.92865 -5.7053,-2.63256 c -8.1715,-3.77044 -10.5608,-3.84289 -21.3498,-0.64738 -11.7486,3.47976 -11.4396,3.27546 -9.1214,6.03042 5.5969,6.65162 20.8804,9.35224 28.3045,5.00145 z m 11.7492,-23.28014 c 0.5444,-5.81018 0.4631,-6.42576 -2.3893,-18.08828 -2.2177,-9.06721 -1.474,-8.67054 -11.4441,-6.1042 -9.4526,2.43316 -12.9341,4.21238 -18.301,9.35273 -6.4204,6.14933 -8.6883,9.61749 -9.6338,14.73191 -0.4337,2.34622 -0.7076,4.33936 -0.6086,4.42921 0.099,0.0899 3.2889,-0.81908 7.0889,-2.01986 5.458,-1.7247 8.3601,-2.20492 13.8182,-2.28651 6.5049,-0.0972 7.2494,0.0516 12.7273,2.54494 8.2813,3.76937 8.1456,3.80913 8.7424,-2.55994 z M 446.76245,493.41102 c -1.2151,-0.88844 -1.2751,-1.3239 -0.5265,-3.81818 0.987,-3.28822 8.8409,-14.27144 11.4083,-15.95365 2.6278,-1.72179 5.0701,-1.119 5.3508,1.32061 0.3407,2.96069 -11.8973,19.45403 -14.4348,19.45403 -0.2345,0 -1.0436,-0.45126 -1.7978,-1.00281 z m -18.2294,-32.68365 c -0.6349,-1.65448 0.065,-2.42559 2.6749,-2.9476 3.2369,-0.64738 9.3178,-4.27271 15.7789,-9.40708 5.3734,-4.27004 14.8155,-10.00233 18.1417,-11.01381 6.141,-1.86745 -5.0203,8.96113 -16.6145,16.11921 -10.7465,6.63475 -12.3448,7.41623 -16.2677,7.95392 -2.5962,0.35584 -3.3622,0.21049 -3.7133,-0.70464 z m 46.3889,-318.84127 c -2.1136,-1.0994 -6.839,-4.39107 -10.5008,-7.31484 -7.8831,-6.29433 -15.7422,-11.31128 -20.1617,-12.87057 -4.0425,-1.42628 -5.1309,-2.34296 -5.1309,-4.32135 0,-2.40405 1.4083,-3.32913 5.0679,-3.32913 4.0799,0 10.9145,3.3701 20.5919,10.15377 7.9873,5.5989 18.912,16.21852 18.5657,18.04716 -0.3842,2.02852 -4.1432,1.86579 -8.4321,-0.36504 z m -8.6246,-39.08128 c -1.8929,-1.32584 -2.8536,-3.80045 -3.8455,-9.90509 -1.2928,-7.95627 -1.0213,-15.482605 0.6311,-17.496225 1.1449,-1.39513 1.6561,-1.56681 2.7273,-0.91594 1.3142,0.79851 1.7422,3.2244 3.5477,20.108095 0.4394,4.10914 0.7449,4.90909 1.875,4.90909 1.5366,0 1.8018,1.64237 0.4411,2.73103 -1.7496,1.39971 -3.8703,1.62416 -5.3767,0.56904 z"
     id="path1056"
     inkscape:connector-curvature="0" />
</svg>
